<?xml version="1.0" encoding="UTF-8"?>
<svg width="45px" height="52px" viewBox="0 0 45 52" version="1.1" xmlns="http://www.w3.org/2000/svg"
    xmlns:xlink="http://www.w3.org/1999/xlink">
    <title>aksa</title>
    <g id="Final" stroke="none" stroke-width="1" fill="none" fill-rule="evenodd">
        <g id="aksa" transform="translate(-0.000305, -0.000000)">
            <path
                d="M38.4100125,6.59008902 C34.1602749,2.3404529 28.5101039,0 22.5000508,0 C16.4899976,0 10.8398267,2.3404529 6.59008902,6.59008902 C2.34035135,10.8397251 0,16.4899976 0,22.5000508 C0,26.2435772 1.17459297,30.1193176 3.49128389,34.0195309 C5.30135734,37.0669533 7.81332295,40.1410825 10.9572149,43.1567207 C16.2652743,48.2481806 21.4990015,51.3947128 21.7192567,51.526216 L22.4999492,51.9923163 L23.2806418,51.526216 C23.500897,51.3947128 28.7346241,48.2481806 34.0426835,43.1567207 C37.186677,40.1410825 39.6985411,37.0668517 41.5086146,34.0195309 C43.8252039,30.1193176 44.9998985,26.2435772 44.9998985,22.5000508 C44.9998985,16.4900992 42.6596486,10.8398267 38.4100125,6.59008902 Z"
                id="Path" fill="#90C33B"></path>
            <circle id="Oval" fill="#FFFFFF" fill-rule="nonzero" cx="22.5000508" cy="22.4611583" r="16.4861388">
            </circle>
            <g id="Group-26-Copy" transform="translate(16.50000, 16.000000)">
                <g transform="matrix(0.02 0 0 0.02 0 0)">
                    <g>
                        <path
                            d="M-0.5 -0.5C 199.5 -0.5 399.5 -0.5 599.5 -0.5C 599.5 117.167 599.5 234.833 599.5 352.5C 578.167 352.5 556.833 352.5 535.5 352.5C 535.5 316.833 535.5 281.167 535.5 245.5C 520.167 245.5 504.833 245.5 489.5 245.5C 475.847 242.862 462.18 242.862 448.5 245.5C 425.167 245.5 401.833 245.5 378.5 245.5C 366.481 242.949 354.481 242.949 342.5 245.5C 330.5 245.5 318.5 245.5 306.5 245.5C 294.833 245.5 283.167 245.5 271.5 245.5C 259.5 245.5 247.5 245.5 235.5 245.5C 224.833 245.5 214.167 245.5 203.5 245.5C 203.167 245.5 202.833 245.5 202.5 245.5C 183.833 245.5 165.167 245.5 146.5 245.5C 133.506 242.864 120.506 242.864 107.5 245.5C 92.8333 245.5 78.1667 245.5 63.5 245.5C 63.5 281.167 63.5 316.833 63.5 352.5C 42.1667 352.5 20.8333 352.5 -0.5 352.5C -0.5 234.833 -0.5 117.167 -0.5 -0.5z"
                            stroke="none" fill="#005197" fill-rule="nonzero" />
                    </g>
                    <g>
                        <path
                            d="M146.5 245.5C 148.302 246.458 150.302 247.125 152.5 247.5C 171.628 253.408 181.294 266.408 181.5 286.5C 181.5 308.833 181.5 331.167 181.5 353.5C 170.833 353.5 160.167 353.5 149.5 353.5C 149.5 353.167 149.5 352.833 149.5 352.5C 149.666 347.821 149.499 343.155 149 338.5C 145.241 344.096 140.408 348.429 134.5 351.5C 133.29 351.932 132.29 352.599 131.5 353.5C 118.78 357.4 106.113 357.4 93.5 353.5C 93.1667 352.5 92.5 351.833 91.5 351.5C 77.8842 342.925 72.3842 330.592 75 314.5C 78.2368 304.596 84.4034 297.096 93.5 292C 104.242 286.652 115.575 284.652 127.5 286C 134.785 287.284 141.951 288.784 149 290.5C 150.644 278.455 145.477 270.955 133.5 268C 126.5 267.333 119.5 267.333 112.5 268C 104.574 271.139 96.9078 274.472 89.5 278C 86.8108 272.121 83.9774 266.288 81 260.5C 80.3333 259.5 80.3333 258.5 81 257.5C 87.6186 252.608 94.7852 248.941 102.5 246.5C 104.415 246.784 106.081 246.451 107.5 245.5C 120.506 242.864 133.506 242.864 146.5 245.5z"
                            stroke="none" fill="#FCFCFC" fill-rule="nonzero" />
                    </g>
                    <g>
                        <path
                            d="M378.5 245.5C 379.93 246.537 381.597 247.204 383.5 247.5C 390.996 249.743 397.329 253.743 402.5 259.5C 398.625 266.084 394.625 272.584 390.5 279C 385.343 276.422 380.01 273.755 374.5 271C 367.06 267.384 359.393 266.717 351.5 269C 347.723 271.911 346.556 275.744 348 280.5C 348.833 281.333 349.667 282.167 350.5 283C 362.565 287.133 374.565 291.466 386.5 296C 401.228 302.96 406.728 314.46 403 330.5C 400.223 340.105 394.389 347.105 385.5 351.5C 384.29 351.932 383.29 352.599 382.5 353.5C 366.168 357.474 349.835 357.474 333.5 353.5C 332.71 352.599 331.71 351.932 330.5 351.5C 322.767 348.76 316.1 344.427 310.5 338.5C 314.04 331.919 317.707 325.419 321.5 319C 327.813 321.994 334.146 325.327 340.5 329C 349.314 332.576 358.314 333.242 367.5 331C 370.683 329.982 372.016 327.815 371.5 324.5C 371.674 322.307 371.007 320.473 369.5 319C 355.077 314.305 341.077 308.639 327.5 302C 317.135 294.393 313.635 284.227 317 271.5C 321.335 258.749 329.835 250.082 342.5 245.5C 354.481 242.949 366.481 242.949 378.5 245.5z"
                            stroke="none" fill="#FCFCFC" fill-rule="nonzero" />
                    </g>
                    <g>
                        <path
                            d="M489.5 245.5C 491.302 246.458 493.302 247.125 495.5 247.5C 509.417 251.583 518.583 260.583 523 274.5C 524.464 300.782 524.964 327.115 524.5 353.5C 513.833 353.5 503.167 353.5 492.5 353.5C 492.666 348.489 492.499 343.489 492 338.5C 491.283 339.044 490.783 339.711 490.5 340.5C 486.246 344.963 481.579 348.963 476.5 352.5C 475.508 352.328 474.842 352.662 474.5 353.5C 461.793 357.399 449.126 357.399 436.5 353.5C 436.167 352.5 435.5 351.833 434.5 351.5C 416.589 338.924 412.756 322.924 423 303.5C 433.804 291.614 447.304 285.614 463.5 285.5C 472.97 286.522 482.303 288.189 491.5 290.5C 493.656 278.453 488.656 270.953 476.5 268C 469.5 267.333 462.5 267.333 455.5 268C 447.31 270.606 439.643 273.939 432.5 278C 429.167 271.333 425.833 264.667 422.5 258C 429.186 253.157 436.519 249.657 444.5 247.5C 446.153 247.34 447.486 246.674 448.5 245.5C 462.18 242.862 475.847 242.862 489.5 245.5z"
                            stroke="none" fill="#FCFCFC" fill-rule="nonzero" />
                    </g>
                    <g>
                        <path
                            d="M146.5 245.5C 165.167 245.5 183.833 245.5 202.5 245.5C 202.5 245.833 202.5 246.167 202.5 246.5C 185.658 246.17 168.992 246.503 152.5 247.5C 150.302 247.125 148.302 246.458 146.5 245.5z"
                            stroke="none" fill="#183553" fill-rule="nonzero" />
                    </g>
                    <g>
                        <path
                            d="M271.5 246.5C 271.5 246.167 271.5 245.833 271.5 245.5C 283.167 245.5 294.833 245.5 306.5 245.5C 306.167 246.5 305.5 247.167 304.5 247.5C 293.679 246.505 282.679 246.172 271.5 246.5z"
                            stroke="none" fill="#CDD4DA" fill-rule="nonzero" />
                    </g>
                    <g>
                        <path
                            d="M378.5 245.5C 401.833 245.5 425.167 245.5 448.5 245.5C 447.486 246.674 446.153 247.34 444.5 247.5C 424.167 246.167 403.833 246.167 383.5 247.5C 381.597 247.204 379.93 246.537 378.5 245.5z"
                            stroke="none" fill="#193653" fill-rule="nonzero" />
                    </g>
                    <g>
                        <path
                            d="M107.5 245.5C 106.081 246.451 104.415 246.784 102.5 246.5C 89.8333 246.5 77.1667 246.5 64.5 246.5C 64.5 281.833 64.5 317.167 64.5 352.5C 64.1667 352.5 63.8333 352.5 63.5 352.5C 63.5 316.833 63.5 281.167 63.5 245.5C 78.1667 245.5 92.8333 245.5 107.5 245.5z"
                            stroke="none" fill="#132A42" fill-rule="nonzero" />
                    </g>
                    <g>
                        <path
                            d="M102.5 246.5C 94.7852 248.941 87.6186 252.608 81 257.5C 80.3333 258.5 80.3333 259.5 81 260.5C 83.9774 266.288 86.8108 272.121 89.5 278C 96.9078 274.472 104.574 271.139 112.5 268C 119.5 267.333 126.5 267.333 133.5 268C 145.477 270.955 150.644 278.455 149 290.5C 141.951 288.784 134.785 287.284 127.5 286C 115.575 284.652 104.242 286.652 93.5 292C 84.4034 297.096 78.2368 304.596 75 314.5C 72.3842 330.592 77.8842 342.925 91.5 351.5C 82.6822 352.493 73.6822 352.827 64.5 352.5C 64.5 317.167 64.5 281.833 64.5 246.5C 77.1667 246.5 89.8333 246.5 102.5 246.5z"
                            stroke="none" fill="#1B191B" fill-rule="nonzero" />
                    </g>
                    <g>
                        <path
                            d="M152.5 247.5C 168.992 246.503 185.658 246.17 202.5 246.5C 202.5 281.833 202.5 317.167 202.5 352.5C 195.833 352.5 189.167 352.5 182.5 352.5C 182.831 330.327 182.497 308.327 181.5 286.5C 181.294 266.408 171.628 253.408 152.5 247.5z"
                            stroke="none" fill="#1A181A" fill-rule="nonzero" />
                    </g>
                    <g>
                        <path
                            d="M203.5 246.5C 213.833 246.5 224.167 246.5 234.5 246.5C 234.167 261.182 234.501 275.848 235.5 290.5C 236.107 290.376 236.44 290.043 236.5 289.5C 247.818 274.852 259.485 260.519 271.5 246.5C 282.679 246.172 293.679 246.505 304.5 247.5C 292.379 262.793 280.046 277.959 267.5 293C 280.882 312.271 293.882 331.771 306.5 351.5C 295.346 352.495 284.012 352.828 272.5 352.5C 272.5 351.833 272.167 351.5 271.5 351.5C 263.193 338.184 254.86 324.851 246.5 311.5C 243.173 315.494 239.506 319.161 235.5 322.5C 234.506 332.319 234.173 342.319 234.5 352.5C 224.167 352.5 213.833 352.5 203.5 352.5C 203.5 317.167 203.5 281.833 203.5 246.5z"
                            stroke="none" fill="#FDFDFD" fill-rule="nonzero" />
                    </g>
                    <g>
                        <path
                            d="M203.5 246.5C 203.5 246.167 203.5 245.833 203.5 245.5C 214.167 245.5 224.833 245.5 235.5 245.5C 235.171 260.343 235.504 275.01 236.5 289.5C 236.44 290.043 236.107 290.376 235.5 290.5C 234.501 275.848 234.167 261.182 234.5 246.5C 224.167 246.5 213.833 246.5 203.5 246.5z"
                            stroke="none" fill="#C1C3C5" fill-rule="nonzero" />
                    </g>
                    <g>
                        <path
                            d="M235.5 245.5C 247.5 245.5 259.5 245.5 271.5 245.5C 271.5 245.833 271.5 246.167 271.5 246.5C 259.485 260.519 247.818 274.852 236.5 289.5C 235.504 275.01 235.171 260.343 235.5 245.5z"
                            stroke="none" fill="#1B1A1D" fill-rule="nonzero" />
                    </g>
                    <g>
                        <path
                            d="M306.5 245.5C 318.5 245.5 330.5 245.5 342.5 245.5C 329.835 250.082 321.335 258.749 317 271.5C 313.635 284.227 317.135 294.393 327.5 302C 341.077 308.639 355.077 314.305 369.5 319C 371.007 320.473 371.674 322.307 371.5 324.5C 372.016 327.815 370.683 329.982 367.5 331C 358.314 333.242 349.314 332.576 340.5 329C 334.146 325.327 327.813 321.994 321.5 319C 317.707 325.419 314.04 331.919 310.5 338.5C 316.1 344.427 322.767 348.76 330.5 351.5C 323.018 352.492 315.352 352.825 307.5 352.5C 307.5 351.833 307.167 351.5 306.5 351.5C 293.882 331.771 280.882 312.271 267.5 293C 280.046 277.959 292.379 262.793 304.5 247.5C 305.5 247.167 306.167 246.5 306.5 245.5z"
                            stroke="none" fill="#1B191B" fill-rule="nonzero" />
                    </g>
                    <g>
                        <path
                            d="M383.5 247.5C 403.833 246.167 424.167 246.167 444.5 247.5C 436.519 249.657 429.186 253.157 422.5 258C 425.833 264.667 429.167 271.333 432.5 278C 439.643 273.939 447.31 270.606 455.5 268C 462.5 267.333 469.5 267.333 476.5 268C 488.656 270.953 493.656 278.453 491.5 290.5C 482.303 288.189 472.97 286.522 463.5 285.5C 447.304 285.614 433.804 291.614 423 303.5C 412.756 322.924 416.589 338.924 434.5 351.5C 418.167 352.833 401.833 352.833 385.5 351.5C 394.389 347.105 400.223 340.105 403 330.5C 406.728 314.46 401.228 302.96 386.5 296C 374.565 291.466 362.565 287.133 350.5 283C 349.667 282.167 348.833 281.333 348 280.5C 346.556 275.744 347.723 271.911 351.5 269C 359.393 266.717 367.06 267.384 374.5 271C 380.01 273.755 385.343 276.422 390.5 279C 394.625 272.584 398.625 266.084 402.5 259.5C 397.329 253.743 390.996 249.743 383.5 247.5z"
                            stroke="none" fill="#1C1A1C" fill-rule="nonzero" />
                    </g>
                    <g>
                        <path
                            d="M495.5 247.5C 508.323 246.505 521.323 246.171 534.5 246.5C 534.168 282.004 534.502 317.337 535.5 352.5C 556.833 352.5 578.167 352.5 599.5 352.5C 599.5 352.833 599.5 353.167 599.5 353.5C 574.5 353.5 549.5 353.5 524.5 353.5C 524.964 327.115 524.464 300.782 523 274.5C 518.583 260.583 509.417 251.583 495.5 247.5z"
                            stroke="none" fill="#1C1C1D" fill-rule="nonzero" />
                    </g>
                    <g>
                        <path
                            d="M489.5 245.5C 504.833 245.5 520.167 245.5 535.5 245.5C 535.5 281.167 535.5 316.833 535.5 352.5C 534.502 317.337 534.168 282.004 534.5 246.5C 521.323 246.171 508.323 246.505 495.5 247.5C 493.302 247.125 491.302 246.458 489.5 245.5z"
                            stroke="none" fill="#142B43" fill-rule="nonzero" />
                    </g>
                    <g>
                        <path
                            d="M181.5 286.5C 182.497 308.327 182.831 330.327 182.5 352.5C 189.167 352.5 195.833 352.5 202.5 352.5C 202.5 352.833 202.5 353.167 202.5 353.5C 195.5 353.5 188.5 353.5 181.5 353.5C 181.5 331.167 181.5 308.833 181.5 286.5z"
                            stroke="none" fill="#373C3B" fill-rule="nonzero" />
                    </g>
                    <g>
                        <path
                            d="M119.5 304.5C 129.617 304.409 139.617 305.409 149.5 307.5C 149.665 310.85 149.498 314.183 149 317.5C 143.654 324.424 136.821 329.257 128.5 332C 121.682 333.402 115.348 332.402 109.5 329C 104.254 322.635 104.254 316.302 109.5 310C 112.767 307.87 116.1 306.037 119.5 304.5z"
                            stroke="none" fill="#1C1A1C" fill-rule="nonzero" />
                    </g>
                    <g>
                        <path
                            d="M462.5 304.5C 472.639 304.053 482.472 305.386 492 308.5C 492.667 311.5 492.667 314.5 492 317.5C 483.294 329.106 471.794 333.939 457.5 332C 450.317 328.802 447.484 323.302 449 315.5C 449.883 312.898 451.383 310.731 453.5 309C 456.592 307.454 459.592 305.954 462.5 304.5z"
                            stroke="none" fill="#1C1A1C" fill-rule="nonzero" />
                    </g>
                    <g>
                        <path
                            d="M271.5 351.5C 259.678 352.495 247.678 352.828 235.5 352.5C 235.5 342.5 235.5 332.5 235.5 322.5C 239.506 319.161 243.173 315.494 246.5 311.5C 254.86 324.851 263.193 338.184 271.5 351.5z"
                            stroke="none" fill="#1B191B" fill-rule="nonzero" />
                    </g>
                    <g>
                        <path
                            d="M149.5 352.5C 144.305 352.821 139.305 352.487 134.5 351.5C 140.408 348.429 145.241 344.096 149 338.5C 149.499 343.155 149.666 347.821 149.5 352.5z"
                            stroke="none" fill="#1E1C1E" fill-rule="nonzero" />
                    </g>
                    <g>
                        <path
                            d="M490.5 340.5C 491.483 344.298 491.817 348.298 491.5 352.5C 486.5 352.5 481.5 352.5 476.5 352.5C 481.579 348.963 486.246 344.963 490.5 340.5z"
                            stroke="none" fill="#1E1C1E" fill-rule="nonzero" />
                    </g>
                    <g>
                        <path
                            d="M91.5 351.5C 92.5 351.833 93.1667 352.5 93.5 353.5C 62.1667 353.5 30.8333 353.5 -0.5 353.5C -0.5 353.167 -0.5 352.833 -0.5 352.5C 20.8333 352.5 42.1667 352.5 63.5 352.5C 63.8333 352.5 64.1667 352.5 64.5 352.5C 73.6822 352.827 82.6822 352.493 91.5 351.5z"
                            stroke="none" fill="#335F52" fill-rule="nonzero" />
                    </g>
                    <g>
                        <path
                            d="M134.5 351.5C 139.305 352.487 144.305 352.821 149.5 352.5C 149.5 352.833 149.5 353.167 149.5 353.5C 143.5 353.5 137.5 353.5 131.5 353.5C 132.29 352.599 133.29 351.932 134.5 351.5z"
                            stroke="none" fill="#2C4740" fill-rule="nonzero" />
                    </g>
                    <g>
                        <path
                            d="M202.5 245.5C 202.833 245.5 203.167 245.5 203.5 245.5C 203.5 245.833 203.5 246.167 203.5 246.5C 203.5 281.833 203.5 317.167 203.5 352.5C 213.833 352.5 224.167 352.5 234.5 352.5C 234.173 342.319 234.506 332.319 235.5 322.5C 235.5 332.5 235.5 342.5 235.5 352.5C 235.5 352.833 235.5 353.167 235.5 353.5C 224.5 353.5 213.5 353.5 202.5 353.5C 202.5 353.167 202.5 352.833 202.5 352.5C 202.5 317.167 202.5 281.833 202.5 246.5C 202.5 246.167 202.5 245.833 202.5 245.5z"
                            stroke="none" fill="#9B9F9E" fill-rule="nonzero" />
                    </g>
                    <g>
                        <path
                            d="M271.5 351.5C 272.167 351.5 272.5 351.833 272.5 352.5C 272.5 352.833 272.5 353.167 272.5 353.5C 260.167 353.5 247.833 353.5 235.5 353.5C 235.5 353.167 235.5 352.833 235.5 352.5C 247.678 352.828 259.678 352.495 271.5 351.5z"
                            stroke="none" fill="#2A463E" fill-rule="nonzero" />
                    </g>
                    <g>
                        <path
                            d="M306.5 351.5C 307.167 351.5 307.5 351.833 307.5 352.5C 307.5 352.833 307.5 353.167 307.5 353.5C 295.833 353.5 284.167 353.5 272.5 353.5C 272.5 353.167 272.5 352.833 272.5 352.5C 284.012 352.828 295.346 352.495 306.5 351.5z"
                            stroke="none" fill="#A8B4B1" fill-rule="nonzero" />
                    </g>
                    <g>
                        <path
                            d="M330.5 351.5C 331.71 351.932 332.71 352.599 333.5 353.5C 324.833 353.5 316.167 353.5 307.5 353.5C 307.5 353.167 307.5 352.833 307.5 352.5C 315.352 352.825 323.018 352.492 330.5 351.5z"
                            stroke="none" fill="#2C4840" fill-rule="nonzero" />
                    </g>
                    <g>
                        <path
                            d="M385.5 351.5C 401.833 352.833 418.167 352.833 434.5 351.5C 435.5 351.833 436.167 352.5 436.5 353.5C 418.5 353.5 400.5 353.5 382.5 353.5C 383.29 352.599 384.29 351.932 385.5 351.5z"
                            stroke="none" fill="#2D4841" fill-rule="nonzero" />
                    </g>
                    <g>
                        <path
                            d="M492.5 353.5C 486.5 353.5 480.5 353.5 474.5 353.5C 474.842 352.662 475.508 352.328 476.5 352.5C 481.5 352.5 486.5 352.5 491.5 352.5C 491.817 348.298 491.483 344.298 490.5 340.5C 490.783 339.711 491.283 339.044 492 338.5C 492.499 343.489 492.666 348.489 492.5 353.5z"
                            stroke="none" fill="#31443E" fill-rule="nonzero" />
                    </g>
                    <g>
                        <path
                            d="M-0.5 353.5C 30.8333 353.5 62.1667 353.5 93.5 353.5C 106.113 357.4 118.78 357.4 131.5 353.5C 137.5 353.5 143.5 353.5 149.5 353.5C 160.167 353.5 170.833 353.5 181.5 353.5C 188.5 353.5 195.5 353.5 202.5 353.5C 213.5 353.5 224.5 353.5 235.5 353.5C 247.833 353.5 260.167 353.5 272.5 353.5C 284.167 353.5 295.833 353.5 307.5 353.5C 316.167 353.5 324.833 353.5 333.5 353.5C 349.835 357.474 366.168 357.474 382.5 353.5C 400.5 353.5 418.5 353.5 436.5 353.5C 449.126 357.399 461.793 357.399 474.5 353.5C 480.5 353.5 486.5 353.5 492.5 353.5C 503.167 353.5 513.833 353.5 524.5 353.5C 549.5 353.5 574.5 353.5 599.5 353.5C 599.5 435.5 599.5 517.5 599.5 599.5C 399.5 599.5 199.5 599.5 -0.5 599.5C -0.5 517.5 -0.5 435.5 -0.5 353.5z"
                            stroke="none" fill="#90C33B" fill-rule="nonzero" />
                    </g>
                </g>
            </g>
        </g>
    </g>
</svg>