<?xml version="1.0" encoding="UTF-8"?>
<svg width="45px" height="52px" viewBox="0 0 45 52" version="1.1" xmlns="http://www.w3.org/2000/svg"
    xmlns:xlink="http://www.w3.org/1999/xlink">
    <title>marker</title>
    <g id="Final" stroke="none" stroke-width="1" fill="none" fill-rule="evenodd">
        <g id="aksa" transform="translate(-0.000305, -0.000000)">
            <path
                d="M38.4100125,6.59008902 C34.1602749,2.3404529 28.5101039,0 22.5000508,0 C16.4899976,0 10.8398267,2.3404529 6.59008902,6.59008902 C2.34035135,10.8397251 0,16.4899976 0,22.5000508 C0,26.2435772 1.17459297,30.1193176 3.49128389,34.0195309 C5.30135734,37.0669533 7.81332295,40.1410825 10.9572149,43.1567207 C16.2652743,48.2481806 21.4990015,51.3947128 21.7192567,51.526216 L22.4999492,51.9923163 L23.2806418,51.526216 C23.500897,51.3947128 28.7346241,48.2481806 34.0426835,43.1567207 C37.186677,40.1410825 39.6985411,37.0668517 41.5086146,34.0195309 C43.8252039,30.1193176 44.9998985,26.2435772 44.9998985,22.5000508 C44.9998985,16.4900992 42.6596486,10.8398267 38.4100125,6.59008902 Z"
                id="Path" fill="#000000"></path>
            <circle id="Oval" fill="#FFFFFF" fill-rule="nonzero" cx="22.5000508" cy="22.4611583" r="16.4861388">
            </circle>

            <g transform="matrix(0.08 0 0 0.08 12 12)">
                <g>
                    <path
                        d="M-0.5 -0.5C 86.1667 -0.5 172.833 -0.5 259.5 -0.5C 259.5 86.1667 259.5 172.833 259.5 259.5C 172.833 259.5 86.1667 259.5 -0.5 259.5C -0.5 172.833 -0.5 86.1667 -0.5 -0.5z"
                        stroke="none" fill="#000000" fill-rule="nonzero" />
                </g>
                <g>
                    <path
                        d="M136.5 48.5C 158.614 47.7691 180.614 48.9358 202.5 52C 209.779 52.6008 212.112 56.2675 209.5 63C 216.785 72.5245 220.285 83.3579 220 95.5C 226.834 107.145 228.334 119.478 224.5 132.5C 221.167 133.167 217.833 133.833 214.5 134.5C 206.927 151.951 194.593 156.451 177.5 148C 167.243 139.395 164.743 128.895 170 116.5C 182.546 100.423 196.213 99.4227 211 113.5C 213.602 117.474 215.102 121.807 215.5 126.5C 216.833 126.5 218.167 126.5 219.5 126.5C 220.869 116.483 219.035 107.15 214 98.5C 214.307 86.3587 210.64 75.6921 203 66.5C 202.667 64.1667 202.333 61.8333 202 59.5C 187.539 56.4127 172.873 55.0794 158 55.5C 144.544 54.6475 131.377 56.1475 118.5 60C 97.8137 68.1759 77.4804 77.1759 57.5 87C 51.7092 90.0739 48.5426 94.9072 48 101.5C 41.028 109.915 38.528 119.581 40.5 130.5C 42.8333 130.5 45.1667 130.5 47.5 130.5C 47.6949 114.635 55.6949 105.635 71.5 103.5C 90.7746 107.051 98.2746 118.384 94 137.5C 84.985 152.27 72.8183 155.77 57.5 148C 54.0733 145.244 51.4066 141.91 49.5 138C 44.8452 137.501 40.1785 137.334 35.5 137.5C 32.3844 126.636 32.8844 115.97 37 105.5C 41.1461 100.947 43.8127 95.6137 45 89.5C 50.3505 83.506 56.8505 79.006 64.5 76C 81.1509 67.8408 98.1509 60.5075 115.5 54C 122.509 51.666 129.509 49.8326 136.5 48.5z"
                        stroke="none" fill="#F2F2F2" fill-rule="nonzero" />
                </g>
                <g>
                    <path
                        d="M127.5 68.5C 135.86 68.1688 144.193 68.5021 152.5 69.5C 149.232 76.6392 146.565 83.9725 144.5 91.5C 148.167 91.5 151.833 91.5 155.5 91.5C 155.649 92.552 155.483 93.552 155 94.5C 143.328 110.332 131.494 125.999 119.5 141.5C 118.369 139.926 118.202 138.259 119 136.5C 122.329 124.686 125.496 112.852 128.5 101C 125.5 100.667 122.5 100.333 119.5 100C 118.903 98.9383 118.57 97.7716 118.5 96.5C 121.106 87.0156 124.106 77.6823 127.5 68.5z"
                        stroke="none" fill="#F8F8F8" fill-rule="nonzero" />
                </g>
                <g>
                    <path
                        d="M67.5 110.5C 83.1114 110.406 89.9447 118.073 88 133.5C 82.5839 144.752 74.0839 147.918 62.5 143C 51.8948 132.968 51.8948 122.968 62.5 113C 64.3146 112.243 65.9812 111.41 67.5 110.5z"
                        stroke="none" fill="#040404" fill-rule="nonzero" />
                </g>
                <g>
                    <path
                        d="M186.5 110.5C 196.591 109.356 203.758 113.356 208 122.5C 210.199 133.606 206.032 141.106 195.5 145C 179.572 145.381 172.738 137.547 175 121.5C 177.495 116.353 181.329 112.686 186.5 110.5z"
                        stroke="none" fill="#080808" fill-rule="nonzero" />
                </g>
                <g>
                    <path
                        d="M189.5 117.5C 191.144 117.286 192.644 117.62 194 118.5C 194.495 120.473 194.662 122.473 194.5 124.5C 196.527 124.338 198.527 124.505 200.5 125C 203.167 127 203.167 129 200.5 131C 198.527 131.495 196.527 131.662 194.5 131.5C 194.662 133.527 194.495 135.527 194 137.5C 192.333 138.833 190.667 138.833 189 137.5C 188.505 135.527 188.338 133.527 188.5 131.5C 186.473 131.662 184.473 131.495 182.5 131C 179.833 129 179.833 127 182.5 125C 184.134 124.506 185.801 124.34 187.5 124.5C 187.166 121.812 187.832 119.479 189.5 117.5z"
                        stroke="none" fill="#F3F3F3" fill-rule="nonzero" />
                </g>
                <g>
                    <path
                        d="M62.5 124.5C 68.5092 124.334 74.5092 124.501 80.5 125C 83.1667 127 83.1667 129 80.5 131C 74.5 131.667 68.5 131.667 62.5 131C 59.9387 128.844 59.9387 126.677 62.5 124.5z"
                        stroke="none" fill="#F1F1F1" fill-rule="nonzero" />
                </g>
                <g>
                    <path
                        d="M46.5 174.5C 51.7566 173.521 56.0899 175.021 59.5 179C 57.99 179.85 56.49 180.683 55 181.5C 51.9241 178.676 49.0908 178.843 46.5 182C 46.6448 182.772 46.9781 183.439 47.5 184C 51.2985 184.96 54.9651 186.294 58.5 188C 61.5686 192.325 60.9019 195.992 56.5 199C 50.7129 201.582 45.5463 200.749 41 196.5C 40.4562 194.155 41.4562 192.821 44 192.5C 46.8857 194.225 50.0523 194.892 53.5 194.5C 53.67 193.178 53.3366 192.011 52.5 191C 47.9883 190.501 44.155 188.667 41 185.5C 40.3333 183.5 40.3333 181.5 41 179.5C 42.7297 177.598 44.563 175.931 46.5 174.5z"
                        stroke="none" fill="#EDEDED" fill-rule="nonzero" />
                </g>
                <g>
                    <path
                        d="M72.5 174.5C 75.1194 174.232 77.6194 174.565 80 175.5C 83.5972 183.459 87.0972 191.459 90.5 199.5C 85.2929 201.858 82.6263 200.192 82.5 194.5C 78.4454 194.176 74.4454 194.509 70.5 195.5C 69.6631 200.319 66.9964 201.652 62.5 199.5C 66.1295 191.247 69.4628 182.914 72.5 174.5z"
                        stroke="none" fill="#F4F4F4" fill-rule="nonzero" />
                </g>
                <g>
                    <path
                        d="M92.5 174.5C 97.5111 174.334 102.511 174.501 107.5 175C 114.128 179.741 114.128 184.574 107.5 189.5C 110.288 192.91 112.955 196.41 115.5 200C 113.098 200.814 110.765 200.647 108.5 199.5C 106.333 196.5 104.167 193.5 102 190.5C 100.989 189.663 99.8221 189.33 98.5 189.5C 98.5 193.167 98.5 196.833 98.5 200.5C 96.5 200.5 94.5 200.5 92.5 200.5C 92.5 191.833 92.5 183.167 92.5 174.5z"
                        stroke="none" fill="#F0F0F0" fill-rule="nonzero" />
                </g>
                <g>
                    <path
                        d="M128.5 174.5C 130.5 174.5 132.5 174.5 134.5 174.5C 134.929 181.947 134.429 189.281 133 196.5C 128 201.833 123 201.833 118 196.5C 117.517 195.552 117.351 194.552 117.5 193.5C 121.052 193.27 124.552 193.27 128 193.5C 128.5 187.175 128.666 180.842 128.5 174.5z"
                        stroke="none" fill="#EBEBEB" fill-rule="nonzero" />
                </g>
                <g>
                    <path
                        d="M146.5 174.5C 152.262 174.149 157.928 174.649 163.5 176C 171.5 183.667 171.5 191.333 163.5 199C 157.956 200.404 152.29 200.904 146.5 200.5C 146.5 191.833 146.5 183.167 146.5 174.5z"
                        stroke="none" fill="#F5F5F5" fill-rule="nonzero" />
                </g>
                <g>
                    <path
                        d="M188.5 179.5C 184.833 179.5 181.167 179.5 177.5 179.5C 177.5 181.167 177.5 182.833 177.5 184.5C 180.833 184.5 184.167 184.5 187.5 184.5C 187.5 186.167 187.5 187.833 187.5 189.5C 184.5 189.5 181.5 189.5 178.5 189.5C 177.539 191.265 177.205 193.265 177.5 195.5C 181.167 195.5 184.833 195.5 188.5 195.5C 188.5 197.167 188.5 198.833 188.5 200.5C 182.833 200.5 177.167 200.5 171.5 200.5C 171.5 191.833 171.5 183.167 171.5 174.5C 177.167 174.5 182.833 174.5 188.5 174.5C 188.5 176.167 188.5 177.833 188.5 179.5z"
                        stroke="none" fill="#F5F5F5" fill-rule="nonzero" />
                </g>
                <g>
                    <path
                        d="M191.5 174.5C 193.792 174.244 195.959 174.577 198 175.5C 200.505 181.175 203.005 186.842 205.5 192.5C 207.995 186.842 210.495 181.175 213 175.5C 215.139 174.231 217.305 174.231 219.5 175.5C 215.766 183.71 212.432 192.043 209.5 200.5C 206.881 200.768 204.381 200.435 202 199.5C 198.201 191.265 194.701 182.931 191.5 174.5z"
                        stroke="none" fill="#F2F2F2" fill-rule="nonzero" />
                </g>
                <g>
                    <path
                        d="M98.5 179.5C 100.527 179.338 102.527 179.505 104.5 180C 105.833 181.333 105.833 182.667 104.5 184C 102.527 184.495 100.527 184.662 98.5 184.5C 98.5 182.833 98.5 181.167 98.5 179.5z"
                        stroke="none" fill="#161616" fill-rule="nonzero" />
                </g>
                <g>
                    <path
                        d="M152.5 179.5C 161.981 179.153 165.147 183.486 162 192.5C 159.454 195.186 156.287 196.186 152.5 195.5C 152.5 190.167 152.5 184.833 152.5 179.5z"
                        stroke="none" fill="#0E0E0E" fill-rule="nonzero" />
                </g>
                <g>
                    <path
                        d="M188.5 179.5C 185.375 180.479 182.042 180.813 178.5 180.5C 178.5 181.5 178.5 182.5 178.5 183.5C 181.713 183.19 184.713 183.523 187.5 184.5C 184.167 184.5 180.833 184.5 177.5 184.5C 177.5 182.833 177.5 181.167 177.5 179.5C 181.167 179.5 184.833 179.5 188.5 179.5z"
                        stroke="none" fill="#3F3F3F" fill-rule="nonzero" />
                </g>
                <g>
                    <path
                        d="M75.5 183.5C 77.5128 184.475 78.8461 186.142 79.5 188.5C 77.5 189.833 75.5 189.833 73.5 188.5C 74.4565 186.925 75.1231 185.258 75.5 183.5z"
                        stroke="none" fill="#0F0F0F" fill-rule="nonzero" />
                </g>
                <g>
                    <path
                        d="M178.5 189.5C 178.5 191.167 178.5 192.833 178.5 194.5C 182.042 194.187 185.375 194.521 188.5 195.5C 184.833 195.5 181.167 195.5 177.5 195.5C 177.205 193.265 177.539 191.265 178.5 189.5z"
                        stroke="none" fill="#3C3C3C" fill-rule="nonzero" />
                </g>
                <g>
                    <path
                        d="M138.5 194.5C 143.041 194.815 144.041 196.649 141.5 200C 137.537 200.118 136.537 198.284 138.5 194.5z"
                        stroke="none" fill="#E4E4E4" fill-rule="nonzero" />
                </g>
            </g>
        </g>
    </g>
</svg>