<?xml version="1.0" encoding="UTF-8"?>
<svg width="45px" height="52px" viewBox="0 0 45 52" version="1.1" xmlns="http://www.w3.org/2000/svg"
    xmlns:xlink="http://www.w3.org/1999/xlink">
    <title>astor</title>
    <g id="Final" stroke="none" stroke-width="1" fill="none" fill-rule="evenodd">
        <g id="astor" transform="translate(-0.000305, -0.000000)">
            <path
                d="M38.4100125,6.59008902 C34.1602749,2.3404529 28.5101039,0 22.5000508,0 C16.4899976,0 10.8398267,2.3404529 6.59008902,6.59008902 C2.34035135,10.8397251 0,16.4899976 0,22.5000508 C0,26.2435772 1.17459297,30.1193176 3.49128389,34.0195309 C5.30135734,37.0669533 7.81332295,40.1410825 10.9572149,43.1567207 C16.2652743,48.2481806 21.4990015,51.3947128 21.7192567,51.526216 L22.4999492,51.9923163 L23.2806418,51.526216 C23.500897,51.3947128 28.7346241,48.2481806 34.0426835,43.1567207 C37.186677,40.1410825 39.6985411,37.0668517 41.5086146,34.0195309 C43.8252039,30.1193176 44.9998985,26.2435772 44.9998985,22.5000508 C44.9998985,16.4900992 42.6596486,10.8398267 38.4100125,6.59008902 Z"
                id="Path" fill="#E22027"></path>
            <circle id="Oval" fill="#FFFFFF" fill-rule="nonzero" cx="22.5000508" cy="22.4611583" r="16.4861388">
            </circle>
            <g transform="matrix(0.0888889 0 0 0.08928572 12 12)">
                <g>
                    <path
                        d="M-0.5 -0.5C 74.5 -0.5 149.5 -0.5 224.5 -0.5C 224.5 74.1667 224.5 148.833 224.5 223.5C 149.5 223.5 74.5 223.5 -0.5 223.5C -0.5 148.833 -0.5 74.1667 -0.5 -0.5z"
                        stroke="none" fill="#FEFEFE" fill-rule="nonzero" />
                </g>
                <g>
                    <path
                        d="M102.5 34.5C 110.174 34.3336 117.841 34.5003 125.5 35C 129.619 39.0734 129.285 42.74 124.5 46C 117.167 46.6667 109.833 46.6667 102.5 46C 98.5673 42.1238 98.5673 38.2905 102.5 34.5z"
                        stroke="none" fill="#E42125" fill-rule="nonzero" />
                </g>
                <g>
                    <path
                        d="M95.5 48.5C 107.838 48.3335 120.171 48.5001 132.5 49C 133.416 49.3742 134.25 49.8742 135 50.5C 136.183 54.2739 135.349 57.4406 132.5 60C 120.167 60.6667 107.833 60.6667 95.5 60C 91.5673 56.1238 91.5673 52.2905 95.5 48.5z"
                        stroke="none" fill="#E42326" fill-rule="nonzero" />
                </g>
                <g>
                    <path
                        d="M89.5 62.5C 105.837 62.3334 122.17 62.5001 138.5 63C 145.167 66.6667 145.167 70.3333 138.5 74C 122.167 74.6667 105.833 74.6667 89.5 74C 82.9142 70.1738 82.9142 66.3404 89.5 62.5z"
                        stroke="none" fill="#E41F24" fill-rule="nonzero" />
                </g>
                <g>
                    <path
                        d="M79.5 77.5C 86.8409 77.3337 94.1742 77.5003 101.5 78C 106.414 81.1705 106.747 84.8372 102.5 89C 94.8333 89.6667 87.1667 89.6667 79.5 89C 75.5548 85.1694 75.5548 81.3361 79.5 77.5z"
                        stroke="none" fill="#E31E23" fill-rule="nonzero" />
                </g>
                <g>
                    <path
                        d="M123.5 77.5C 130.841 77.3337 138.174 77.5003 145.5 78C 149.487 81.713 149.487 85.3797 145.5 89C 137.833 89.6667 130.167 89.6667 122.5 89C 118.376 84.6949 118.709 80.8615 123.5 77.5z"
                        stroke="none" fill="#E31F24" fill-rule="nonzero" />
                </g>
                <g>
                    <path
                        d="M34.5 92.5C 72.8348 92.3333 111.168 92.5 149.5 93C 154.796 96.567 154.796 100.234 149.5 104C 111.167 104.667 72.8333 104.667 34.5 104C 29.2844 100.076 29.2844 96.2422 34.5 92.5z"
                        stroke="none" fill="#ADB0B1" fill-rule="nonzero" />
                </g>
                <g>
                    <path
                        d="M68.5 106.5C 106.501 106.333 144.501 106.5 182.5 107C 186.747 111.163 186.414 114.829 181.5 118C 144.167 118.667 106.833 118.667 69.5 118C 64.6488 114.573 64.3155 110.74 68.5 106.5z"
                        stroke="none" fill="#ACB0B1" fill-rule="nonzero" />
                </g>
                <g>
                    <path
                        d="M61.5 121.5C 74.1711 121.333 86.8377 121.5 99.5 122C 102.287 124.167 103.12 127.001 102 130.5C 101.097 131.701 99.9308 132.535 98.5 133C 86.5 133.667 74.5 133.667 62.5 133C 57.5153 129.564 57.182 125.731 61.5 121.5z"
                        stroke="none" fill="#E42527" fill-rule="nonzero" />
                </g>
                <g>
                    <path
                        d="M124.5 121.5C 137.171 121.333 149.838 121.5 162.5 122C 166.487 125.62 166.487 129.287 162.5 133C 150.167 133.667 137.833 133.667 125.5 133C 121.92 129.442 121.587 125.609 124.5 121.5z"
                        stroke="none" fill="#E42427" fill-rule="nonzero" />
                </g>
                <g>
                    <path
                        d="M53.5 135.5C 65.5046 135.333 77.5046 135.5 89.5 136C 92.0684 137.127 93.4018 139.127 93.5 142C 93.5159 144.305 92.5159 145.972 90.5 147C 77.8333 147.667 65.1667 147.667 52.5 147C 48.3438 142.787 48.6772 138.954 53.5 135.5z"
                        stroke="none" fill="#E4292A" fill-rule="nonzero" />
                </g>
                <g>
                    <path
                        d="M136.5 135.5C 148.505 135.333 160.505 135.5 172.5 136C 176.032 139.39 176.366 143.057 173.5 147C 160.833 147.667 148.167 147.667 135.5 147C 131.297 142.731 131.63 138.897 136.5 135.5z"
                        stroke="none" fill="#E42829" fill-rule="nonzero" />
                </g>
                <g>
                    <path
                        d="M60.5 156.5C 62.7224 156.178 64.5557 156.845 66 158.5C 69.6102 166.721 72.9435 175.054 76 183.5C 76.9205 181.686 78.4205 180.686 80.5 180.5C 83.8121 181.379 87.1454 181.546 90.5 181C 91.8333 179.667 91.8333 178.333 90.5 177C 87.1667 175.667 83.8333 174.333 80.5 173C 76.0308 167.286 76.6974 162.286 82.5 158C 87.9664 155.452 92.7998 156.286 97 160.5C 97.4652 159.069 98.2986 157.903 99.5 157C 105.833 156.333 112.167 156.333 118.5 157C 121.167 159 121.167 161 118.5 163C 116.527 163.495 114.527 163.662 112.5 163.5C 112.666 171.507 112.5 179.507 112 187.5C 109.733 188.935 107.733 188.602 106 186.5C 105.5 178.841 105.334 171.174 105.5 163.5C 102.635 163.945 100.135 163.278 98 161.5C 96.8829 163.124 95.3829 164.124 93.5 164.5C 90.6097 163.315 87.7764 163.315 85 164.5C 84.2506 165.635 84.4173 166.635 85.5 167.5C 90.464 168.445 94.6306 170.778 98 174.5C 99.0075 186.472 93.5075 190.972 81.5 188C 79.714 187.215 78.214 186.049 77 184.5C 75.8018 188.214 73.4685 189.214 70 187.5C 69.2164 183.569 66.7164 181.902 62.5 182.5C 58.3006 181.943 55.6339 183.609 54.5 187.5C 49.9811 189.588 48.1477 188.254 49 183.5C 51.7858 173.952 55.6191 164.952 60.5 156.5z"
                        stroke="none" fill="#AFB2B3" fill-rule="nonzero" />
                </g>
                <g>
                    <path
                        d="M131.5 156.5C 149.048 158.256 154.215 167.256 147 183.5C 139.568 189.677 131.901 190.011 124 184.5C 120.699 178.958 119.699 172.958 121 166.5C 123.106 161.557 126.606 158.224 131.5 156.5z"
                        stroke="none" fill="#AFB2B3" fill-rule="nonzero" />
                </g>
                <g>
                    <path
                        d="M174.5 163.5C 174.5 164.167 174.833 164.5 175.5 164.5C 175.844 169.971 173.511 173.805 168.5 176C 170.549 178.593 172.715 181.093 175 183.5C 175.934 188.083 174.1 189.583 169.5 188C 166.333 184.167 163.167 180.333 160 176.5C 159.667 180.167 159.333 183.833 159 187.5C 157.274 188.576 155.441 188.743 153.5 188C 152.349 178.244 152.182 168.411 153 158.5C 153.5 158 154 157.5 154.5 157C 159.921 156.161 165.254 156.494 170.5 158C 172.464 159.451 173.797 161.284 174.5 163.5z"
                        stroke="none" fill="#AEB2B2" fill-rule="nonzero" />
                </g>
                <g>
                    <path
                        d="M175.5 164.5C 174.833 164.5 174.5 164.167 174.5 163.5C 175.686 160.66 177.686 158.494 180.5 157C 182.289 156.48 183.956 156.813 185.5 158C 178.53 158.669 178.196 159.169 184.5 159.5C 184.08 161.674 184.08 163.674 184.5 165.5C 183.369 166.604 182.535 166.271 182 164.5C 179.775 167.369 180.608 168.869 184.5 169C 180.108 170.137 177.108 168.637 175.5 164.5z"
                        stroke="none" fill="#D5D5D6" fill-rule="nonzero" />
                </g>
                <g>
                    <path
                        d="M131.5 163.5C 140.965 163.372 144.465 168.039 142 177.5C 139.335 182.434 135.502 183.601 130.5 181C 126.254 174.833 126.587 168.999 131.5 163.5z"
                        stroke="none" fill="#FDFDFD" fill-rule="nonzero" />
                </g>
                <g>
                    <path
                        d="M159.5 163.5C 161.857 163.337 164.19 163.503 166.5 164C 169.167 166 169.167 168 166.5 170C 164.19 170.497 161.857 170.663 159.5 170.5C 159.5 168.167 159.5 165.833 159.5 163.5z"
                        stroke="none" fill="#FAFAFA" fill-rule="nonzero" />
                </g>
                <g>
                    <path
                        d="M61.5 165.5C 62.4972 165.47 63.1639 165.97 63.5 167C 64.4062 169.791 65.0728 172.624 65.5 175.5C 63.5 175.5 61.5 175.5 59.5 175.5C 60.3739 172.211 61.0405 168.877 61.5 165.5z"
                        stroke="none" fill="#FBFAFB" fill-rule="nonzero" />
                </g>
            </g>
        </g>
    </g>
</svg>