<?xml version="1.0" encoding="UTF-8"?>
<svg width="45px" height="52px" viewBox="0 0 45 52" version="1.1" xmlns="http://www.w3.org/2000/svg"
    xmlns:xlink="http://www.w3.org/1999/xlink">
    <title>trugo</title>
    <g id="Final" stroke="none" stroke-width="1" fill="none" fill-rule="evenodd">
        <g id="trugo" transform="translate(-0.000305, -0.000000)">
            <path
                d="M38.4100125,6.59008902 C34.1602749,2.3404529 28.5101039,0 22.5000508,0 C16.4899976,0 10.8398267,2.3404529 6.59008902,6.59008902 C2.34035135,10.8397251 0,16.4899976 0,22.5000508 C0,26.2435772 1.17459297,30.1193176 3.49128389,34.0195309 C5.30135734,37.0669533 7.81332295,40.1410825 10.9572149,43.1567207 C16.2652743,48.2481806 21.4990015,51.3947128 21.7192567,51.526216 L22.4999492,51.9923163 L23.2806418,51.526216 C23.500897,51.3947128 28.7346241,48.2481806 34.0426835,43.1567207 C37.186677,40.1410825 39.6985411,37.0668517 41.5086146,34.0195309 C43.8252039,30.1193176 44.9998985,26.2435772 44.9998985,22.5000508 C44.9998985,16.4900992 42.6596486,10.8398267 38.4100125,6.59008902 Z"
                id="Path" fill="#02A273"></path>
            <circle id="Oval" fill="#FFFFFF" fill-rule="nonzero" cx="22.5000508" cy="22.4611583" r="16.4861388">
            </circle>
            <g transform="matrix(0.024 0 0 0.024 8 16)">
                <g>
                    <path
                        d="M-0.5 -0.5C 399.5 -0.5 799.5 -0.5 1199.5 -0.5C 1199.5 199.5 1199.5 399.5 1199.5 599.5C 799.5 599.5 399.5 599.5 -0.5 599.5C -0.5 399.5 -0.5 199.5 -0.5 -0.5z"
                        stroke="none" fill="#FFFFFF" fill-rule="nonzero" />
                </g>
                <g>
                    <path
                        d="M477.5 86.5C 477.833 86.5 478.167 86.5 478.5 86.5C 478.141 119.681 478.141 153.015 478.5 186.5C 474.519 192.475 470.186 198.142 465.5 203.5C 464.867 203.12 464.2 202.787 463.5 202.5C 463.816 163.828 464.15 125.995 464.5 89C 463.207 88.51 461.873 88.3433 460.5 88.5C 465.916 86.8827 471.583 86.216 477.5 86.5z"
                        stroke="none" fill="#039FD6" fill-rule="nonzero" />
                </g>
                <g>
                    <path
                        d="M478.5 86.5C 482.167 86.5 485.833 86.5 489.5 86.5C 489.053 115.951 489.053 145.284 489.5 174.5C 485.824 178.541 482.157 182.541 478.5 186.5C 478.141 153.015 478.141 119.681 478.5 86.5z"
                        stroke="none" fill="#02A0D1" fill-rule="nonzero" />
                </g>
                <g>
                    <path
                        d="M477.5 86.5C 486.986 85.5062 496.652 85.1729 506.5 85.5C 506.5 85.8333 506.5 86.1667 506.5 86.5C 505.167 86.5 503.833 86.5 502.5 86.5C 502.474 111.988 502.474 137.488 502.5 163C 502.431 164.986 501.765 166.486 500.5 167.5C 500.103 166.475 499.437 166.308 498.5 167C 495.838 169.985 492.838 172.485 489.5 174.5C 489.053 145.284 489.053 115.951 489.5 86.5C 485.833 86.5 482.167 86.5 478.5 86.5C 478.167 86.5 477.833 86.5 477.5 86.5z"
                        stroke="none" fill="#02A0CB" fill-rule="nonzero" />
                </g>
                <g>
                    <path
                        d="M506.5 86.5C 508.833 86.5 511.167 86.5 513.5 86.5C 513.818 109.371 513.818 132.371 513.5 155.5C 513.351 156.552 513.517 157.552 514 158.5C 517.752 163.018 521.252 167.684 524.5 172.5C 525.017 180.022 525.35 187.355 525.5 194.5C 525.043 195.298 524.376 195.631 523.5 195.5C 518.872 189.537 513.872 183.87 508.5 178.5C 506.087 174.686 503.421 171.019 500.5 167.5C 501.765 166.486 502.431 164.986 502.5 163C 502.474 137.488 502.474 111.988 502.5 86.5C 503.833 86.5 505.167 86.5 506.5 86.5z"
                        stroke="none" fill="#03A0C3" fill-rule="nonzero" />
                </g>
                <g>
                    <path
                        d="M506.5 86.5C 506.5 86.1667 506.5 85.8333 506.5 85.5C 510.5 85.5 514.5 85.5 518.5 85.5C 520.698 86.1653 523.031 86.8319 525.5 87.5C 524.474 106.526 524.474 125.526 525.5 144.5C 524.544 146.075 523.877 147.742 523.5 149.5C 520.434 151.89 517.1 153.89 513.5 155.5C 513.818 132.371 513.818 109.371 513.5 86.5C 511.167 86.5 508.833 86.5 506.5 86.5z"
                        stroke="none" fill="#02A0BE" fill-rule="nonzero" />
                </g>
                <g>
                    <path
                        d="M518.5 85.5C 522.167 85.5 525.833 85.5 529.5 85.5C 531.607 86.4682 533.941 86.8016 536.5 86.5C 536.722 105.503 536.388 124.503 535.5 143.5C 531.473 145.513 527.473 147.513 523.5 149.5C 523.877 147.742 524.544 146.075 525.5 144.5C 524.474 125.526 524.474 106.526 525.5 87.5C 523.031 86.8319 520.698 86.1653 518.5 85.5z"
                        stroke="none" fill="#02A0B8" fill-rule="nonzero" />
                </g>
                <g>
                    <path
                        d="M529.5 85.5C 533.167 85.5 536.833 85.5 540.5 85.5C 543.287 86.4767 546.287 86.81 549.5 86.5C 548.558 103.442 548.558 120.442 549.5 137.5C 544.833 139.5 540.167 141.5 535.5 143.5C 536.388 124.503 536.722 105.503 536.5 86.5C 533.941 86.8016 531.607 86.4682 529.5 85.5z"
                        stroke="none" fill="#02A0B2" fill-rule="nonzero" />
                </g>
                <g>
                    <path
                        d="M540.5 85.5C 544.833 85.5 549.167 85.5 553.5 85.5C 555.607 86.4682 557.941 86.8016 560.5 86.5C 560.248 101.711 560.581 116.878 561.5 132C 560.244 132.417 559.577 133.25 559.5 134.5C 556.167 135.5 552.833 136.5 549.5 137.5C 548.558 120.442 548.558 103.442 549.5 86.5C 546.287 86.81 543.287 86.4767 540.5 85.5z"
                        stroke="none" fill="#01A0AB" fill-rule="nonzero" />
                </g>
                <g>
                    <path
                        d="M553.5 85.5C 561.167 85.5 568.833 85.5 576.5 85.5C 576.5 85.8333 576.5 86.1667 576.5 86.5C 574.571 86.2308 572.905 86.7308 571.5 88C 571.429 101.467 571.762 115.133 572.5 129C 571.244 129.417 570.577 130.25 570.5 131.5C 566.802 132.373 563.135 133.373 559.5 134.5C 559.577 133.25 560.244 132.417 561.5 132C 560.581 116.878 560.248 101.711 560.5 86.5C 557.941 86.8016 555.607 86.4682 553.5 85.5z"
                        stroke="none" fill="#03A1A5" fill-rule="nonzero" />
                </g>
                <g>
                    <path
                        d="M576.5 86.5C 578.5 86.5 580.5 86.5 582.5 86.5C 582.841 99.1587 583.175 111.825 583.5 124.5C 582.855 126.432 581.521 127.599 579.5 128C 580.448 128.483 581.448 128.649 582.5 128.5C 578.687 129.787 574.687 130.787 570.5 131.5C 570.577 130.25 571.244 129.417 572.5 129C 571.762 115.133 571.429 101.467 571.5 88C 572.905 86.7308 574.571 86.2308 576.5 86.5z"
                        stroke="none" fill="#05A1A0" fill-rule="nonzero" />
                </g>
                <g>
                    <path
                        d="M576.5 86.5C 576.5 86.1667 576.5 85.8333 576.5 85.5C 584.5 85.5 592.5 85.5 600.5 85.5C 600.5 85.8333 600.5 86.1667 600.5 86.5C 599.167 86.5 597.833 86.5 596.5 86.5C 596.078 98.433 596.078 110.266 596.5 122C 596.527 124.64 595.193 125.973 592.5 126C 593.793 126.49 595.127 126.657 596.5 126.5C 592.081 127.972 587.414 128.638 582.5 128.5C 581.448 128.649 580.448 128.483 579.5 128C 581.521 127.599 582.855 126.432 583.5 124.5C 583.175 111.825 582.841 99.1587 582.5 86.5C 580.5 86.5 578.5 86.5 576.5 86.5z"
                        stroke="none" fill="#06A199" fill-rule="nonzero" />
                </g>
                <g>
                    <path
                        d="M600.5 86.5C 602.833 86.5 605.167 86.5 607.5 86.5C 607.5 99.1667 607.5 111.833 607.5 124.5C 606.127 124.343 604.793 124.51 603.5 125C 606.482 125.498 609.482 125.665 612.5 125.5C 618.358 125.178 624.025 125.511 629.5 126.5C 618.5 126.5 607.5 126.5 596.5 126.5C 595.127 126.657 593.793 126.49 592.5 126C 595.193 125.973 596.527 124.64 596.5 122C 596.078 110.266 596.078 98.433 596.5 86.5C 597.833 86.5 599.167 86.5 600.5 86.5z"
                        stroke="none" fill="#16A395" fill-rule="nonzero" />
                </g>
                <g>
                    <path
                        d="M600.5 86.5C 600.5 86.1667 600.5 85.8333 600.5 85.5C 606.167 85.5 611.833 85.5 617.5 85.5C 620.358 86.166 623.358 86.8326 626.5 87.5C 626.931 88.2935 627.265 89.1268 627.5 90C 626.242 101.15 626.242 112.316 627.5 123.5C 622.349 124.167 617.349 124.834 612.5 125.5C 609.482 125.665 606.482 125.498 603.5 125C 604.793 124.51 606.127 124.343 607.5 124.5C 607.5 111.833 607.5 99.1667 607.5 86.5C 605.167 86.5 602.833 86.5 600.5 86.5z"
                        stroke="none" fill="#00A18C" fill-rule="nonzero" />
                </g>
                <g>
                    <path
                        d="M617.5 85.5C 624.5 85.5 631.5 85.5 638.5 85.5C 641.641 86.3213 644.975 86.8213 648.5 87C 647.198 99.3021 647.198 111.635 648.5 124C 647.624 125.585 646.291 126.585 644.5 127C 645.737 127.232 646.737 127.732 647.5 128.5C 641.534 127.553 635.534 126.886 629.5 126.5C 624.025 125.511 618.358 125.178 612.5 125.5C 617.349 124.834 622.349 124.167 627.5 123.5C 626.242 112.316 626.242 101.15 627.5 90C 627.265 89.1268 626.931 88.2935 626.5 87.5C 623.358 86.8326 620.358 86.166 617.5 85.5z"
                        stroke="none" fill="#04A187" fill-rule="nonzero" />
                </g>
                <g>
                    <path
                        d="M638.5 85.5C 654.5 85.5 670.5 85.5 686.5 85.5C 681.983 86.1665 677.317 86.8331 672.5 87.5C 672.291 88.086 671.957 88.586 671.5 89C 671.49 102.524 671.824 116.191 672.5 130C 670.825 130.985 669.158 131.819 667.5 132.5C 660.833 131.167 654.167 129.833 647.5 128.5C 646.737 127.732 645.737 127.232 644.5 127C 646.291 126.585 647.624 125.585 648.5 124C 647.198 111.635 647.198 99.3021 648.5 87C 644.975 86.8213 641.641 86.3213 638.5 85.5z"
                        stroke="none" fill="#03A280" fill-rule="nonzero" />
                </g>
                <g>
                    <path
                        d="M686.5 85.5C 698.345 85.1717 710.012 85.5051 721.5 86.5C 719.833 86.5 718.167 86.5 716.5 86.5C 708.493 86.3336 700.493 86.5003 692.5 87C 692.529 104.429 692.863 121.763 693.5 139C 691.942 139.21 690.609 139.71 689.5 140.5C 682.09 137.784 674.757 135.117 667.5 132.5C 669.158 131.819 670.825 130.985 672.5 130C 671.824 116.191 671.49 102.524 671.5 89C 671.957 88.586 672.291 88.086 672.5 87.5C 677.317 86.8331 681.983 86.1665 686.5 85.5z"
                        stroke="none" fill="#03A279" fill-rule="nonzero" />
                </g>
                <g>
                    <path
                        d="M716.5 86.5C 715.737 87.2679 714.737 87.7679 713.5 88C 714.5 89 715.5 90 716.5 91C 712.666 93.2659 712.999 93.9326 717.5 93C 716.377 94.0437 715.044 94.7104 713.5 95C 714.901 96.677 716.235 98.3437 717.5 100C 716.352 101.726 715.185 101.559 714 99.5C 713.464 101.567 713.964 103.401 715.5 105C 714.024 108.268 712.024 111.268 709.5 114C 710.362 116.734 711.195 116.901 712 114.5C 712.5 115 713 115.5 713.5 116C 712.257 117.154 711.257 118.488 710.5 120C 709.892 122.184 710.559 124.184 712.5 126C 711.5 126.333 710.5 126.667 709.5 127C 711.044 127.29 712.377 127.956 713.5 129C 712.932 130.652 711.599 132.318 709.5 134C 710.362 136.734 711.195 136.901 712 134.5C 712.75 135.126 713.584 135.626 714.5 136C 712.5 136.667 711.167 138 710.5 140C 709.892 142.184 710.559 144.184 712.5 146C 711.5 146.333 710.5 146.667 709.5 147C 711.392 147.973 713.392 148.64 715.5 149C 713.68 149.2 712.347 150.034 711.5 151.5C 704.128 147.814 696.795 144.147 689.5 140.5C 690.609 139.71 691.942 139.21 693.5 139C 692.863 121.763 692.529 104.429 692.5 87C 700.493 86.5003 708.493 86.3336 716.5 86.5z"
                        stroke="none" fill="#02A273" fill-rule="nonzero" />
                </g>
                <g>
                    <path
                        d="M716.5 86.5C 718.167 86.5 719.833 86.5 721.5 86.5C 727.051 86.527 732.384 87.1937 737.5 88.5C 735.654 88.2222 734.32 88.8888 733.5 90.5C 733.797 113.012 734.13 134.845 734.5 156C 733.793 159.161 733.126 162.328 732.5 165.5C 725.477 160.8 718.477 156.133 711.5 151.5C 712.347 150.034 713.68 149.2 715.5 149C 713.392 148.64 711.392 147.973 709.5 147C 710.5 146.667 711.5 146.333 712.5 146C 710.559 144.184 709.892 142.184 710.5 140C 711.167 138 712.5 136.667 714.5 136C 713.584 135.626 712.75 135.126 712 134.5C 711.195 136.901 710.362 136.734 709.5 134C 711.599 132.318 712.932 130.652 713.5 129C 712.377 127.956 711.044 127.29 709.5 127C 710.5 126.667 711.5 126.333 712.5 126C 710.559 124.184 709.892 122.184 710.5 120C 711.257 118.488 712.257 117.154 713.5 116C 713 115.5 712.5 115 712 114.5C 711.195 116.901 710.362 116.734 709.5 114C 712.024 111.268 714.024 108.268 715.5 105C 713.964 103.401 713.464 101.567 714 99.5C 715.185 101.559 716.352 101.726 717.5 100C 716.235 98.3437 714.901 96.677 713.5 95C 715.044 94.7104 716.377 94.0437 717.5 93C 712.999 93.9326 712.666 93.2659 716.5 91C 715.5 90 714.5 89 713.5 88C 714.737 87.7679 715.737 87.2679 716.5 86.5z"
                        stroke="none" fill="#02A36D" fill-rule="nonzero" />
                </g>
                <g>
                    <path
                        d="M460.5 88.5C 461.873 88.3433 463.207 88.51 464.5 89C 464.15 125.995 463.816 163.828 463.5 202.5C 464.2 202.787 464.867 203.12 465.5 203.5C 459.787 213.76 454.453 224.26 449.5 235C 449.645 235.772 449.978 236.439 450.5 237C 455.899 238.744 461.232 240.577 466.5 242.5C 465.737 243.268 464.737 243.768 463.5 244C 463.664 248.416 463.997 252.583 464.5 256.5C 463.675 257.386 462.675 257.719 461.5 257.5C 455.649 255.579 449.649 254.246 443.5 253.5C 444.718 252.839 446.051 252.172 447.5 251.5C 447.289 248.359 446.955 244.859 446.5 241C 448.707 237.445 448.707 233.779 446.5 230C 446.836 185.674 447.169 141.508 447.5 97.5C 447.821 94.488 446.488 93.1547 443.5 93.5C 448.744 90.7679 454.411 89.1012 460.5 88.5z"
                        stroke="none" fill="#0798D1" fill-rule="nonzero" />
                </g>
                <g>
                    <path
                        d="M737.5 88.5C 743.543 89.1841 749.21 90.8508 754.5 93.5C 752.504 157.825 751.837 222.491 752.5 287.5C 744.416 285.87 739.082 288.87 736.5 296.5C 735.778 296.918 735.278 297.584 735 298.5C 734.5 297 734 295.5 733.5 294C 733.397 263.054 733.73 232.22 734.5 201.5C 739.299 194.865 744.299 188.365 749.5 182C 744.612 175.61 738.945 170.11 732.5 165.5C 733.126 162.328 733.793 159.161 734.5 156C 734.13 134.845 733.797 113.012 733.5 90.5C 734.32 88.8888 735.654 88.2222 737.5 88.5z"
                        stroke="none" fill="#02A368" fill-rule="nonzero" />
                </g>
                <g>
                    <path
                        d="M443.5 93.5C 446.488 93.1547 447.821 94.488 447.5 97.5C 447.169 141.508 446.836 185.674 446.5 230C 448.707 233.779 448.707 237.445 446.5 241C 446.955 244.859 447.289 248.359 447.5 251.5C 446.051 252.172 444.718 252.839 443.5 253.5C 441.639 261.579 439.972 269.579 438.5 277.5C 437.47 276.448 436.803 275.114 436.5 273.5C 436.762 215.952 437.095 158.452 437.5 101C 436.915 99.6976 436.249 98.531 435.5 97.5C 437.849 95.659 440.515 94.3257 443.5 93.5z"
                        stroke="none" fill="#0992CC" fill-rule="nonzero" />
                </g>
                <g>
                    <path
                        d="M754.5 93.5C 757.241 93.7073 759.574 94.7073 761.5 96.5C 760.784 98.5563 760.117 100.723 759.5 103C 760.429 167.123 760.762 230.956 760.5 294.5C 758.477 291.48 755.81 289.146 752.5 287.5C 751.837 222.491 752.504 157.825 754.5 93.5z"
                        stroke="none" fill="#01A361" fill-rule="nonzero" />
                </g>
                <g>
                    <path
                        d="M761.5 96.5C 764.485 97.3257 767.151 98.659 769.5 100.5C 768.522 100.811 767.855 101.478 767.5 102.5C 767.5 233.833 767.5 365.167 767.5 496.5C 767.855 497.522 768.522 498.189 769.5 498.5C 767.151 500.341 764.485 501.674 761.5 502.5C 760.776 500.782 760.109 498.948 759.5 497C 760.112 432.342 760.446 367.175 760.5 301.5C 760.5 299.167 760.5 296.833 760.5 294.5C 760.762 230.956 760.429 167.123 759.5 103C 760.117 100.723 760.784 98.5563 761.5 96.5z"
                        stroke="none" fill="#01A35A" fill-rule="nonzero" />
                </g>
                <g>
                    <path
                        d="M435.5 97.5C 436.249 98.531 436.915 99.6976 437.5 101C 437.095 158.452 436.762 215.952 436.5 273.5C 436.803 275.114 437.47 276.448 438.5 277.5C 438.5 288.833 438.5 300.167 438.5 311.5C 438.664 314.187 438.497 316.854 438 319.5C 436.997 317.065 436.497 317.398 436.5 320.5C 436.525 380.08 436.858 438.914 437.5 497C 436.901 498.622 436.234 500.122 435.5 501.5C 430.976 499.957 426.976 497.623 423.5 494.5C 424.362 364.341 424.362 234.341 423.5 104.5C 426.976 101.377 430.976 99.0435 435.5 97.5z"
                        stroke="none" fill="#0B8CC8" fill-rule="nonzero" />
                </g>
                <g>
                    <path
                        d="M769.5 100.5C 772.135 101.811 774.469 103.478 776.5 105.5C 775.711 105.783 775.044 106.283 774.5 107C 775.833 234 775.833 361 774.5 488C 775.109 489.948 775.776 491.782 776.5 493.5C 774.469 495.522 772.135 497.189 769.5 498.5C 768.522 498.189 767.855 497.522 767.5 496.5C 767.5 365.167 767.5 233.833 767.5 102.5C 767.855 101.478 768.522 100.811 769.5 100.5z"
                        stroke="none" fill="#01A454" fill-rule="nonzero" />
                </g>
                <g>
                    <path
                        d="M423.5 104.5C 424.362 234.341 424.362 364.341 423.5 494.5C 418.206 490.873 413.539 486.54 409.5 481.5C 410.267 480.828 410.934 479.995 411.5 479C 410.195 359.681 410.195 240.014 411.5 120C 411.316 118.624 410.649 117.791 409.5 117.5C 413.539 112.46 418.206 108.127 423.5 104.5z"
                        stroke="none" fill="#1086C3" fill-rule="nonzero" />
                </g>
                <g>
                    <path
                        d="M776.5 105.5C 779.784 107.117 782.451 109.45 784.5 112.5C 783.784 114.556 783.117 116.723 782.5 119C 783.833 241.333 783.833 363.667 782.5 486C 783.094 486.464 783.761 486.631 784.5 486.5C 782.451 489.55 779.784 491.883 776.5 493.5C 775.776 491.782 775.109 489.948 774.5 488C 775.833 361 775.833 234 774.5 107C 775.044 106.283 775.711 105.783 776.5 105.5z"
                        stroke="none" fill="#01A44E" fill-rule="nonzero" />
                </g>
                <g>
                    <path
                        d="M784.5 112.5C 787.5 114.833 790.167 117.5 792.5 120.5C 791.761 120.369 791.094 120.536 790.5 121C 791.583 238.917 791.583 356.584 790.5 474C 790.899 475.728 791.566 477.228 792.5 478.5C 790.167 481.5 787.5 484.167 784.5 486.5C 783.761 486.631 783.094 486.464 782.5 486C 783.833 363.667 783.833 241.333 782.5 119C 783.117 116.723 783.784 114.556 784.5 112.5z"
                        stroke="none" fill="#02A448" fill-rule="nonzero" />
                </g>
                <g>
                    <path
                        d="M409.5 117.5C 410.649 117.791 411.316 118.624 411.5 120C 410.195 240.014 410.195 359.681 411.5 479C 410.934 479.995 410.267 480.828 409.5 481.5C 404.755 476.411 400.755 470.745 397.5 464.5C 398.434 463.228 399.101 461.728 399.5 460C 399.22 353.28 399.22 246.613 399.5 140C 398.891 138.052 398.224 136.218 397.5 134.5C 400.755 128.255 404.755 122.589 409.5 117.5z"
                        stroke="none" fill="#1580BE" fill-rule="nonzero" />
                </g>
                <g>
                    <path
                        d="M792.5 120.5C 795.999 124.827 798.999 129.494 801.5 134.5C 800.167 244.5 800.167 354.5 801.5 464.5C 798.999 469.506 795.999 474.173 792.5 478.5C 791.566 477.228 790.899 475.728 790.5 474C 791.583 356.584 791.583 238.917 790.5 121C 791.094 120.536 791.761 120.369 792.5 120.5z"
                        stroke="none" fill="#01A442" fill-rule="nonzero" />
                </g>
                <g>
                    <path
                        d="M596.5 126.5C 607.5 126.5 618.5 126.5 629.5 126.5C 635.534 126.886 641.534 127.553 647.5 128.5C 654.167 129.833 660.833 131.167 667.5 132.5C 674.757 135.117 682.09 137.784 689.5 140.5C 696.795 144.147 704.128 147.814 711.5 151.5C 718.477 156.133 725.477 160.8 732.5 165.5C 738.945 170.11 744.612 175.61 749.5 182C 744.299 188.365 739.299 194.865 734.5 201.5C 727.031 209.761 720.031 218.428 713.5 227.5C 710.945 229.606 708.612 231.94 706.5 234.5C 701.854 231.186 697.521 227.519 693.5 223.5C 687.587 217.538 680.921 212.538 673.5 208.5C 666.036 203.77 658.036 200.103 649.5 197.5C 642.289 194.296 634.622 192.63 626.5 192.5C 625.833 192.5 625.167 192.5 624.5 192.5C 613.624 190.861 602.957 191.861 592.5 195.5C 588.085 195.861 584.085 197.194 580.5 199.5C 577.088 200.042 574.088 201.375 571.5 203.5C 566.657 205.418 562.323 208.084 558.5 211.5C 557.262 212.412 555.928 212.579 554.5 212C 553.167 209.809 551.5 207.976 549.5 206.5C 541.652 194.803 533.319 183.469 524.5 172.5C 521.252 167.684 517.752 163.018 514 158.5C 513.517 157.552 513.351 156.552 513.5 155.5C 517.1 153.89 520.434 151.89 523.5 149.5C 527.473 147.513 531.473 145.513 535.5 143.5C 540.167 141.5 544.833 139.5 549.5 137.5C 552.833 136.5 556.167 135.5 559.5 134.5C 563.135 133.373 566.802 132.373 570.5 131.5C 574.687 130.787 578.687 129.787 582.5 128.5C 587.414 128.638 592.081 127.972 596.5 126.5z"
                        stroke="none" fill="#FEFEFE" fill-rule="nonzero" />
                </g>
                <g>
                    <path
                        d="M801.5 134.5C 805.34 141.016 808.007 148.016 809.5 155.5C 808.522 155.811 807.855 156.478 807.5 157.5C 807.897 253.507 807.897 348.34 807.5 442C 808.044 442.717 808.711 443.217 809.5 443.5C 807.617 450.817 804.951 457.817 801.5 464.5C 800.167 354.5 800.167 244.5 801.5 134.5z"
                        stroke="none" fill="#01A53B" fill-rule="nonzero" />
                </g>
                <g>
                    <path
                        d="M397.5 134.5C 398.224 136.218 398.891 138.052 399.5 140C 399.22 246.613 399.22 353.28 399.5 460C 399.101 461.728 398.434 463.228 397.5 464.5C 390.523 451.059 386.689 436.725 386 421.5C 385.333 340.167 385.333 258.833 386 177.5C 386.295 162.131 390.128 147.797 397.5 134.5z"
                        stroke="none" fill="#197AB9" fill-rule="nonzero" />
                </g>
                <g>
                    <path
                        d="M809.5 155.5C 811.604 162.548 812.771 169.882 813 177.5C 813.667 258.833 813.667 340.167 813 421.5C 812.319 428.958 811.153 436.292 809.5 443.5C 808.711 443.217 808.044 442.717 807.5 442C 807.897 348.34 807.897 253.507 807.5 157.5C 807.855 156.478 808.522 155.811 809.5 155.5z"
                        stroke="none" fill="#03A537" fill-rule="nonzero" />
                </g>
                <g>
                    <path
                        d="M500.5 167.5C 503.421 171.019 506.087 174.686 508.5 178.5C 507.461 204.205 507.461 229.872 508.5 255.5C 501.759 253.697 495.092 251.697 488.5 249.5C 481.167 247.167 473.833 244.833 466.5 242.5C 461.232 240.577 455.899 238.744 450.5 237C 449.978 236.439 449.645 235.772 449.5 235C 454.453 224.26 459.787 213.76 465.5 203.5C 470.186 198.142 474.519 192.475 478.5 186.5C 482.157 182.541 485.824 178.541 489.5 174.5C 492.838 172.485 495.838 169.985 498.5 167C 499.437 166.308 500.103 166.475 500.5 167.5z"
                        stroke="none" fill="#B1E1F0" fill-rule="nonzero" />
                </g>
                <g>
                    <path
                        d="M508.5 178.5C 513.872 183.87 518.872 189.537 523.5 195.5C 530.891 204.221 537.891 213.221 544.5 222.5C 540.333 227.504 536.667 232.837 533.5 238.5C 528.796 245.241 525.129 252.574 522.5 260.5C 519.421 259.696 516.421 258.696 513.5 257.5C 511.597 257.204 509.93 256.537 508.5 255.5C 507.461 229.872 507.461 204.205 508.5 178.5z"
                        stroke="none" fill="#B1E1EB" fill-rule="nonzero" />
                </g>
                <g>
                    <path
                        d="M524.5 172.5C 533.319 183.469 541.652 194.803 549.5 206.5C 549.256 240.931 548.922 275.931 548.5 311.5C 549.064 335.525 549.397 359.525 549.5 383.5C 543.475 388.53 537.475 393.53 531.5 398.5C 529.772 400.226 527.772 401.559 525.5 402.5C 524.496 396.829 524.496 391.163 525.5 385.5C 524.995 384.081 523.995 383.415 522.5 383.5C 529.099 378.521 535.765 373.521 542.5 368.5C 539.43 365.436 536.763 362.103 534.5 358.5C 535.88 358.038 536.547 357.038 536.5 355.5C 536.365 316.17 536.365 277.004 536.5 238C 535.423 237.53 534.423 237.697 533.5 238.5C 536.667 232.837 540.333 227.504 544.5 222.5C 537.891 213.221 530.891 204.221 523.5 195.5C 524.376 195.631 525.043 195.298 525.5 194.5C 525.35 187.355 525.017 180.022 524.5 172.5z"
                        stroke="none" fill="#03A0B3" fill-rule="nonzero" />
                </g>
                <g>
                    <path
                        d="M624.5 192.5C 625.167 192.5 625.833 192.5 626.5 192.5C 626.427 220.824 626.76 248.991 627.5 277C 626.923 278.9 626.256 280.733 625.5 282.5C 619.748 279.565 613.748 278.898 607.5 280.5C 607.485 252.139 607.485 223.472 607.5 194.5C 606.127 194.657 604.793 194.49 603.5 194C 610.445 192.77 617.445 192.27 624.5 192.5z"
                        stroke="none" fill="#01A18C" fill-rule="nonzero" />
                </g>
                <g>
                    <path
                        d="M624.5 192.5C 617.445 192.27 610.445 192.77 603.5 194C 604.793 194.49 606.127 194.657 607.5 194.5C 607.485 223.472 607.485 252.139 607.5 280.5C 606.909 281.151 606.243 281.818 605.5 282.5C 606.833 284.167 608.167 285.833 609.5 287.5C 614.165 284.758 618.665 285.091 623 288.5C 623.902 288.257 624.735 287.923 625.5 287.5C 626.141 288.482 626.807 289.482 627.5 290.5C 628.137 294.959 627.471 299.293 625.5 303.5C 620.383 304.524 615.049 304.524 609.5 303.5C 603.36 305.717 603.026 308.383 608.5 311.5C 608.158 341.72 607.158 371.886 605.5 402C 608.036 402.186 610.369 402.686 612.5 403.5C 611.833 403.5 611.167 403.5 610.5 403.5C 608.167 403.5 605.833 403.5 603.5 403.5C 602.043 419.242 600.043 434.909 597.5 450.5C 596.766 449.122 596.099 447.622 595.5 446C 596.132 363.082 596.466 280.249 596.5 197.5C 595.051 196.828 593.718 196.161 592.5 195.5C 602.957 191.861 613.624 190.861 624.5 192.5z"
                        stroke="none" fill="#07A192" fill-rule="nonzero" />
                </g>
                <g>
                    <path
                        d="M626.5 192.5C 634.622 192.63 642.289 194.296 649.5 197.5C 648.503 197.47 647.836 197.97 647.5 199C 647.858 227.321 648.191 255.654 648.5 284C 647.377 285.044 646.044 285.71 644.5 286C 646.382 286.198 648.048 286.698 649.5 287.5C 645.92 286.923 642.92 287.923 640.5 290.5C 639.509 286.555 639.176 282.555 639.5 278.5C 637.167 278.5 634.833 278.5 632.5 278.5C 632.5 289.5 632.5 300.5 632.5 311.5C 634.833 311.5 637.167 311.5 639.5 311.5C 639.334 306.489 639.501 301.489 640 296.5C 643.333 292.5 646.667 292.5 650 296.5C 650.499 301.489 650.666 306.489 650.5 311.5C 652.5 311.5 654.5 311.5 656.5 311.5C 654.369 312.314 652.036 312.814 649.5 313C 648.833 314 648.167 315 647.5 316C 647.552 342.091 647.886 368.258 648.5 394.5C 647.96 395.748 647.293 396.915 646.5 398C 647.094 398.464 647.761 398.631 648.5 398.5C 648.5 398.833 648.5 399.167 648.5 399.5C 642.248 400.979 635.915 401.979 629.5 402.5C 627.801 402.66 626.134 402.494 624.5 402C 626.099 400.934 627.099 399.434 627.5 397.5C 626.3 368.432 626.3 339.432 627.5 310.5C 626.364 310.036 625.364 309.702 624.5 309.5C 625.23 308.288 626.23 307.288 627.5 306.5C 626.807 305.482 626.141 304.482 625.5 303.5C 627.471 299.293 628.137 294.959 627.5 290.5C 626.807 289.482 626.141 288.482 625.5 287.5C 625.953 286.542 626.619 285.708 627.5 285C 626.619 284.292 625.953 283.458 625.5 282.5C 626.256 280.733 626.923 278.9 627.5 277C 626.76 248.991 626.427 220.824 626.5 192.5z"
                        stroke="none" fill="#04A187" fill-rule="nonzero" />
                </g>
                <g>
                    <path
                        d="M649.5 197.5C 658.036 200.103 666.036 203.77 673.5 208.5C 672.761 208.369 672.094 208.536 671.5 209C 672.193 235.146 672.527 260.479 672.5 285C 671.167 285.333 669.833 285.667 668.5 286C 671.036 286.186 673.369 286.686 675.5 287.5C 671.416 287.043 667.583 287.71 664 289.5C 663.376 291.464 663.876 293.131 665.5 294.5C 670.316 291.302 674.316 291.969 677.5 296.5C 673.541 297.327 669.541 297.827 665.5 298C 662.317 299.018 660.984 301.185 661.5 304.5C 662.261 310.95 665.928 313.284 672.5 311.5C 670.369 312.314 668.036 312.814 665.5 313C 668.043 313.14 670.377 313.806 672.5 315C 672.119 337.191 672.119 359.357 672.5 381.5C 672.167 384.345 671.167 386.845 669.5 389C 669.728 389.399 670.062 389.565 670.5 389.5C 667.696 391.074 665.029 392.907 662.5 395C 665.938 403.818 669.272 412.651 672.5 421.5C 671.852 451.659 671.518 481.325 671.5 510.5C 671.709 511.086 672.043 511.586 672.5 512C 676.821 512.499 681.154 512.666 685.5 512.5C 685.5 512.833 685.5 513.167 685.5 513.5C 676.167 513.5 666.833 513.5 657.5 513.5C 654.359 512.679 651.025 512.179 647.5 512C 647.712 499.543 648.045 487.043 648.5 474.5C 648.032 472.866 647.032 471.7 645.5 471C 646.737 470.768 647.737 470.268 648.5 469.5C 655.347 468.288 662.014 466.455 668.5 464C 663.116 442.204 657.782 420.371 652.5 398.5C 651.167 398.5 649.833 398.5 648.5 398.5C 647.761 398.631 647.094 398.464 646.5 398C 647.293 396.915 647.96 395.748 648.5 394.5C 647.886 368.258 647.552 342.091 647.5 316C 648.167 315 648.833 314 649.5 313C 652.036 312.814 654.369 312.314 656.5 311.5C 656.666 304.825 656.5 298.158 656 291.5C 654.429 289.077 652.263 287.744 649.5 287.5C 648.048 286.698 646.382 286.198 644.5 286C 646.044 285.71 647.377 285.044 648.5 284C 648.191 255.654 647.858 227.321 647.5 199C 647.836 197.97 648.503 197.47 649.5 197.5z"
                        stroke="none" fill="#04A280" fill-rule="nonzero" />
                </g>
                <g>
                    <path
                        d="M580.5 199.5C 581.935 200.824 582.935 202.491 583.5 204.5C 582.78 234.196 582.446 263.863 582.5 293.5C 583.949 294.172 585.282 294.839 586.5 295.5C 585.167 295.5 583.833 295.5 582.5 295.5C 582.5 297.167 582.5 298.833 582.5 300.5C 582.716 330.795 583.049 361.128 583.5 391.5C 582.826 393.195 582.159 394.862 581.5 396.5C 577.948 395.724 574.614 394.391 571.5 392.5C 570.833 392.5 570.5 392.167 570.5 391.5C 571.028 390.279 571.695 389.113 572.5 388C 571.685 363.222 571.685 337.889 572.5 312C 570.527 311.505 568.527 311.338 566.5 311.5C 577.876 307.072 581.376 299.072 577 287.5C 574.635 284.131 571.468 281.964 567.5 281C 561.509 280.501 555.509 280.334 549.5 280.5C 551.607 279.532 553.941 279.198 556.5 279.5C 561.233 279.223 565.9 279.557 570.5 280.5C 571.244 279.009 571.91 277.509 572.5 276C 571.782 251.559 571.449 227.392 571.5 203.5C 574.088 201.375 577.088 200.042 580.5 199.5z"
                        stroke="none" fill="#09A1A0" fill-rule="nonzero" />
                </g>
                <g>
                    <path
                        d="M571.5 203.5C 571.449 227.392 571.782 251.559 572.5 276C 571.91 277.509 571.244 279.009 570.5 280.5C 565.9 279.557 561.233 279.223 556.5 279.5C 558.158 278.819 559.825 277.985 561.5 277C 560.731 255.693 560.731 234.193 561.5 212.5C 560.675 211.614 559.675 211.281 558.5 211.5C 562.323 208.084 566.657 205.418 571.5 203.5z"
                        stroke="none" fill="#02A1A5" fill-rule="nonzero" />
                </g>
                <g>
                    <path
                        d="M734.5 201.5C 733.73 232.22 733.397 263.054 733.5 294C 734 295.5 734.5 297 735 298.5C 735.278 297.584 735.778 296.918 736.5 296.5C 736.5 299.167 736.5 301.833 736.5 304.5C 734.883 303.411 734.05 301.744 734 299.5C 733.833 301.5 733.667 303.5 733.5 305.5C 733.804 334.714 733.804 363.714 733.5 392.5C 725.493 384.493 717.827 376.159 710.5 367.5C 711.411 365.197 713.077 363.697 715.5 363C 714.234 362.691 713.067 362.191 712 361.5C 711.195 363.901 710.362 363.734 709.5 361C 710.167 360.333 710.833 359.667 711.5 359C 710.833 357.333 710.167 355.667 709.5 354C 710.5 353.667 711.5 353.333 712.5 353C 710.559 351.184 709.892 349.184 710.5 347C 711.167 345 712.5 343.667 714.5 343C 711.508 341.893 710.841 340.226 712.5 338C 711.364 336.47 710.364 335.137 709.5 334C 710.5 333.667 711.5 333.333 712.5 333C 709.759 328.987 710.426 325.487 714.5 322.5C 716.969 321.832 719.302 321.165 721.5 320.5C 725.92 319.919 729.086 317.586 731 313.5C 731.5 304.84 731.666 296.173 731.5 287.5C 728.606 287.042 726.106 287.709 724 289.5C 722.67 288.418 721.17 287.751 719.5 287.5C 716.972 286.834 714.306 286.168 711.5 285.5C 708.838 282.441 709.171 279.941 712.5 278C 709.292 275.553 709.292 273.887 712.5 273C 710.473 271.604 710.14 269.938 711.5 268C 707.639 267.431 707.639 266.598 711.5 265.5C 710.926 263.941 710.26 262.441 709.5 261C 711.213 259.622 712.547 257.955 713.5 256C 712.285 253.904 711.451 254.071 711 256.5C 708.651 254.256 709.151 253.089 712.5 253C 710.473 251.604 710.14 249.938 711.5 248C 710.833 247.667 710.167 247.333 709.5 247C 711.053 245.903 712.386 244.57 713.5 243C 712.285 240.904 711.451 241.071 711 243.5C 710.626 242.584 710.126 241.75 709.5 241C 711.414 239.587 712.747 237.753 713.5 235.5C 714.376 234.749 715.376 234.249 716.5 234C 714.616 233.784 712.949 233.117 711.5 232C 712.328 231.085 713.328 230.419 714.5 230C 713.748 229.329 713.414 228.496 713.5 227.5C 720.031 218.428 727.031 209.761 734.5 201.5z"
                        stroke="none" fill="#03A36E" fill-rule="nonzero" />
                </g>
                <g>
                    <path
                        d="M549.5 206.5C 551.5 207.976 553.167 209.809 554.5 212C 555.928 212.579 557.262 212.412 558.5 211.5C 559.675 211.281 560.675 211.614 561.5 212.5C 560.731 234.193 560.731 255.693 561.5 277C 559.825 277.985 558.158 278.819 556.5 279.5C 553.941 279.198 551.607 279.532 549.5 280.5C 549.5 290.833 549.5 301.167 549.5 311.5C 549.167 311.5 548.833 311.5 548.5 311.5C 548.922 275.931 549.256 240.931 549.5 206.5z"
                        stroke="none" fill="#12A2AD" fill-rule="nonzero" />
                </g>
                <g>
                    <path
                        d="M673.5 208.5C 680.921 212.538 687.587 217.538 693.5 223.5C 693.409 244.289 693.075 264.955 692.5 285.5C 691.448 285.351 690.448 285.517 689.5 286C 692.146 286.497 694.813 286.664 697.5 286.5C 697.5 287.833 697.5 289.167 697.5 290.5C 696.493 290.548 696.16 289.548 696.5 287.5C 694.5 287.5 692.5 287.5 690.5 287.5C 690.5 295.5 690.5 303.5 690.5 311.5C 692.5 311.5 694.5 311.5 696.5 311.5C 694.369 312.314 692.036 312.814 689.5 313C 691.044 313.29 692.377 313.956 693.5 315C 692.922 335.378 692.922 355.211 693.5 374.5C 686.695 380.741 679.029 385.741 670.5 389.5C 670.062 389.565 669.728 389.399 669.5 389C 671.167 386.845 672.167 384.345 672.5 381.5C 672.119 359.357 672.119 337.191 672.5 315C 670.377 313.806 668.043 313.14 665.5 313C 668.036 312.814 670.369 312.314 672.5 311.5C 674.044 311.297 675.378 310.63 676.5 309.5C 678.523 311.173 680.856 311.84 683.5 311.5C 683.666 304.825 683.5 298.158 683 291.5C 681.117 288.976 678.617 287.642 675.5 287.5C 673.369 286.686 671.036 286.186 668.5 286C 669.833 285.667 671.167 285.333 672.5 285C 672.527 260.479 672.193 235.146 671.5 209C 672.094 208.536 672.761 208.369 673.5 208.5z"
                        stroke="none" fill="#08A27A" fill-rule="nonzero" />
                </g>
                <g>
                    <path
                        d="M534.5 358.5C 529.72 351.274 525.72 343.608 522.5 335.5C 523.552 335.649 524.552 335.483 525.5 335C 525.434 310.234 525.434 285.568 525.5 261C 524.231 261.109 523.231 260.942 522.5 260.5C 525.129 252.574 528.796 245.241 533.5 238.5C 534.423 237.697 535.423 237.53 536.5 238C 536.365 277.004 536.365 316.17 536.5 355.5C 536.547 357.038 535.88 358.038 534.5 358.5z"
                        stroke="none" fill="#02A0B8" fill-rule="nonzero" />
                </g>
                <g>
                    <path
                        d="M466.5 242.5C 473.833 244.833 481.167 247.167 488.5 249.5C 489.177 254.607 489.511 259.607 489.5 264.5C 488.167 264.5 486.833 264.5 485.5 264.5C 483.784 264.371 482.117 264.038 480.5 263.5C 473.964 261.876 467.631 259.876 461.5 257.5C 462.675 257.719 463.675 257.386 464.5 256.5C 463.997 252.583 463.664 248.416 463.5 244C 464.737 243.768 465.737 243.268 466.5 242.5z"
                        stroke="none" fill="#08A0D5" fill-rule="nonzero" />
                </g>
                <g>
                    <path
                        d="M488.5 249.5C 495.092 251.697 501.759 253.697 508.5 255.5C 509.93 256.537 511.597 257.204 513.5 257.5C 513.223 260.448 513.556 263.281 514.5 266C 514 268.521 512.667 270.354 510.5 271.5C 501.941 269.613 493.608 267.28 485.5 264.5C 486.833 264.5 488.167 264.5 489.5 264.5C 489.511 259.607 489.177 254.607 488.5 249.5z"
                        stroke="none" fill="#0AA1CA" fill-rule="nonzero" />
                </g>
                <g>
                    <path
                        d="M443.5 253.5C 449.649 254.246 455.649 255.579 461.5 257.5C 467.631 259.876 473.964 261.876 480.5 263.5C 480.488 283.422 480.155 303.255 479.5 323C 480.381 323.708 481.047 324.542 481.5 325.5C 473.664 326.604 465.998 327.937 458.5 329.5C 453.811 329.948 449.145 330.615 444.5 331.5C 443.5 331.167 442.5 330.833 441.5 330.5C 440.565 324.031 439.565 317.698 438.5 311.5C 438.5 300.167 438.5 288.833 438.5 277.5C 439.972 269.579 441.639 261.579 443.5 253.5z"
                        stroke="none" fill="#9AD5EC" fill-rule="nonzero" />
                </g>
                <g>
                    <path
                        d="M513.5 257.5C 516.421 258.696 519.421 259.696 522.5 260.5C 523.231 260.942 524.231 261.109 525.5 261C 525.434 285.568 525.434 310.234 525.5 335C 524.552 335.483 523.552 335.649 522.5 335.5C 518.852 334.375 515.185 334.708 511.5 336.5C 507.807 337.06 504.14 337.727 500.5 338.5C 502.522 334.462 503.022 330.129 502 325.5C 500.951 323.893 499.451 323.227 497.5 323.5C 503.913 321.695 510.579 320.695 517.5 320.5C 515.86 304.772 516.193 289.106 518.5 273.5C 515.505 273.706 512.838 273.04 510.5 271.5C 512.667 270.354 514 268.521 514.5 266C 513.556 263.281 513.223 260.448 513.5 257.5z"
                        stroke="none" fill="#05A1BF" fill-rule="nonzero" />
                </g>
                <g>
                    <path
                        d="M480.5 263.5C 482.117 264.038 483.784 264.371 485.5 264.5C 493.608 267.28 501.941 269.613 510.5 271.5C 512.838 273.04 515.505 273.706 518.5 273.5C 516.193 289.106 515.86 304.772 517.5 320.5C 510.579 320.695 503.913 321.695 497.5 323.5C 492.951 323.624 488.618 324.291 484.5 325.5C 483.5 325.5 482.5 325.5 481.5 325.5C 481.047 324.542 480.381 323.708 479.5 323C 480.155 303.255 480.488 283.422 480.5 263.5z"
                        stroke="none" fill="#98D8E9" fill-rule="nonzero" />
                </g>
                <g>
                    <path
                        d="M649.5 287.5C 652.263 287.744 654.429 289.077 656 291.5C 656.5 298.158 656.666 304.825 656.5 311.5C 654.5 311.5 652.5 311.5 650.5 311.5C 650.666 306.489 650.499 301.489 650 296.5C 646.667 292.5 643.333 292.5 640 296.5C 639.501 301.489 639.334 306.489 639.5 311.5C 637.167 311.5 634.833 311.5 632.5 311.5C 632.5 300.5 632.5 289.5 632.5 278.5C 634.833 278.5 637.167 278.5 639.5 278.5C 639.176 282.555 639.509 286.555 640.5 290.5C 642.92 287.923 645.92 286.923 649.5 287.5z"
                        stroke="none" fill="#FAFCFC" fill-rule="nonzero" />
                </g>
                <g>
                    <path
                        d="M549.5 280.5C 555.509 280.334 561.509 280.501 567.5 281C 571.468 281.964 574.635 284.131 577 287.5C 581.376 299.072 577.876 307.072 566.5 311.5C 560.833 311.5 555.167 311.5 549.5 311.5C 549.5 301.167 549.5 290.833 549.5 280.5z"
                        stroke="none" fill="#F7FBFA" fill-rule="nonzero" />
                </g>
                <g>
                    <path
                        d="M625.5 282.5C 625.953 283.458 626.619 284.292 627.5 285C 626.619 285.708 625.953 286.542 625.5 287.5C 624.735 287.923 623.902 288.257 623 288.5C 618.665 285.091 614.165 284.758 609.5 287.5C 608.167 285.833 606.833 284.167 605.5 282.5C 606.243 281.818 606.909 281.151 607.5 280.5C 613.748 278.898 619.748 279.565 625.5 282.5z"
                        stroke="none" fill="#F5FBFA" fill-rule="nonzero" />
                </g>
                <g>
                    <path
                        d="M603.5 283.5C 607.911 285.759 608.411 288.425 605 291.5C 602.964 291.046 601.13 290.213 599.5 289C 600.665 287.008 601.998 285.175 603.5 283.5z"
                        stroke="none" fill="#ACE0DB" fill-rule="nonzero" />
                </g>
                <g>
                    <path
                        d="M556.5 286.5C 568.155 284.323 572.989 288.99 571 300.5C 570.535 301.931 569.701 303.097 568.5 304C 564.637 305.354 560.637 305.854 556.5 305.5C 556.5 299.167 556.5 292.833 556.5 286.5z"
                        stroke="none" fill="#0FA1A6" fill-rule="nonzero" />
                </g>
                <g>
                    <path
                        d="M675.5 287.5C 678.617 287.642 681.117 288.976 683 291.5C 683.5 298.158 683.666 304.825 683.5 311.5C 680.856 311.84 678.523 311.173 676.5 309.5C 675.378 310.63 674.044 311.297 672.5 311.5C 665.928 313.284 662.261 310.95 661.5 304.5C 660.984 301.185 662.317 299.018 665.5 298C 669.541 297.827 673.541 297.327 677.5 296.5C 674.316 291.969 670.316 291.302 665.5 294.5C 663.876 293.131 663.376 291.464 664 289.5C 667.583 287.71 671.416 287.043 675.5 287.5z"
                        stroke="none" fill="#F9FCFB" fill-rule="nonzero" />
                </g>
                <g>
                    <path
                        d="M697.5 290.5C 699.213 288.15 701.547 287.15 704.5 287.5C 704.5 289.5 704.5 291.5 704.5 293.5C 701.675 293.081 699.509 294.081 698 296.5C 697.826 301.684 697.326 306.684 696.5 311.5C 694.5 311.5 692.5 311.5 690.5 311.5C 690.5 303.5 690.5 295.5 690.5 287.5C 692.5 287.5 694.5 287.5 696.5 287.5C 696.16 289.548 696.493 290.548 697.5 290.5z"
                        stroke="none" fill="#F5FAF9" fill-rule="nonzero" />
                </g>
                <g>
                    <path
                        d="M719.5 287.5C 721.17 287.751 722.67 288.418 724 289.5C 726.106 287.709 728.606 287.042 731.5 287.5C 731.666 296.173 731.5 304.84 731 313.5C 729.086 317.586 725.92 319.919 721.5 320.5C 717.288 320.922 713.288 320.256 709.5 318.5C 708.246 316.741 708.579 315.241 710.5 314C 713.652 315.186 716.985 315.519 720.5 315C 724.112 313.92 725.112 311.753 723.5 308.5C 713.227 312.69 707.56 309.19 706.5 298C 707.692 290.643 712.026 287.143 719.5 287.5z"
                        stroke="none" fill="#F6FAF9" fill-rule="nonzero" />
                </g>
                <g>
                    <path
                        d="M752.5 287.5C 755.81 289.146 758.477 291.48 760.5 294.5C 760.5 296.833 760.5 299.167 760.5 301.5C 754.794 301.171 749.128 301.505 743.5 302.5C 743.968 304.134 744.968 305.3 746.5 306C 750.015 306.519 753.348 306.186 756.5 305C 758.853 308.253 757.853 310.42 753.5 311.5C 745.818 313.35 740.151 311.017 736.5 304.5C 736.5 301.833 736.5 299.167 736.5 296.5C 739.082 288.87 744.416 285.87 752.5 287.5z"
                        stroke="none" fill="#F7FAF9" fill-rule="nonzero" />
                </g>
                <g>
                    <path
                        d="M745.5 292.5C 750.175 291.339 752.841 293.006 753.5 297.5C 750.167 297.5 746.833 297.5 743.5 297.5C 743.392 295.486 744.058 293.82 745.5 292.5z"
                        stroke="none" fill="#12A46A" fill-rule="nonzero" />
                </g>
                <g>
                    <path
                        d="M598.5 291.5C 602.78 291.446 605.114 293.446 605.5 297.5C 603.139 297.674 600.806 298.007 598.5 298.5C 598.5 296.167 598.5 293.833 598.5 291.5z"
                        stroke="none" fill="#96D7D2" fill-rule="nonzero" />
                </g>
                <g>
                    <path
                        d="M693.5 223.5C 697.521 227.519 701.854 231.186 706.5 234.5C 708.612 231.94 710.945 229.606 713.5 227.5C 713.414 228.496 713.748 229.329 714.5 230C 713.328 230.419 712.328 231.085 711.5 232C 712.949 233.117 714.616 233.784 716.5 234C 715.376 234.249 714.376 234.749 713.5 235.5C 712.747 237.753 711.414 239.587 709.5 241C 710.126 241.75 710.626 242.584 711 243.5C 711.451 241.071 712.285 240.904 713.5 243C 712.386 244.57 711.053 245.903 709.5 247C 710.167 247.333 710.833 247.667 711.5 248C 710.14 249.938 710.473 251.604 712.5 253C 709.151 253.089 708.651 254.256 711 256.5C 711.451 254.071 712.285 253.904 713.5 256C 712.547 257.955 711.213 259.622 709.5 261C 710.26 262.441 710.926 263.941 711.5 265.5C 707.639 266.598 707.639 267.431 711.5 268C 710.14 269.938 710.473 271.604 712.5 273C 709.292 273.887 709.292 275.553 712.5 278C 709.171 279.941 708.838 282.441 711.5 285.5C 714.306 286.168 716.972 286.834 719.5 287.5C 712.026 287.143 707.692 290.643 706.5 298C 707.56 309.19 713.227 312.69 723.5 308.5C 725.112 311.753 724.112 313.92 720.5 315C 716.985 315.519 713.652 315.186 710.5 314C 708.579 315.241 708.246 316.741 709.5 318.5C 713.288 320.256 717.288 320.922 721.5 320.5C 719.302 321.165 716.969 321.832 714.5 322.5C 710.426 325.487 709.759 328.987 712.5 333C 711.5 333.333 710.5 333.667 709.5 334C 710.364 335.137 711.364 336.47 712.5 338C 710.841 340.226 711.508 341.893 714.5 343C 712.5 343.667 711.167 345 710.5 347C 709.892 349.184 710.559 351.184 712.5 353C 711.5 353.333 710.5 353.667 709.5 354C 710.167 355.667 710.833 357.333 711.5 359C 710.833 359.667 710.167 360.333 709.5 361C 710.362 363.734 711.195 363.901 712 361.5C 713.067 362.191 714.234 362.691 715.5 363C 713.077 363.697 711.411 365.197 710.5 367.5C 707.995 363.71 705.662 363.71 703.5 367.5C 700.185 369.808 696.851 372.141 693.5 374.5C 692.922 355.211 692.922 335.378 693.5 315C 692.377 313.956 691.044 313.29 689.5 313C 692.036 312.814 694.369 312.314 696.5 311.5C 697.326 306.684 697.826 301.684 698 296.5C 699.509 294.081 701.675 293.081 704.5 293.5C 704.5 291.5 704.5 289.5 704.5 287.5C 701.547 287.15 699.213 288.15 697.5 290.5C 697.5 289.167 697.5 287.833 697.5 286.5C 694.813 286.664 692.146 286.497 689.5 286C 690.448 285.517 691.448 285.351 692.5 285.5C 693.075 264.955 693.409 244.289 693.5 223.5z"
                        stroke="none" fill="#05A274" fill-rule="nonzero" />
                </g>
                <g>
                    <path
                        d="M586.5 295.5C 589.167 295.5 591.833 295.5 594.5 295.5C 594.5 297.167 594.5 298.833 594.5 300.5C 590.5 300.5 586.5 300.5 582.5 300.5C 582.5 298.833 582.5 297.167 582.5 295.5C 583.833 295.5 585.167 295.5 586.5 295.5z"
                        stroke="none" fill="#E8F3F3" fill-rule="nonzero" />
                </g>
                <g>
                    <path
                        d="M716.5 292.5C 723.314 292.49 725.814 295.823 724 302.5C 720.667 306.5 717.333 306.5 714 302.5C 712.861 298.579 713.695 295.246 716.5 292.5z"
                        stroke="none" fill="#1AA574" fill-rule="nonzero" />
                </g>
                <g>
                    <path
                        d="M736.5 304.5C 740.151 311.017 745.818 313.35 753.5 311.5C 752.84 344.863 752.174 378.196 751.5 411.5C 744.797 405.798 738.797 399.464 733.5 392.5C 733.804 363.714 733.804 334.714 733.5 305.5C 733.667 303.5 733.833 301.5 734 299.5C 734.05 301.744 734.883 303.411 736.5 304.5z"
                        stroke="none" fill="#02A367" fill-rule="nonzero" />
                </g>
                <g>
                    <path
                        d="M592.5 195.5C 593.718 196.161 595.051 196.828 596.5 197.5C 596.466 280.249 596.132 363.082 595.5 446C 596.099 447.622 596.766 449.122 597.5 450.5C 596.314 457.799 595.314 465.133 594.5 472.5C 596.099 472.232 597.432 472.566 598.5 473.5C 597.448 473.351 596.448 473.517 595.5 474C 595.202 486.69 595.535 499.523 596.5 512.5C 598.099 512.232 599.432 512.566 600.5 513.5C 596.5 513.5 592.5 513.5 588.5 513.5C 586.958 512.837 585.291 512.17 583.5 511.5C 583.013 510.554 582.68 509.554 582.5 508.5C 582.68 489.47 583.014 470.47 583.5 451.5C 582.37 450.378 581.703 449.044 581.5 447.5C 584.349 432.247 587.682 417.08 591.5 402C 588.301 399.882 584.967 398.048 581.5 396.5C 582.159 394.862 582.826 393.195 583.5 391.5C 583.049 361.128 582.716 330.795 582.5 300.5C 586.5 300.5 590.5 300.5 594.5 300.5C 594.5 298.833 594.5 297.167 594.5 295.5C 591.833 295.5 589.167 295.5 586.5 295.5C 585.282 294.839 583.949 294.172 582.5 293.5C 582.446 263.863 582.78 234.196 583.5 204.5C 582.935 202.491 581.935 200.824 580.5 199.5C 584.085 197.194 588.085 195.861 592.5 195.5z"
                        stroke="none" fill="#02A199" fill-rule="nonzero" />
                </g>
                <g>
                    <path
                        d="M600.5 299.5C 608.773 299.363 609.44 301.363 602.5 305.5C 600.047 303.958 599.38 301.958 600.5 299.5z"
                        stroke="none" fill="#7CCEC7" fill-rule="nonzero" />
                </g>
                <g>
                    <path
                        d="M668.5 301.5C 671.5 301.5 674.5 301.5 677.5 301.5C 677.22 305.113 675.22 307.113 671.5 307.5C 667.813 306.754 666.813 304.754 668.5 301.5z"
                        stroke="none" fill="#29A785" fill-rule="nonzero" />
                </g>
                <g>
                    <path
                        d="M625.5 303.5C 626.141 304.482 626.807 305.482 627.5 306.5C 626.23 307.288 625.23 308.288 624.5 309.5C 621.288 310.804 617.955 311.804 614.5 312.5C 613.353 312.182 612.519 311.516 612 310.5C 610.989 311.337 609.822 311.67 608.5 311.5C 603.026 308.383 603.36 305.717 609.5 303.5C 615.049 304.524 620.383 304.524 625.5 303.5z"
                        stroke="none" fill="#3BB4A3" fill-rule="nonzero" />
                </g>
                <g>
                    <path
                        d="M624.5 309.5C 625.364 309.702 626.364 310.036 627.5 310.5C 626.3 339.432 626.3 368.432 627.5 397.5C 627.099 399.434 626.099 400.934 624.5 402C 626.134 402.494 627.801 402.66 629.5 402.5C 624.025 403.489 618.358 403.822 612.5 403.5C 610.369 402.686 608.036 402.186 605.5 402C 607.158 371.886 608.158 341.72 608.5 311.5C 609.822 311.67 610.989 311.337 612 310.5C 612.519 311.516 613.353 312.182 614.5 312.5C 617.955 311.804 621.288 310.804 624.5 309.5z"
                        stroke="none" fill="#00A18C" fill-rule="nonzero" />
                </g>
                <g>
                    <path
                        d="M760.5 301.5C 760.446 367.175 760.112 432.342 759.5 497C 760.109 498.948 760.776 500.782 761.5 502.5C 759.574 504.293 757.241 505.293 754.5 505.5C 752.835 474.68 751.835 443.68 751.5 412.5C 751.5 412.167 751.5 411.833 751.5 411.5C 752.174 378.196 752.84 344.863 753.5 311.5C 757.853 310.42 758.853 308.253 756.5 305C 753.348 306.186 750.015 306.519 746.5 306C 744.968 305.3 743.968 304.134 743.5 302.5C 749.128 301.505 754.794 301.171 760.5 301.5z"
                        stroke="none" fill="#02A361" fill-rule="nonzero" />
                </g>
                <g>
                    <path
                        d="M549.5 311.5C 555.167 311.5 560.833 311.5 566.5 311.5C 568.527 311.338 570.527 311.505 572.5 312C 571.685 337.889 571.685 363.222 572.5 388C 571.695 389.113 571.028 390.279 570.5 391.5C 566.148 389.327 562.148 386.66 558.5 383.5C 560.185 382.816 561.185 381.483 561.5 379.5C 560.441 358.912 560.441 338.079 561.5 317C 560.939 315.324 559.939 313.991 558.5 313C 555.305 312.819 552.305 312.319 549.5 311.5z"
                        stroke="none" fill="#05A1A5" fill-rule="nonzero" />
                </g>
                <g>
                    <path
                        d="M548.5 311.5C 548.833 311.5 549.167 311.5 549.5 311.5C 552.305 312.319 555.305 312.819 558.5 313C 559.939 313.991 560.939 315.324 561.5 317C 560.441 338.079 560.441 358.912 561.5 379.5C 561.185 381.483 560.185 382.816 558.5 383.5C 557.027 382.26 555.36 381.26 553.5 380.5C 552.145 381.188 551.145 382.188 550.5 383.5C 550.167 383.5 549.833 383.5 549.5 383.5C 549.397 359.525 549.064 335.525 548.5 311.5z"
                        stroke="none" fill="#00A0AB" fill-rule="nonzero" />
                </g>
                <g>
                    <path
                        d="M438.5 311.5C 439.565 317.698 440.565 324.031 441.5 330.5C 442.5 330.833 443.5 331.167 444.5 331.5C 449.145 330.615 453.811 329.948 458.5 329.5C 460.527 329.338 462.527 329.505 464.5 330C 464.756 334.671 464.423 339.504 463.5 344.5C 464.791 344.263 465.791 344.596 466.5 345.5C 459.571 347.287 452.571 348.954 445.5 350.5C 447.575 355.724 449.242 361.058 450.5 366.5C 449.391 412.506 449.391 458.673 450.5 505C 449.437 506.188 448.103 506.688 446.5 506.5C 442.311 505.779 438.645 504.113 435.5 501.5C 436.234 500.122 436.901 498.622 437.5 497C 436.858 438.914 436.525 380.08 436.5 320.5C 436.497 317.398 436.997 317.065 438 319.5C 438.497 316.854 438.664 314.187 438.5 311.5z"
                        stroke="none" fill="#0B93CD" fill-rule="nonzero" />
                </g>
                <g>
                    <path
                        d="M497.5 323.5C 499.451 323.227 500.951 323.893 502 325.5C 503.022 330.129 502.522 334.462 500.5 338.5C 496.373 339.075 492.373 340.075 488.5 341.5C 488.167 341.5 487.833 341.5 487.5 341.5C 488.379 339.772 489.046 337.939 489.5 336C 488.167 333.667 488.167 331.333 489.5 329C 488.911 326.367 487.244 325.2 484.5 325.5C 488.618 324.291 492.951 323.624 497.5 323.5z"
                        stroke="none" fill="#07A0CB" fill-rule="nonzero" />
                </g>
                <g>
                    <path
                        d="M481.5 325.5C 482.5 325.5 483.5 325.5 484.5 325.5C 487.244 325.2 488.911 326.367 489.5 329C 488.167 331.333 488.167 333.667 489.5 336C 489.046 337.939 488.379 339.772 487.5 341.5C 480.449 342.577 473.449 343.91 466.5 345.5C 465.791 344.596 464.791 344.263 463.5 344.5C 464.423 339.504 464.756 334.671 464.5 330C 462.527 329.505 460.527 329.338 458.5 329.5C 465.998 327.937 473.664 326.604 481.5 325.5z"
                        stroke="none" fill="#08A0D5" fill-rule="nonzero" />
                </g>
                <g>
                    <path
                        d="M522.5 335.5C 525.72 343.608 529.72 351.274 534.5 358.5C 536.763 362.103 539.43 365.436 542.5 368.5C 535.765 373.521 529.099 378.521 522.5 383.5C 520.184 384.806 517.85 386.139 515.5 387.5C 514.191 386.376 513.525 384.876 513.5 383C 513.645 368.466 513.979 353.966 514.5 339.5C 513.66 338.265 512.66 337.265 511.5 336.5C 515.185 334.708 518.852 334.375 522.5 335.5z"
                        stroke="none" fill="#7FCFDD" fill-rule="nonzero" />
                </g>
                <g>
                    <path
                        d="M511.5 336.5C 512.66 337.265 513.66 338.265 514.5 339.5C 513.979 353.966 513.645 368.466 513.5 383C 513.525 384.876 514.191 386.376 515.5 387.5C 510.833 391.167 506.167 394.833 501.5 398.5C 497.5 400.833 493.5 403.167 489.5 405.5C 487.824 401.364 486.824 396.864 486.5 392C 486.741 378.546 486.741 365.213 486.5 352C 487.203 348.504 487.87 345.004 488.5 341.5C 492.373 340.075 496.373 339.075 500.5 338.5C 504.14 337.727 507.807 337.06 511.5 336.5z"
                        stroke="none" fill="#7FCFE4" fill-rule="nonzero" />
                </g>
                <g>
                    <path
                        d="M487.5 341.5C 487.833 341.5 488.167 341.5 488.5 341.5C 487.87 345.004 487.203 348.504 486.5 352C 486.741 365.213 486.741 378.546 486.5 392C 486.824 396.864 487.824 401.364 489.5 405.5C 488.694 406.728 487.694 407.728 486.5 408.5C 484.074 410.38 481.408 411.713 478.5 412.5C 473.802 406.143 469.135 399.81 464.5 393.5C 459.546 384.591 454.88 375.591 450.5 366.5C 449.242 361.058 447.575 355.724 445.5 350.5C 452.571 348.954 459.571 347.287 466.5 345.5C 473.449 343.91 480.449 342.577 487.5 341.5z"
                        stroke="none" fill="#7FCEE9" fill-rule="nonzero" />
                </g>
                <g>
                    <path
                        d="M710.5 367.5C 717.827 376.159 725.493 384.493 733.5 392.5C 738.797 399.464 744.797 405.798 751.5 411.5C 751.5 411.833 751.5 412.167 751.5 412.5C 745.167 418.5 738.833 424.5 732.5 430.5C 724.828 435.841 717.161 441.174 709.5 446.5C 707.517 447.471 705.517 448.471 703.5 449.5C 703.491 422.184 703.491 394.851 703.5 367.5C 705.662 363.71 707.995 363.71 710.5 367.5z"
                        stroke="none" fill="#32B48B" fill-rule="nonzero" />
                </g>
                <g>
                    <path
                        d="M703.5 367.5C 703.491 394.851 703.491 422.184 703.5 449.5C 698.973 451.595 694.639 453.928 690.5 456.5C 689.033 457.292 687.7 457.292 686.5 456.5C 681.806 444.734 677.14 433.067 672.5 421.5C 669.272 412.651 665.938 403.818 662.5 395C 665.029 392.907 667.696 391.074 670.5 389.5C 679.029 385.741 686.695 380.741 693.5 374.5C 696.851 372.141 700.185 369.808 703.5 367.5z"
                        stroke="none" fill="#32B492" fill-rule="nonzero" />
                </g>
                <g>
                    <path
                        d="M450.5 366.5C 454.88 375.591 459.546 384.591 464.5 393.5C 463.319 431.396 463.319 468.729 464.5 505.5C 464.798 508.603 463.465 510.27 460.5 510.5C 455.471 510.08 450.805 508.746 446.5 506.5C 448.103 506.688 449.437 506.188 450.5 505C 449.391 458.673 449.391 412.506 450.5 366.5z"
                        stroke="none" fill="#0699D2" fill-rule="nonzero" />
                </g>
                <g>
                    <path
                        d="M558.5 383.5C 562.148 386.66 566.148 389.327 570.5 391.5C 570.5 392.167 570.833 392.5 571.5 392.5C 571.742 417.863 571.742 443.196 571.5 468.5C 567.348 468.004 563.348 467.004 559.5 465.5C 556.402 464.784 553.402 463.784 550.5 462.5C 550.279 461.265 549.612 460.265 548.5 459.5C 548.77 437.302 548.77 415.135 548.5 393C 549.207 389.839 549.874 386.672 550.5 383.5C 551.145 382.188 552.145 381.188 553.5 380.5C 555.36 381.26 557.027 382.26 558.5 383.5z"
                        stroke="none" fill="#65C6CB" fill-rule="nonzero" />
                </g>
                <g>
                    <path
                        d="M549.5 383.5C 549.833 383.5 550.167 383.5 550.5 383.5C 549.874 386.672 549.207 389.839 548.5 393C 548.77 415.135 548.77 437.302 548.5 459.5C 549.612 460.265 550.279 461.265 550.5 462.5C 549.391 462.443 548.391 462.11 547.5 461.5C 543.047 459.774 538.714 457.774 534.5 455.5C 533.167 454.833 531.833 454.167 530.5 453.5C 530.193 435.12 530.526 416.787 531.5 398.5C 537.475 393.53 543.475 388.53 549.5 383.5z"
                        stroke="none" fill="#65C6D1" fill-rule="nonzero" />
                </g>
                <g>
                    <path
                        d="M522.5 383.5C 523.995 383.415 524.995 384.081 525.5 385.5C 524.496 391.163 524.496 396.829 525.5 402.5C 518.149 409.181 510.483 415.514 502.5 421.5C 502.657 413.751 502.324 406.085 501.5 398.5C 506.167 394.833 510.833 391.167 515.5 387.5C 517.85 386.139 520.184 384.806 522.5 383.5z"
                        stroke="none" fill="#03A0C3" fill-rule="nonzero" />
                </g>
                <g>
                    <path
                        d="M571.5 392.5C 574.614 394.391 577.948 395.724 581.5 396.5C 584.967 398.048 588.301 399.882 591.5 402C 587.682 417.08 584.349 432.247 581.5 447.5C 579.053 454.541 577.387 461.874 576.5 469.5C 574.833 469.5 573.167 469.5 571.5 469.5C 571.5 469.167 571.5 468.833 571.5 468.5C 571.742 443.196 571.742 417.863 571.5 392.5z"
                        stroke="none" fill="#65C6C5" fill-rule="nonzero" />
                </g>
                <g>
                    <path
                        d="M464.5 393.5C 469.135 399.81 473.802 406.143 478.5 412.5C 478.282 445.847 478.282 479.18 478.5 512.5C 478.167 512.5 477.833 512.5 477.5 512.5C 471.583 512.784 465.916 512.117 460.5 510.5C 463.465 510.27 464.798 508.603 464.5 505.5C 463.319 468.729 463.319 431.396 464.5 393.5z"
                        stroke="none" fill="#039FD6" fill-rule="nonzero" />
                </g>
                <g>
                    <path
                        d="M501.5 398.5C 502.324 406.085 502.657 413.751 502.5 421.5C 499.882 423.452 497.548 425.785 495.5 428.5C 497.673 431.068 500.006 433.401 502.5 435.5C 502.258 460.738 501.925 486.238 501.5 512C 503.058 512.21 504.391 512.71 505.5 513.5C 495.985 513.827 486.652 513.494 477.5 512.5C 477.833 512.5 478.167 512.5 478.5 512.5C 482.167 512.5 485.833 512.5 489.5 512.5C 488.706 477.706 488.706 443.04 489.5 408.5C 488.5 408.5 487.5 408.5 486.5 408.5C 487.694 407.728 488.694 406.728 489.5 405.5C 493.5 403.167 497.5 400.833 501.5 398.5z"
                        stroke="none" fill="#02A0CB" fill-rule="nonzero" />
                </g>
                <g>
                    <path
                        d="M648.5 399.5C 648.5 399.167 648.5 398.833 648.5 398.5C 649.833 398.5 651.167 398.5 652.5 398.5C 657.782 420.371 663.116 442.204 668.5 464C 662.014 466.455 655.347 468.288 648.5 469.5C 647.869 447.134 647.536 424.8 647.5 402.5C 648.09 401.201 649.09 400.368 650.5 400C 649.906 399.536 649.239 399.369 648.5 399.5z"
                        stroke="none" fill="#4CBDA6" fill-rule="nonzero" />
                </g>
                <g>
                    <path
                        d="M648.5 399.5C 649.239 399.369 649.906 399.536 650.5 400C 649.09 400.368 648.09 401.201 647.5 402.5C 647.536 424.8 647.869 447.134 648.5 469.5C 641.889 470.859 635.222 471.859 628.5 472.5C 626.833 472.5 625.167 472.5 623.5 472.5C 619.139 471.174 618.473 469.007 621.5 466C 620.833 464.333 620.167 462.667 619.5 461C 621.957 459.846 621.957 458.512 619.5 457C 621.731 454.53 621.731 452.197 619.5 450C 618.939 448.434 619.606 447.101 621.5 446C 620.833 444.333 620.167 442.667 619.5 441C 620.308 440.692 620.975 440.192 621.5 439.5C 620.22 437.298 620.22 435.132 621.5 433C 620.833 432 620.167 431 619.5 430C 618.939 428.434 619.606 427.101 621.5 426C 620.833 425 620.167 424 619.5 423C 619.057 421.482 619.724 420.315 621.5 419.5C 620.22 417.298 620.22 415.132 621.5 413C 619.991 411.326 619.324 409.66 619.5 408C 620.5 407 621.5 406 622.5 405C 618.312 404.824 614.312 404.324 610.5 403.5C 611.167 403.5 611.833 403.5 612.5 403.5C 618.358 403.822 624.025 403.489 629.5 402.5C 635.915 401.979 642.248 400.979 648.5 399.5z"
                        stroke="none" fill="#4CBDAB" fill-rule="nonzero" />
                </g>
                <g>
                    <path
                        d="M531.5 398.5C 530.526 416.787 530.193 435.12 530.5 453.5C 528.95 452.559 527.284 451.893 525.5 451.5C 521.378 448.266 517.045 445.266 512.5 442.5C 509.167 440.167 505.833 437.833 502.5 435.5C 500.006 433.401 497.673 431.068 495.5 428.5C 497.548 425.785 499.882 423.452 502.5 421.5C 510.483 415.514 518.149 409.181 525.5 402.5C 527.772 401.559 529.772 400.226 531.5 398.5z"
                        stroke="none" fill="#65C5D8" fill-rule="nonzero" />
                </g>
                <g>
                    <path
                        d="M610.5 403.5C 614.312 404.324 618.312 404.824 622.5 405C 621.5 406 620.5 407 619.5 408C 619.324 409.66 619.991 411.326 621.5 413C 620.22 415.132 620.22 417.298 621.5 419.5C 619.724 420.315 619.057 421.482 619.5 423C 620.167 424 620.833 425 621.5 426C 619.606 427.101 618.939 428.434 619.5 430C 620.167 431 620.833 432 621.5 433C 620.22 435.132 620.22 437.298 621.5 439.5C 620.975 440.192 620.308 440.692 619.5 441C 620.167 442.667 620.833 444.333 621.5 446C 619.606 447.101 618.939 448.434 619.5 450C 621.731 452.197 621.731 454.53 619.5 457C 621.957 458.512 621.957 459.846 619.5 461C 620.167 462.667 620.833 464.333 621.5 466C 618.473 469.007 619.139 471.174 623.5 472.5C 617.536 473.307 611.536 473.64 605.5 473.5C 603.167 473.5 600.833 473.5 598.5 473.5C 597.432 472.566 596.099 472.232 594.5 472.5C 595.314 465.133 596.314 457.799 597.5 450.5C 600.043 434.909 602.043 419.242 603.5 403.5C 605.833 403.5 608.167 403.5 610.5 403.5z"
                        stroke="none" fill="#4CBCB0" fill-rule="nonzero" />
                </g>
                <g>
                    <path
                        d="M486.5 408.5C 487.5 408.5 488.5 408.5 489.5 408.5C 488.706 443.04 488.706 477.706 489.5 512.5C 485.833 512.5 482.167 512.5 478.5 512.5C 478.282 479.18 478.282 445.847 478.5 412.5C 481.408 411.713 484.074 410.38 486.5 408.5z"
                        stroke="none" fill="#01A0D1" fill-rule="nonzero" />
                </g>
                <g>
                    <path
                        d="M751.5 412.5C 751.835 443.68 752.835 474.68 754.5 505.5C 749.21 508.149 743.543 509.816 737.5 510.5C 735.365 510.853 734.032 510.02 733.5 508C 733.556 485.079 733.89 462.079 734.5 439C 733.787 436.174 733.12 433.34 732.5 430.5C 738.833 424.5 745.167 418.5 751.5 412.5z"
                        stroke="none" fill="#01A367" fill-rule="nonzero" />
                </g>
                <g>
                    <path
                        d="M672.5 421.5C 677.14 433.067 681.806 444.734 686.5 456.5C 687.7 457.292 689.033 457.292 690.5 456.5C 691.869 458.068 692.869 459.901 693.5 462C 692.832 478.669 692.499 495.502 692.5 512.5C 690.167 512.5 687.833 512.5 685.5 512.5C 681.154 512.666 676.821 512.499 672.5 512C 672.043 511.586 671.709 511.086 671.5 510.5C 671.518 481.325 671.852 451.659 672.5 421.5z"
                        stroke="none" fill="#00A279" fill-rule="nonzero" />
                </g>
                <g>
                    <path
                        d="M732.5 430.5C 733.12 433.34 733.787 436.174 734.5 439C 733.89 462.079 733.556 485.079 733.5 508C 734.032 510.02 735.365 510.853 737.5 510.5C 732.384 511.806 727.051 512.473 721.5 512.5C 717.574 512.953 714.408 511.62 712 508.5C 711.195 510.901 710.362 510.734 709.5 508C 711.599 506.318 712.932 504.652 713.5 503C 712.377 501.956 711.044 501.29 709.5 501C 710.5 500.667 711.5 500.333 712.5 500C 710.559 498.184 709.892 496.184 710.5 494C 711.257 492.488 712.257 491.154 713.5 490C 712.285 487.904 711.451 488.071 711 490.5C 709.144 488.263 709.644 486.429 712.5 485C 709.283 482.636 709.283 480.969 712.5 480C 710.473 478.604 710.14 476.938 711.5 475C 707.639 474.431 707.639 473.598 711.5 472.5C 708.838 469.441 709.171 466.941 712.5 465C 709.292 462.553 709.292 460.887 712.5 460C 710.473 458.604 710.14 456.938 711.5 455C 707.639 454.431 707.639 453.598 711.5 452.5C 710.628 450.55 709.961 448.55 709.5 446.5C 717.161 441.174 724.828 435.841 732.5 430.5z"
                        stroke="none" fill="#00A26D" fill-rule="nonzero" />
                </g>
                <g>
                    <path
                        d="M502.5 435.5C 505.833 437.833 509.167 440.167 512.5 442.5C 512.511 444.017 513.177 445.184 514.5 446C 514.509 468.014 514.176 490.18 513.5 512.5C 515.099 512.232 516.432 512.566 517.5 513.5C 513.5 513.5 509.5 513.5 505.5 513.5C 504.391 512.71 503.058 512.21 501.5 512C 501.925 486.238 502.258 460.738 502.5 435.5z"
                        stroke="none" fill="#00A0C4" fill-rule="nonzero" />
                </g>
                <g>
                    <path
                        d="M512.5 442.5C 517.045 445.266 521.378 448.266 525.5 451.5C 524.838 471.168 524.504 490.835 524.5 510.5C 525.624 511.859 526.958 512.859 528.5 513.5C 524.833 513.5 521.167 513.5 517.5 513.5C 516.432 512.566 515.099 512.232 513.5 512.5C 514.176 490.18 514.509 468.014 514.5 446C 513.177 445.184 512.511 444.017 512.5 442.5z"
                        stroke="none" fill="#00A0BE" fill-rule="nonzero" />
                </g>
                <g>
                    <path
                        d="M709.5 446.5C 709.961 448.55 710.628 450.55 711.5 452.5C 707.639 453.598 707.639 454.431 711.5 455C 710.14 456.938 710.473 458.604 712.5 460C 709.292 460.887 709.292 462.553 712.5 465C 709.171 466.941 708.838 469.441 711.5 472.5C 707.639 473.598 707.639 474.431 711.5 475C 710.14 476.938 710.473 478.604 712.5 480C 709.283 480.969 709.283 482.636 712.5 485C 709.644 486.429 709.144 488.263 711 490.5C 711.451 488.071 712.285 487.904 713.5 490C 712.257 491.154 711.257 492.488 710.5 494C 709.892 496.184 710.559 498.184 712.5 500C 711.5 500.333 710.5 500.667 709.5 501C 711.044 501.29 712.377 501.956 713.5 503C 712.932 504.652 711.599 506.318 709.5 508C 710.362 510.734 711.195 510.901 712 508.5C 714.408 511.62 717.574 512.953 721.5 512.5C 709.678 513.495 697.678 513.828 685.5 513.5C 685.5 513.167 685.5 512.833 685.5 512.5C 687.833 512.5 690.167 512.5 692.5 512.5C 692.499 495.502 692.832 478.669 693.5 462C 692.869 459.901 691.869 458.068 690.5 456.5C 694.639 453.928 698.973 451.595 703.5 449.5C 705.517 448.471 707.517 447.471 709.5 446.5z"
                        stroke="none" fill="#01A274" fill-rule="nonzero" />
                </g>
                <g>
                    <path
                        d="M581.5 447.5C 581.703 449.044 582.37 450.378 583.5 451.5C 583.014 470.47 582.68 489.47 582.5 508.5C 582.68 509.554 583.013 510.554 583.5 511.5C 585.291 512.17 586.958 512.837 588.5 513.5C 584.5 513.5 580.5 513.5 576.5 513.5C 575.391 512.71 574.058 512.21 572.5 512C 571.978 511.439 571.645 510.772 571.5 510C 572.052 495.839 572.052 482.339 571.5 469.5C 573.167 469.5 574.833 469.5 576.5 469.5C 577.387 461.874 579.053 454.541 581.5 447.5z"
                        stroke="none" fill="#02A19F" fill-rule="nonzero" />
                </g>
                <g>
                    <path
                        d="M525.5 451.5C 527.284 451.893 528.95 452.559 530.5 453.5C 531.833 454.167 533.167 454.833 534.5 455.5C 534.577 456.75 535.244 457.583 536.5 458C 535.953 476.033 535.953 494.2 536.5 512.5C 537.791 512.263 538.791 512.596 539.5 513.5C 535.833 513.5 532.167 513.5 528.5 513.5C 526.958 512.859 525.624 511.859 524.5 510.5C 524.504 490.835 524.838 471.168 525.5 451.5z"
                        stroke="none" fill="#00A0B8" fill-rule="nonzero" />
                </g>
                <g>
                    <path
                        d="M534.5 455.5C 538.714 457.774 543.047 459.774 547.5 461.5C 547.721 462.735 548.388 463.735 549.5 464.5C 549.013 480.282 549.013 496.282 549.5 512.5C 550.791 512.263 551.791 512.596 552.5 513.5C 548.167 513.5 543.833 513.5 539.5 513.5C 538.791 512.596 537.791 512.263 536.5 512.5C 535.953 494.2 535.953 476.033 536.5 458C 535.244 457.583 534.577 456.75 534.5 455.5z"
                        stroke="none" fill="#00A0B2" fill-rule="nonzero" />
                </g>
                <g>
                    <path
                        d="M547.5 461.5C 548.391 462.11 549.391 462.443 550.5 462.5C 553.402 463.784 556.402 464.784 559.5 465.5C 559.979 468.064 560.645 470.564 561.5 473C 561.476 486.159 561.143 499.326 560.5 512.5C 561.791 512.263 562.791 512.596 563.5 513.5C 559.833 513.5 556.167 513.5 552.5 513.5C 551.791 512.596 550.791 512.263 549.5 512.5C 549.013 496.282 549.013 480.282 549.5 464.5C 548.388 463.735 547.721 462.735 547.5 461.5z"
                        stroke="none" fill="#00A0AB" fill-rule="nonzero" />
                </g>
                <g>
                    <path
                        d="M559.5 465.5C 563.348 467.004 567.348 468.004 571.5 468.5C 571.5 468.833 571.5 469.167 571.5 469.5C 572.052 482.339 572.052 495.839 571.5 510C 571.645 510.772 571.978 511.439 572.5 512C 574.058 512.21 575.391 512.71 576.5 513.5C 572.167 513.5 567.833 513.5 563.5 513.5C 562.791 512.596 561.791 512.263 560.5 512.5C 561.143 499.326 561.476 486.159 561.5 473C 560.645 470.564 559.979 468.064 559.5 465.5z"
                        stroke="none" fill="#01A1A5" fill-rule="nonzero" />
                </g>
                <g>
                    <path
                        d="M648.5 469.5C 647.737 470.268 646.737 470.768 645.5 471C 647.032 471.7 648.032 472.866 648.5 474.5C 648.045 487.043 647.712 499.543 647.5 512C 651.025 512.179 654.359 512.679 657.5 513.5C 650.833 513.5 644.167 513.5 637.5 513.5C 633.86 513.07 630.36 512.07 627 510.5C 626.204 499.396 626.371 488.396 627.5 477.5C 626.96 476.252 626.293 475.085 625.5 474C 626.737 473.768 627.737 473.268 628.5 472.5C 635.222 471.859 641.889 470.859 648.5 469.5z"
                        stroke="none" fill="#00A186" fill-rule="nonzero" />
                </g>
                <g>
                    <path
                        d="M598.5 473.5C 600.833 473.5 603.167 473.5 605.5 473.5C 607.452 486.252 608.118 499.252 607.5 512.5C 610.385 512.194 613.052 512.527 615.5 513.5C 610.5 513.5 605.5 513.5 600.5 513.5C 599.432 512.566 598.099 512.232 596.5 512.5C 595.535 499.523 595.202 486.69 595.5 474C 596.448 473.517 597.448 473.351 598.5 473.5z"
                        stroke="none" fill="#01A192" fill-rule="nonzero" />
                </g>
                <g>
                    <path
                        d="M623.5 472.5C 625.167 472.5 626.833 472.5 628.5 472.5C 627.737 473.268 626.737 473.768 625.5 474C 626.293 475.085 626.96 476.252 627.5 477.5C 626.371 488.396 626.204 499.396 627 510.5C 630.36 512.07 633.86 513.07 637.5 513.5C 630.167 513.5 622.833 513.5 615.5 513.5C 613.052 512.527 610.385 512.194 607.5 512.5C 608.118 499.252 607.452 486.252 605.5 473.5C 611.536 473.64 617.536 473.307 623.5 472.5z"
                        stroke="none" fill="#00A18C" fill-rule="nonzero" />
                </g>
            </g>
        </g>
    </g>
</svg>