<?xml version="1.0" encoding="UTF-8"?>
<svg width="45px" height="52px" viewBox="0 0 45 52" version="1.1" xmlns="http://www.w3.org/2000/svg" xmlns:xlink="http://www.w3.org/1999/xlink">
    <title>esarj</title>
    <g id="Final" stroke="none" stroke-width="1" fill="none" fill-rule="evenodd">
        <g id="esarj" transform="translate(-0.000305, -0.000000)">
            <path d="M38.4100125,6.59008902 C34.1602749,2.3404529 28.5101039,0 22.5000508,0 C16.4899976,0 10.8398267,2.3404529 6.59008902,6.59008902 C2.34035135,10.8397251 0,16.4899976 0,22.5000508 C0,26.2435772 1.17459297,30.1193176 3.49128389,34.0195309 C5.30135734,37.0669533 7.81332295,40.1410825 10.9572149,43.1567207 C16.2652743,48.2481806 21.4990015,51.3947128 21.7192567,51.526216 L22.4999492,51.9923163 L23.2806418,51.526216 C23.500897,51.3947128 28.7346241,48.2481806 34.0426835,43.1567207 C37.186677,40.1410825 39.6985411,37.0668517 41.5086146,34.0195309 C43.8252039,30.1193176 44.9998985,26.2435772 44.9998985,22.5000508 C44.9998985,16.4900992 42.6596486,10.8398267 38.4100125,6.59008902 Z" id="Path" fill="#2689C9"></path>
            <circle id="Oval" fill="#FFFFFF" fill-rule="nonzero" cx="22.5000508" cy="22.4611583" r="16.4861388"></circle>
            <g id="Group-26-Copy" transform="translate(13.000305, 13.000000)" fill="#2689C9">
                <path d="M4.34748516,4.43727073 C5.68141007,4.43727073 6.76271186,5.50157928 6.76271186,6.81440714 C6.76271186,8.1271808 5.68141007,9.19148936 4.34748516,9.19148936 C3.01356025,9.19148936 1.93220339,8.1271808 1.93220339,6.81440714 C1.93220339,5.50157928 3.01356025,4.43727073 4.34748516,4.43727073 Z M15.2966102,4.43727073 C16.6304648,4.43727073 17.7118644,5.50157928 17.7118644,6.81440714 C17.7118644,8.1271808 16.6304648,9.19148936 15.2966102,9.19148936 C13.9627005,9.19148936 12.8813559,8.1271808 12.8813559,6.81440714 C12.8813559,5.50157928 13.9627005,4.43727073 15.2966102,4.43727073 Z M4.35679059,5.22325501 C3.46390995,5.22325501 2.74006875,5.93559391 2.74006875,6.81440714 C2.74006875,7.69316618 3.46390995,8.40550508 4.35679059,8.40550508 C5.24961616,8.40550508 5.9734023,7.69316618 5.9734023,6.81440714 C5.9734023,5.93559391 5.24961616,5.22325501 4.35679059,5.22325501 Z M15.3058604,5.22325501 C14.413045,5.22325501 13.6892671,5.93559391 13.6892671,6.81440714 C13.6892671,7.69316618 14.413045,8.40550508 15.3058604,8.40550508 C16.1987309,8.40550508 16.9225638,7.69316618 16.9225638,6.81440714 C16.9225638,5.93559391 16.1987309,5.22325501 15.3058604,5.22325501 Z M12.559322,6.65590609 L12.559322,7.28980191 L7.40677966,7.28980191 L7.40677966,6.65590609 L12.559322,6.65590609 Z M12.1229993,0.930008567 C12.6344208,1.27811132 13.0495676,1.72021279 13.5207779,2.11515019 C14.0209315,2.53441085 14.5782533,2.7375074 15.2094796,2.87416792 C16.2109467,3.09093601 17.60044,3.12750327 18.3479362,3.92511978 C18.8915045,4.5050348 19.1008454,5.56142233 18.9548039,6.32137346 C18.8611804,6.80822316 18.5540734,7.20222716 18.0387855,7.27129865 L18.0387855,6.52073641 C18.2220002,6.45660644 18.2902708,6.22830814 18.3133038,6.05815508 C18.3756089,5.59886809 18.1689746,5.04448426 17.9219633,4.66294387 C17.3464139,3.77357978 15.805687,3.75359407 14.8672984,3.52315444 C14.372337,3.40164791 13.8654448,3.25988115 13.4354398,2.97876347 C12.9975361,2.69242974 12.6427061,2.30473991 12.251918,1.96196302 C11.4824382,1.28722568 10.5399623,0.878012777 9.51927349,0.765236271 C8.47317655,0.649604663 7.26584845,0.858576125 6.25681424,1.12964604 C5.10289845,1.43964417 4.2325595,2.12981004 3.26837616,2.79274263 C2.85615685,3.07616635 2.44029203,3.29782105 1.94941799,3.41422134 C1.46163711,3.52996276 1.1086298,3.62709111 0.948724276,4.136562 C0.81185178,4.57273365 0.454149484,6.4922403 1.25003157,6.51151224 L1.25003157,7.28980191 C-0.484404779,7.28524473 -0.0885902867,4.2786582 0.50827985,3.35195817 C0.837259911,2.84116954 1.50019119,2.75957953 2.04469848,2.62901354 C2.3978715,2.5443488 2.68437579,2.27465153 2.97458084,2.06946857 C3.34437961,1.80806207 3.71412315,1.54660066 4.08392193,1.28519417 C5.34245294,0.451230019 6.8245755,0.130964507 8.31233203,0.0231295223 C9.69729611,-0.0772382741 10.9556614,0.135411877 12.1229993,0.930008567 Z M9.66101695,1.62028356 L9.66101695,5.70506236 L8.37288136,5.70506236 L8.37288136,1.68589937 C8.98744484,1.55494531 9.1480999,1.57232073 9.66101695,1.62028356 Z M7.40677966,1.90168745 L7.40677966,5.70506236 C7.31208161,5.70207882 7.21727829,5.69909528 7.1225276,5.69611174 C7.04256855,5.29317393 6.45179801,4.54947316 6.11864407,4.40130841 L6.11864407,2.22534833 C6.55091776,2.06333142 6.94981815,1.96551391 7.40677966,1.90168745 Z M2.86277503,3.80337491 C2.86277503,3.80337491 2.89830508,4.09891531 2.89830508,4.24674389 C2.44194126,4.42271362 1.778503,5.18783747 1.62796084,5.70506236 L1.61016949,5.70506236 L1.61016949,4.42411484 C2.00800084,4.09844823 2.86277503,3.80337491 2.86277503,3.80337491 Z M5.15254237,2.53558327 L5.15254237,3.80337491 C4.78629329,3.7026085 4.29697863,3.61246272 3.86440678,3.73338241 L3.86440678,3.29622717 C4.15480577,3.05252271 4.88009264,2.61697352 5.15254237,2.53558327 Z M0,0.950843727 C0.124051728,1.01058311 0.217604252,1.1915821 0.301152604,1.29697597 C0.443428148,1.47640997 0.650217079,1.64904438 0.84873229,1.77051985 C1.09040063,1.91838426 1.3851722,2.01476595 1.70660353,2.08017167 C1.88916614,2.10143393 2.07167468,2.12269618 2.25423729,2.14395844 C2.21351761,2.30892979 1.39236438,2.5171272 1.14988489,2.53558327 C0.870038472,2.15307854 0.590137973,1.77046588 0.31029155,1.38801512 L0,0.950843727 L0,0.950843727 Z" id="Combined-Shape"></path>
                <path d="M16.34,11.9071072 L16.34,16.5202975 C16.34,17.738876 15.8232771,18 15.1343133,18 C14.8760134,18 14.5745302,17.9129587 14.359229,17.8259173 L14.359229,17.477752 L14.9620723,17.477752 C15.2204338,17.477752 15.5649157,17.3036694 15.5649157,16.5202975 L15.5649157,11.9071072 L16.34,11.9071072 Z M6.62530242,16.8856845 L6.62530242,17.5662855 L6.12020581,17.5662855 L6.12020581,16.8856845 L6.62530242,16.8856845 Z M2.60404814,11.8201156 C3.55131189,11.8201156 4.06803477,12.3423014 4.06803477,14.2572106 L1.91508431,14.2572106 C1.91508431,15.4758513 2.25950471,15.8239544 3.03465053,15.8239544 L3.89585532,15.8239544 L3.89585532,16.1721197 C3.63743237,16.2591611 3.20682998,16.3462646 2.86240958,16.3462646 C1.65672287,16.3462646 1.14,15.8239544 1.14,14.2572106 C1.14,12.3423014 1.65672287,11.8201156 2.60404814,11.8201156 Z M6.43628027,11.8201156 C6.78076218,11.8201156 7.21136458,11.9070948 7.46972601,11.9941983 L7.46972601,12.3423014 L6.60852122,12.3423014 C6.09179835,12.3423014 5.74731644,12.5163841 5.74731644,12.9515907 C5.74731644,13.9961488 7.64196697,13.3867973 7.64196697,15.1276238 C7.64196697,16.0850784 7.1252441,16.3462646 6.09179835,16.3462646 C5.74731644,16.3462646 5.31671404,16.2591611 5.05835261,16.1721197 L5.05835261,15.8239544 L5.91955739,15.8239544 C6.52240075,15.8239544 6.86688266,15.6498718 6.86688266,15.1276238 C6.86688266,14.0831279 4.97223213,14.6924172 4.97223213,12.9515907 C4.97223213,12.0812396 5.488955,11.8201156 6.43628027,11.8201156 Z M9.83796536,11.8201156 C10.8714111,11.8201156 11.3881955,12.0812396 11.3881955,13.2998182 L11.3881955,16.2591611 L10.6991702,16.2591611 L10.6561099,15.9980371 L10.6130497,15.9980371 C10.2685678,16.2591611 10.0102063,16.3462646 9.57960393,16.3462646 C8.97682209,16.3462646 8.46009922,16.0850784 8.46009922,15.0406447 C8.46009922,14.0396073 8.97682209,13.7785455 9.57960393,13.7785455 C9.92414736,13.7785455 10.3547498,13.8220039 10.6130497,13.8655246 L10.6130497,13.2998182 C10.6130497,12.5163841 10.2685678,12.3423014 9.66578592,12.3423014 L8.80458113,12.3423014 L8.80458113,11.9941983 C9.06294257,11.9070948 9.49354496,11.8201156 9.83796536,11.8201156 Z M13.2828337,11.9071072 L13.325894,12.2553347 L13.3689542,12.2553347 C13.7134361,11.9941485 13.9717976,11.9071072 14.4024,11.9071072 L14.7468204,11.9071072 L14.7468204,12.5599172 L13.9717976,12.5599172 C13.7564964,12.5599172 13.4981349,12.6469585 13.3689542,12.7339998 L13.3689542,16.2591735 L12.5938084,16.2591735 L12.5938084,11.9071072 L13.2828337,11.9071072 Z M10.6130497,14.2572106 L10.0102063,14.2572106 C9.57960393,14.2572106 9.23518353,14.4313554 9.23518353,15.0406447 C9.23518353,15.6498718 9.57960393,15.8239544 10.0102063,15.8239544 C10.2255075,15.8239544 10.483869,15.7369131 10.6130497,15.6498718 L10.6130497,14.2572106 Z M2.60404814,12.2987807 C2.25950471,12.2987807 1.91508431,12.6470082 1.91508431,13.7350248 L3.29301197,13.7350248 C3.29301197,12.6470082 2.94853006,12.2987807 2.60404814,12.2987807 Z M16.34,10.3404255 L16.34,11.3849214 L15.5648542,11.3849214 L15.5648542,10.3404255 L16.34,10.3404255 Z" id="Combined-Shape"></path>
            </g>
        </g>
    </g>
</svg>