<?xml version="1.0" encoding="UTF-8"?>
<svg width="45px" height="52px" viewBox="0 0 45 52" version="1.1" xmlns="http://www.w3.org/2000/svg" xmlns:xlink="http://www.w3.org/1999/xlink">
    <title>sharz</title>
    <defs>
        <polygon id="path-1" points="-2.43363503e-16 0 20.3473499 0 20.3473499 23 -2.43363503e-16 23"></polygon>
    </defs>
    <g id="Final" stroke="none" stroke-width="1" fill="none" fill-rule="evenodd">
        <g id="sharz" transform="translate(-0.000203, -0.000000)">
            <path d="M38.4100125,6.59008902 C34.1602749,2.3404529 28.5101039,0 22.5000508,0 C16.4899976,0 10.8398267,2.3404529 6.59008902,6.59008902 C2.34035135,10.8397251 0,16.4899976 0,22.5000508 C0,26.2435772 1.17459297,30.1193176 3.49128389,34.0195309 C5.30135734,37.0669533 7.81332295,40.1410825 10.9572149,43.1567207 C16.2652743,48.2481806 21.4990015,51.3947128 21.7192567,51.526216 L22.4999492,51.9923163 L23.2806418,51.526216 C23.500897,51.3947128 28.7346241,48.2481806 34.0426835,43.1567207 C37.186677,40.1410825 39.6985411,37.0668517 41.5086146,34.0195309 C43.8252039,30.1193176 44.9998985,26.2435772 44.9998985,22.5000508 C44.9998985,16.4900992 42.6596486,10.8398267 38.4100125,6.59008902 Z" id="Path" fill="#FAD806"></path>
            <circle id="Oval" fill="#FFFFFF" fill-rule="nonzero" cx="22.5000508" cy="22.4611583" r="16.4861388"></circle>
            <g id="Group-34" transform="translate(12.000203, 11.000000)">
                <g id="Group-3">
                    <mask id="mask-2" fill="white">
                        <use xlink:href="#path-1"></use>
                    </mask>
                    <g id="Clip-2"></g>
                    <path d="M8.86779221,10.4444419 C8.85549221,10.4319419 8.84549221,10.4216419 8.83539221,10.4115419 C8.82499221,10.4314419 8.81119221,10.4506419 8.80609221,10.4718419 C8.80429221,10.4791419 8.82449221,10.4916419 8.83469221,10.5017419 C8.84589221,10.4822419 8.85719221,10.4628419 8.86779221,10.4444419 M12.8990365,15.5609114 C13.1792502,15.6053912 13.2222687,15.4169685 13.2613598,15.2103703 C13.3104063,14.9506155 13.1142202,15.0495305 13.0069024,15.0329077 C12.7201126,14.9884279 12.7022111,15.2020588 12.6694221,15.3985189 C12.6332537,15.6158033 12.7997561,15.5427358 12.8990365,15.5609114 M18.0580553,13.9706896 L18.0580553,13.9734296 C17.8615039,13.9734296 17.6648611,13.9702329 17.468401,13.974343 C17.2844537,13.978179 17.2659128,14.1212085 17.2396999,14.2572967 C17.2086462,14.4181364 17.3127673,14.4282745 17.4265699,14.4294619 C17.653353,14.4318366 17.6075945,14.5732221 17.5707868,14.7108629 C17.5162602,14.9148124 17.471689,15.12205 17.4056543,15.3222548 C17.3414463,15.5169796 17.4258392,15.5448365 17.597091,15.5636514 C17.9340233,15.6006418 17.9274473,15.3537651 18.0069081,15.1436049 C18.119706,14.8454897 18.0128448,14.3731086 18.5847803,14.4012396 C18.7380393,14.4088203 18.7200465,14.1825852 18.7229691,14.0599232 C18.7260745,13.9289498 18.5899864,13.977631 18.5116215,13.9731556 C18.3609199,13.9644789 18.209305,13.9706896 18.0580553,13.9706896 M13.5953694,13.76126 C11.9349115,13.5814227 11.8609307,13.6657243 12.3520353,15.1402255 C12.3548667,15.1489023 12.3690235,15.1539256 12.4071099,15.182696 C12.4155127,14.7115936 12.7050425,14.6461069 13.0745811,14.7035561 C13.3054742,14.7395419 13.3932465,14.6215379 13.4301456,14.408455 C13.4677753,14.1910793 13.5382854,13.979275 13.5953694,13.76126 M14.6709223,14.5579692 C14.6030609,14.4402393 14.5383048,14.3573078 14.5045111,14.2632334 C14.4295257,14.0548085 14.3128917,13.9535187 14.0712211,13.9646615 C13.805895,13.976809 13.8111923,14.1597516 13.7664385,14.3320081 C13.6871603,14.6373388 13.5899806,14.938468 13.5204752,15.2459906 C13.497459,15.3481024 13.3533334,15.5300404 13.6077908,15.5515039 C13.7621458,15.5645647 13.9501118,15.6158946 14.0261933,15.3929476 C14.0793499,15.2373139 14.0604437,15.0520879 14.217082,14.9225758 C14.2881401,15.0632307 14.3657743,15.1923774 14.4201182,15.3308402 C14.4920897,15.5138742 14.6144776,15.5686748 14.8056404,15.5614594 C15.0052058,15.5539699 15.0474023,15.4398021 15.0857627,15.2787797 C15.1696076,14.9278732 15.2580192,14.5768754 15.3702691,14.2344631 C15.4398659,14.0219281 15.3763885,13.9855771 15.1745397,13.9651182 C14.738327,13.9209124 14.8752371,14.3332868 14.6709223,14.5579692 M12.0636016,19.5498462 C12.1297276,18.8751597 11.9202067,18.2449529 11.7691397,17.6077134 C11.6836508,17.2468515 11.6979903,17.0663749 12.1279009,17.1388943 C12.4108546,17.1865708 12.4483017,17.0680189 12.3762389,16.8066201 C12.1596853,16.0217843 11.9731806,15.2285458 11.7691397,14.4400566 C11.7340673,14.3045165 11.734798,14.1305246 11.5101156,14.1383794 C11.2187591,14.1486088 10.9267633,14.1409368 10.6038052,14.1409368 C10.8298576,14.8335249 11.0340812,15.4592563 11.2519135,16.1267274 C11.0513433,16.1267274 10.9018291,16.1343082 10.7533195,16.1249921 C10.5109182,16.1098306 10.4639724,16.1878301 10.5712902,16.4105032 C11.0743596,17.4541804 11.5671082,18.502881 12.0636016,19.5498462 M9.54240912,3.12620101 C9.71338696,3.86034623 9.86874663,4.54836763 10.0357058,5.23355766 C10.1090472,5.5346869 10.1294148,5.77389147 9.69786012,5.69707931 C9.35800514,5.63652466 9.36686456,5.81919329 9.43271661,6.06296458 C9.61008785,6.71965831 9.77987834,7.37836139 9.94994283,8.0368818 C10.1264007,8.71987981 10.125122,8.72024515 10.8383517,8.69814224 C10.8686747,8.6972289 10.8991804,8.69512821 10.9292294,8.69795958 C11.1549165,8.71960581 11.1860615,8.60808661 11.1227668,8.42349996 C10.9805592,8.0092075 10.8618246,7.58532495 10.6948655,7.18144461 C10.5442552,6.81711202 10.6281001,6.68120656 11.0191937,6.73308445 C11.3098195,6.77171887 11.3573133,6.66704974 11.2308153,6.40811696 C10.7465607,5.41668297 10.2762803,4.41849023 9.79823654,3.42395088 C9.74946401,3.32256979 9.74160926,3.18657299 9.54240912,3.12620101 M2.38143347,13.2437598 C2.45714961,13.2437598 2.53295709,13.2463171 2.60849057,13.2433944 C3.34765919,13.2140761 3.88059492,12.8139405 3.97384725,12.2192628 C4.06874361,11.6138076 3.82113628,11.3031796 3.03748785,10.9813175 C2.85344921,10.9056926 2.46600904,10.9177488 2.55834803,10.6556193 C2.62511342,10.4661006 2.98935467,10.5895846 3.21586377,10.6716941 C3.28655653,10.6973591 3.36400803,10.7217453 3.41935662,10.7689652 C3.66714662,10.9806781 3.83711978,10.8982946 3.99211411,10.6488605 C4.07102696,10.5219059 4.18565153,10.4170541 4.28392725,10.3020642 C4.36439278,10.2078071 4.36658481,10.1339177 4.26894842,10.0332673 C3.65627784,9.40232981 2.02468163,9.48699672 1.48379982,10.1846996 C1.06411864,10.7261294 1.19554872,11.3498514 1.81004599,11.6622148 C2.06468606,11.7917268 2.3407897,11.8784944 2.60273651,11.994489 C2.68009668,12.0287394 2.7911592,12.0786993 2.75700017,12.1867477 C2.72850386,12.2768034 2.62337807,12.307035 2.52884705,12.3041123 C2.23529856,12.2952529 1.94430743,12.2271175 1.72126903,12.0452709 C1.41968313,11.7996729 1.22632838,11.8657076 1.04621711,12.1712209 C0.993243208,12.2610939 0.917801064,12.3409201 0.841080239,12.4128915 C0.676587137,12.5670638 0.701612739,12.6723723 0.887752074,12.796313 C1.34259696,13.0991776 1.83315357,13.2630313 2.38143347,13.2437598 M7.67590105,13.1902379 C8.10325431,13.1902379 8.4335192,13.1896899 8.76378408,13.1905119 C8.8897341,13.1906945 9.0166888,13.1793691 9.07057605,13.046021 C9.221095,12.6731943 9.54204378,12.7155734 9.8380583,12.741421 C10.1096866,12.7649853 10.5139322,12.5527244 10.5466299,13.0928755 C10.5527493,13.1946219 10.6872848,13.1869498 10.775605,13.1884112 C11.0027535,13.1919732 11.2317286,13.172245 11.456685,13.1948046 C11.7674044,13.2259496 11.8085048,13.0885828 11.7638423,12.8216126 C11.6167028,11.9417891 11.4934014,11.0577643 11.3426998,10.1784888 C11.3119201,9.99892556 11.4331208,9.66509864 11.1064179,9.68592286 C10.7245492,9.71021779 10.2596575,9.44909298 9.96601767,9.86311144 C9.20575083,10.9354676 8.47324962,12.0276434 7.67590105,13.1902379 M17.744596,10.6692281 C17.1498269,11.1834403 16.6589963,11.6275991 16.1453321,12.0435355 C15.8979074,12.243923 15.7710441,12.4792002 15.6713983,12.7786854 C15.5410643,13.1704183 15.6872905,13.2043034 16.015272,13.1958093 C16.7106002,13.1779077 17.4065677,13.1904205 18.1023525,13.1904205 C18.8000553,13.1904205 18.7921092,13.1885939 18.9428108,12.5066919 C18.9915834,12.2861195 18.9492956,12.2041926 18.7146577,12.2126867 C18.3590019,12.2257475 18.0025241,12.2161574 17.5058481,12.2161574 C18.059608,11.7376569 18.4891533,11.3211724 18.9657358,10.968074 C19.4015831,10.6451158 19.6243475,10.2429709 19.6567712,9.68418751 L17.2580581,9.68418751 C16.5126787,9.68418751 16.5239128,9.6865622 16.3691012,10.412396 C16.3216073,10.6353431 16.3860894,10.6758955 16.5816361,10.6714201 C16.9279759,10.663474 17.2746809,10.6692281 17.744596,10.6692281 M13.9433531,9.68455285 C13.6543713,9.68455285 13.4120614,9.68720154 13.1697514,9.68345684 C13.0228859,9.68117348 12.9177601,9.69980568 12.8710882,9.87927761 C12.6089588,10.8884305 12.3320331,11.8937473 12.0652456,12.9017128 C12.0371146,13.0079346 11.9766513,13.1283132 12.16617,13.1874978 C12.7340868,13.3651431 13.1724001,13.1411913 13.3451133,12.5898974 C13.3887711,12.4503386 13.342556,12.214148 13.5767372,12.2037359 C13.8044336,12.1935978 13.8159417,12.422573 13.8541195,12.5637758 C13.9732194,13.0040072 14.1593588,13.2526192 14.6944865,13.205034 C15.3872573,13.1434747 15.4036061,13.1845751 15.115629,12.5451436 C14.9712295,12.2244688 14.8876586,12.0162266 15.3184825,11.8139211 C15.7758848,11.5992854 15.953804,11.0471695 15.8510529,10.566203 C15.7454705,10.0723584 15.4070768,9.84420523 14.9371618,9.74136279 C14.5903654,9.66546398 14.243569,9.698253 13.9433531,9.68455285 M8.41269497,9.71259248 C8.33122476,9.69953168 8.28701895,9.68747555 8.24244781,9.68592286 C7.26389196,9.65313384 7.26389196,9.65340785 6.98194292,10.5825518 C6.88969527,10.8866951 6.51321522,11.035296 6.05307294,10.8972899 C5.69778245,10.7907941 5.97598678,10.5403554 6.01160716,10.3891971 C6.17911429,9.67971213 6.19226643,9.70893911 5.46935533,9.6735014 C5.09269261,9.65505187 4.94847573,9.77561316 4.86718819,10.135653 C4.69758037,10.8865124 4.47901735,11.6263204 4.27680318,12.3695077 C4.04545335,13.2200129 4.04353533,13.2123408 4.92774284,13.1951699 C5.15726597,13.1907859 5.29810349,13.1454841 5.3361899,12.890296 C5.36715223,12.6828757 5.44277704,12.4821229 5.49976966,12.2786301 C5.58562391,11.9722948 6.0401948,11.7919095 6.45777529,11.9554893 C6.76794662,12.0768726 6.50700449,12.3202785 6.47019676,12.4787436 C6.30259829,13.200376 6.28771079,13.1887765 7.06112978,13.1948959 C7.32545128,13.1969966 7.50821125,13.1762637 7.58639342,12.8582376 C7.8418555,11.8183965 8.12809725,10.786136 8.41269497,9.71259248 M16.8842267,14.440148 C17.1465389,13.9738863 17.1465389,13.9738863 16.6589963,13.9699589 C15.736885,13.9625608 15.7370677,13.9626522 15.4910131,14.8654919 C15.4471726,15.0260576 15.4026928,15.1864407 15.3558383,15.3461844 C15.3187566,15.4729564 15.3444215,15.556162 15.4943011,15.556162 C15.8427415,15.556162 16.1917299,15.5651127 16.539531,15.5495859 C16.7513353,15.5400871 16.7379091,15.3324842 16.751518,15.2013282 C16.7686888,15.035465 16.6050177,15.0985771 16.5130441,15.0874343 C16.4234451,15.0766568 16.3308321,15.0916356 16.2407765,15.0825022 C16.169901,15.0754695 16.0686113,15.12205 16.0413023,14.9989313 C16.3025185,14.8448503 16.7938057,15.2002321 16.8557304,14.6247346 C16.8652292,14.5632666 16.8747279,14.5017073 16.8842267,14.440148 M8.86964055,5.37430384 C9.66781113,5.26735136 9.66616712,5.2677167 9.48066712,4.46826744 C9.1561563,3.06966507 8.83301549,1.67060603 8.51288872,0.270907645 C8.49169916,0.178385984 8.35204899,0.0503352737 8.54759576,0.000284068947 C8.57718807,-0.00729667922 8.65774494,0.138655557 8.6972927,0.221861118 C9.48888721,1.88551567 10.277833,3.55035757 11.0676008,5.21483413 C11.358044,5.82695671 11.6492178,6.43880529 11.9335415,7.03695372 C11.8962771,7.07741482 11.8794716,7.11239586 11.8611134,7.11321787 C11.0753643,7.15130428 11.0543574,7.1587937 11.3372197,7.92380992 C11.672508,8.83094234 11.8678721,9.7663884 11.9835014,10.7832133 C12.2597877,10.3370452 12.3147709,9.88448366 12.4235501,9.45356837 C12.4863881,9.20486503 12.5889565,9.1153574 12.8541001,9.12951422 C13.3526941,9.1560925 13.8537541,9.13143224 14.3535355,9.14157034 C14.9360658,9.15335247 15.4968585,9.25181086 16.0173727,9.70236304 C16.0312555,9.10585863 16.3863634,9.12403416 16.7791923,9.13051889 C17.8696326,9.14878576 18.9608037,9.14522372 20.0514268,9.1310669 C20.3245164,9.12759619 20.3968531,9.20093765 20.3164789,9.46124045 C20.2007584,9.83616781 20.1040353,10.2169406 20,10.5953386 C19.8625474,11.095668 19.3285157,11.2236274 19.0561567,11.6268684 C19.2393734,11.7693499 19.485976,11.6096062 19.6939443,11.7321769 C19.4458803,12.6612295 19.1979989,13.5947576 18.9450942,14.5270069 C18.9228086,14.6091165 18.9066425,14.7528767 18.8132075,14.7428299 C18.2651102,14.6833713 18.3209155,15.1331014 18.2550635,15.4293899 C18.1809913,15.7623949 18.0578727,15.8850568 17.6941794,15.8795768 C16.1024963,15.8556472 14.5101739,15.8772021 12.9183081,15.8624059 C12.6099634,15.8595746 12.5206385,15.9309067 12.6126121,16.2348673 C12.7350914,16.6392956 12.8289831,17.0524921 12.9416897,17.4870607 C12.6684174,17.4995735 12.416152,17.5110817 12.1411444,17.5236858 C12.5584509,19.3548475 12.9705513,21.1630843 13.3825604,22.9711384 C13.3515067,22.9808198 13.3204531,22.9904099 13.2893081,23 C12.8283438,22.0328609 12.3664661,21.0661785 11.9065065,20.0984915 C11.2712764,18.7619964 10.6456363,17.4206607 9.99698,16.0905591 C9.84883575,15.7868725 9.88600881,15.6773626 10.2256811,15.7292405 C10.6509337,15.7942705 10.7399847,15.6590957 10.5961331,15.247178 C10.3877082,14.6502169 10.1267661,14.0659513 10.0379891,13.4315431 C10.0201789,13.3040404 9.95377887,13.2504272 9.82664151,13.2464998 C9.68224195,13.2419331 9.54268312,13.2528019 9.48377249,13.4053302 C9.36156717,13.7218949 9.11432518,13.7406185 8.82242071,13.7389744 C7.15593479,13.729567 5.48944888,13.7380611 3.82296296,13.7315764 C3.46356243,13.7302063 3.1100073,13.7232649 2.74804941,13.7671967 C1.74337194,13.8893107 0.875969947,13.5683619 0.13671,12.8690151 C-0.0437666073,12.6983112 -0.0413919151,12.5966562 0.119265145,12.4409311 C0.216536191,12.3464915 0.291521664,12.2295835 0.385048003,12.1307598 C0.688277929,11.810085 0.884646707,11.5138878 0.742347844,10.9955656 C0.549723773,10.2943921 1.12659131,9.51448835 1.92951127,9.23144331 C2.71041967,8.95616168 3.47863259,9.03881924 4.21907989,9.39091303 C4.38311632,9.4688212 4.51518574,9.55367078 4.55829554,9.28176852 C4.58478249,9.11508339 4.72087062,9.13654696 4.84161458,9.13663829 C6.17482158,9.1371863 7.50811991,9.14239235 8.84123558,9.13179757 C9.07642144,9.12997089 9.11724788,9.18687217 9.06016393,9.4100019 C8.98700515,9.69615231 8.83666886,9.97115993 8.87859131,10.2907387 C9.48039312,9.93964959 9.83413092,9.11937611 9.6706425,8.48852999 C9.40211961,7.45197685 9.13706743,6.41460169 8.86964055,5.37430384" id="Fill-1" fill="#212927" mask="url(#mask-2)"></path>
                </g>
                <path d="M8.41264931,9.71262902 C8.12805158,10.7861726 7.84180984,11.818433 7.58634776,12.8581828 C7.50825692,13.1763003 7.32549695,13.1969418 7.06108411,13.1949325 C6.28766513,13.1888131 6.30255262,13.2004125 6.47024242,12.4786888 C6.50695882,12.3203151 6.76790096,12.0769091 6.45772962,11.9555258 C6.04014913,11.791946 5.58557825,11.97224 5.49972399,12.2786666 C5.44273138,12.4820681 5.3671979,12.6828209 5.33623557,12.8903325 C5.29814916,13.1455206 5.15731164,13.1908224 4.92769717,13.1952065 C4.043581,13.212286 4.04549902,13.2199581 4.27684884,12.3695442 C4.47897168,11.6262656 4.6975347,10.886549 4.86714252,10.1356896 C4.9485214,9.77555836 5.09273828,9.65499706 5.46930966,9.6734466 C6.1923121,9.70897564 6.17906863,9.67974866 6.01165283,10.3891423 C5.97603244,10.5403919 5.69773678,10.7908306 6.05302727,10.8973264 C6.51326089,11.0352412 6.8896496,10.8866403 6.98189726,10.582497 C7.26393762,9.65344438 7.26393762,9.65317038 8.24249348,9.6859594 C8.28706462,9.68751208 8.3311791,9.69947688 8.41264931,9.71262902" id="Fill-4" fill="#F2D107"></path>
                <path d="M14.0370256,11.3442526 C14.3071925,11.313199 14.635448,11.3228804 14.634173,10.9485924 C14.6331646,10.663538 14.3583397,10.7066478 14.1493668,10.6783341 C13.7368097,10.6226202 13.7667673,10.9573605 13.7250276,11.1751015 C13.6725103,11.4491044 13.9278811,11.2846113 14.0370256,11.3442526 M13.9433166,9.68452545 C14.2436238,9.69831693 14.5903289,9.66543658 14.9371252,9.74133539 C15.4071316,9.84417783 15.7454339,10.072331 15.8510164,10.5661756 C15.9537675,11.0471421 15.7758483,11.599258 15.3185373,11.813985 C14.8877134,12.0161992 14.9711929,12.2245328 15.1156838,12.5451162 C15.4036609,13.1845477 15.3872208,13.1434473 14.69445,13.2050066 C14.1594136,13.2526831 13.9732742,13.0039798 13.8541743,12.5638397 C13.8159965,12.4226369 13.8044884,12.1935704 13.5767006,12.2037085 C13.3426108,12.2141206 13.3888259,12.4503112 13.3450768,12.5899614 C13.1723636,13.1411639 12.7340502,13.3651157 12.1662248,13.1875618 C11.9766148,13.1282858 12.0371694,13.0079072 12.065209,12.9017767 C12.3319966,11.8938112 12.6090136,10.8884944 12.871143,9.87925021 C12.9177235,9.69977828 13.0228493,9.68114608 13.1698062,9.68342944 C13.4120249,9.68717414 13.6544261,9.68452545 13.9433166,9.68452545" id="Fill-6" fill="#F3D207"></path>
                <path d="M17.7446051,10.6692281 C17.27469,10.6692281 16.927985,10.663474 16.5816453,10.6714201 C16.3860985,10.6758955 16.3215251,10.6353431 16.3691103,10.4123047 C16.523922,9.6865622 16.5126879,9.68418751 17.2580672,9.68418751 L19.6567803,9.68418751 C19.6243566,10.2429709 19.4015922,10.6451158 18.9657449,10.9679826 C18.4891624,11.3211724 18.0595258,11.7376569 17.5057659,12.2161574 C18.0025332,12.2161574 18.359011,12.2257475 18.7146669,12.2126867 C18.9492134,12.2041926 18.9915925,12.2861195 18.94282,12.5066919 C18.7921184,13.1885939 18.8000644,13.1904205 18.1023616,13.1904205 C17.4065768,13.1904205 16.710518,13.1779077 16.0152812,13.1958093 C15.6872996,13.2043034 15.5410734,13.1704183 15.6714075,12.7786854 C15.7710532,12.4792002 15.8979166,12.243923 16.1453412,12.0435355 C16.6590054,11.6275991 17.149836,11.1834403 17.7446051,10.6692281" id="Fill-8" fill="#F2D107"></path>
                <path d="M10.2883547,11.1127019 C10.1521753,11.3991263 9.94493771,11.5712001 9.88968045,11.8480344 C10.4702927,11.8837462 10.4702927,11.8837462 10.2883547,11.1127019 M7.67591932,13.1901922 C8.47326789,12.027689 9.20567776,10.9355133 9.96603594,9.86306577 C10.2596758,9.44904732 10.7245674,9.71026346 11.1064362,9.68596853 C11.433139,9.66505297 11.3119384,9.99897123 11.3427181,10.1784432 C11.4934197,11.0577186 11.616721,11.9417434 11.7638606,12.8216582 C11.8085231,13.0886284 11.7674226,13.2259953 11.4567033,13.1948503 C11.2317469,13.1722907 11.0027718,13.1920189 10.7756233,13.1884569 C10.687303,13.1869955 10.5527676,13.1946676 10.5465568,13.0929212 C10.5138592,12.55277 10.1097048,12.765031 9.83807656,12.7413754 C9.54206205,12.7156191 9.22111326,12.67324 9.07059431,13.0459753 C9.01670707,13.1794148 8.88975237,13.1907402 8.76380235,13.1904662 C8.43353746,13.1896442 8.10327258,13.1901922 7.67591932,13.1901922" id="Fill-10" fill="#F1D107"></path>
                <path d="M2.38150653,13.2439881 C1.8331353,13.263077 1.3425787,13.0991319 0.887733807,12.7963586 C0.701594473,12.6723266 0.67656887,12.5671095 0.841061972,12.4128458 C0.917782797,12.3408744 0.993316275,12.2610482 1.04619884,12.1712666 C1.22631011,11.865662 1.41966486,11.7997186 1.72125077,12.0453166 C1.9443805,12.2270718 2.23528029,12.2952072 2.52882878,12.304158 C2.6233598,12.3069894 2.72857693,12.2767577 2.7569819,12.1867934 C2.79114094,12.0786536 2.68007841,12.0286937 2.60271824,11.9944433 C2.34077143,11.8785401 2.06466779,11.7917725 1.81002772,11.6622604 C1.19553045,11.3498971 1.06410037,10.726175 1.48387288,10.1847452 C2.02466336,9.48695106 3.65625957,9.40228415 4.26893016,10.0333129 C4.36665787,10.133872 4.36437452,10.2078528 4.28390899,10.3020185 C4.1857246,10.4170997 4.0710087,10.5218602 3.99209585,10.6489062 C3.83710151,10.8982489 3.66712835,10.9807238 3.41933836,10.7689195 C3.36398976,10.721791 3.28653826,10.6973134 3.2158455,10.6717398 C2.9893364,10.5896302 2.62509515,10.4661463 2.55832977,10.6555736 C2.46608211,10.9177031 2.85343094,10.905647 3.03746958,10.9813631 C3.82111801,11.3031339 4.06881667,11.6137619 3.97382898,12.2192171 C3.88057665,12.8139862 3.34764092,13.2141218 2.60847231,13.2433488 C2.53293883,13.2462715 2.45713135,13.2437141 2.38150653,13.2439881" id="Fill-12" fill="#F3D307"></path>
                <path d="M9.54238172,3.12621014 C9.74167319,3.18658212 9.74943661,3.32248759 9.79820913,3.42396001 C10.2762529,4.41840803 10.7466247,5.4166921 11.2307879,6.40812609 C11.3572859,6.66705888 11.3097921,6.771728 11.0191663,6.73309359 C10.6280727,6.68121569 10.5443192,6.81712116 10.6948381,7.1813624 C10.8618886,7.58533408 10.9806232,8.00921664 11.1227394,8.42350909 C11.1860341,8.60809574 11.1549804,8.71961494 10.929202,8.69796871 C10.899153,8.69513735 10.8686473,8.69723803 10.8383243,8.69815138 C10.1250946,8.72025428 10.1264647,8.71988894 9.94991543,8.03689094 C9.77985094,7.37837052 9.61006045,6.71966744 9.43278054,6.06297371 C9.36683716,5.81911109 9.35797774,5.63644246 9.69783272,5.69699711 C10.1293874,5.77390061 10.1090198,5.53469603 10.0356784,5.2335668 C9.86881056,4.54837676 9.71345089,3.86035537 9.54238172,3.12621014" id="Fill-14" fill="#F1D007"></path>
                <path d="M12.0635742,19.5498006 C11.5671722,18.5028353 11.0744235,17.454226 10.5712628,16.4105488 C10.463945,16.1877844 10.5109821,16.1098763 10.7533834,16.1250378 C10.901893,16.1342625 11.0513159,16.1266818 11.2519774,16.1266818 C11.0341451,15.4593019 10.8298302,14.8334792 10.6038691,14.1408911 C10.9268273,14.1408911 11.2187317,14.1485632 11.5100882,14.1384251 C11.7347706,14.130479 11.7341313,14.3044708 11.7692037,14.4401023 C11.9731532,15.2285001 12.1596579,16.0217386 12.3762115,16.8066658 C12.4482743,17.0679732 12.4108272,17.1866165 12.1278735,17.13894 C11.6979629,17.0664205 11.6836234,17.2468058 11.7692037,17.6076677 C11.9202706,18.2449985 12.1297002,18.875114 12.0635742,19.5498006" id="Fill-16" fill="#F2D207"></path>
                <path d="M14.6709223,14.5579875 C14.8752371,14.3333051 14.738327,13.9208393 15.1745397,13.9651365 C15.3763885,13.985504 15.4398659,14.0219464 15.3702691,14.2344814 C15.2580192,14.5768937 15.1696076,14.9278915 15.0857627,15.2787979 C15.0474023,15.439729 15.0052058,15.5538969 14.8056404,15.5613863 C14.6144776,15.5686017 14.4920897,15.5138925 14.4201182,15.3308585 C14.3657743,15.1923957 14.2881401,15.0632489 14.217082,14.9225941 C14.0604437,15.0521062 14.0793499,15.2372408 14.0261933,15.3929658 C13.9501118,15.6159129 13.7621458,15.564583 13.6077908,15.5515222 C13.3532421,15.5300586 13.497459,15.3480293 13.5204752,15.2460089 C13.5899806,14.9384863 13.6871603,14.637357 13.7664385,14.3319351 C13.8111923,14.1597699 13.805895,13.9768273 14.0712211,13.9646798 C14.3128917,13.953537 14.4295257,14.0548268 14.5045111,14.2631603 C14.5383048,14.357326 14.6030609,14.4402576 14.6709223,14.5579875" id="Fill-18" fill="#EBCC08"></path>
                <path d="M16.8557669,14.6246981 C16.7938423,15.2002869 16.302555,14.8448138 16.0413389,14.9989861 C16.0686478,15.1220134 16.1699376,15.0755243 16.2407217,15.082557 C16.3307773,15.0915991 16.4233903,15.0766203 16.5130806,15.0873977 C16.6050542,15.0985405 16.7687253,15.0354285 16.7515545,15.2012916 C16.7379457,15.3324477 16.7512805,15.5400506 16.5395675,15.5495494 C16.1916751,15.5650762 15.8427781,15.5561254 15.4942463,15.5561254 C15.344458,15.5561254 15.3187018,15.4729199 15.3558748,15.3461478 C15.402638,15.1864041 15.4472091,15.0261124 15.4909583,14.8655467 C15.7371042,13.9626156 15.7369216,13.9625243 16.6590328,13.9699224 C17.1465754,13.9738498 17.1465754,13.9738498 16.8842632,14.4401114 C16.642958,14.4128025 16.4018354,14.3874115 16.1702116,14.5556494 L16.8557669,14.6246981 Z" id="Fill-20" fill="#E6C808"></path>
                <path d="M18.058101,13.9706439 C18.2093506,13.9706439 18.3608743,13.9645245 18.5116672,13.97311 C18.5899407,13.9775853 18.7261202,13.9289955 18.7230148,14.0599689 C18.7200008,14.1825395 18.7379936,14.408866 18.584826,14.4012852 C18.0128905,14.3730629 18.1197517,14.845444 18.0069538,15.1436505 C17.9274929,15.3538108 17.934069,15.6006875 17.5971367,15.5636057 C17.4258849,15.5447909 17.341492,15.5170252 17.4056087,15.3223005 C17.4716434,15.1220043 17.5163058,14.9148581 17.5708324,14.7108172 C17.6075488,14.5732677 17.6533073,14.4318822 17.4265242,14.4294162 C17.312813,14.4283202 17.2086005,14.4180907 17.2396542,14.2573423 C17.2659585,14.1211629 17.2844994,13.9781333 17.4683553,13.9742973 C17.6649068,13.9701873 17.8615496,13.973384 18.058101,13.973384 L18.058101,13.9706439 Z" id="Fill-22" fill="#E8CA08"></path>
                <path d="M12.8990274,15.5608748 C12.7998383,15.5427906 12.6332445,15.6158581 12.6694129,15.3985737 C12.702202,15.2020223 12.7201948,14.9883913 13.0068932,15.0329625 C13.1142111,15.049494 13.3103972,14.9505789 13.2613506,15.2103337 C13.2223509,15.4169319 13.1793324,15.6053546 12.8990274,15.5608748" id="Fill-24" fill="#DFC209"></path>
                <path d="M16.8557669,14.6246981 L16.1702116,14.5556494 C16.4018354,14.3874115 16.642958,14.4128025 16.8842632,14.4401114 C16.8747645,14.5016708 16.8652657,14.5632301 16.8557669,14.6246981" id="Fill-26" fill="#504E1C"></path>
                <path d="M8.86779221,10.4444419 C8.85719221,10.4628419 8.84589221,10.4822419 8.83469221,10.5017419 C8.82449221,10.4916419 8.80429221,10.4791419 8.80609221,10.4718419 C8.81119221,10.4506419 8.82499221,10.4314419 8.83539221,10.4115419 C8.84549221,10.4216419 8.85549221,10.4319419 8.86779221,10.4444419" id="Fill-28" fill="#FEFEFE"></path>
                <path d="M14.0370256,11.3442526 C13.9278811,11.2846113 13.6725103,11.4491044 13.7250276,11.1751015 C13.7667673,10.9573605 13.7368097,10.6226202 14.1493668,10.6783341 C14.3583397,10.7066478 14.6331646,10.663538 14.634173,10.9485924 C14.635448,11.3228804 14.3071925,11.313199 14.0370256,11.3442526" id="Fill-30" fill="#242A21"></path>
                <path d="M10.2883547,11.1127019 C10.4702927,11.8837462 10.4702927,11.8837462 9.88968045,11.8480344 C9.94493771,11.5712001 10.1521753,11.3991263 10.2883547,11.1127019" id="Fill-32" fill="#2E3320"></path>
            </g>
        </g>
    </g>
</svg>