<?xml version="1.0" encoding="UTF-8"?>
<svg width="45px" height="52px" viewBox="0 0 45 52" version="1.1" xmlns="http://www.w3.org/2000/svg"
    xmlns:xlink="http://www.w3.org/1999/xlink">
    <title>tesla</title>
    <g id="Final" stroke="none" stroke-width="1" fill="none" fill-rule="evenodd">
        <g id="tesla" transform="translate(-0.000305, -0.000000)">
            <path
                d="M38.4100125,6.59008902 C34.1602749,2.3404529 28.5101039,0 22.5000508,0 C16.4899976,0 10.8398267,2.3404529 6.59008902,6.59008902 C2.34035135,10.8397251 0,16.4899976 0,22.5000508 C0,26.2435772 1.17459297,30.1193176 3.49128389,34.0195309 C5.30135734,37.0669533 7.81332295,40.1410825 10.9572149,43.1567207 C16.2652743,48.2481806 21.4990015,51.3947128 21.7192567,51.526216 L22.4999492,51.9923163 L23.2806418,51.526216 C23.500897,51.3947128 28.7346241,48.2481806 34.0426835,43.1567207 C37.186677,40.1410825 39.6985411,37.0668517 41.5086146,34.0195309 C43.8252039,30.1193176 44.9998985,26.2435772 44.9998985,22.5000508 C44.9998985,16.4900992 42.6596486,10.8398267 38.4100125,6.59008902 Z"
                id="Path" fill="#E61035"></path>
            <circle id="Oval" fill="#FFFFFF" fill-rule="nonzero" cx="22.5000508" cy="22.4611583" r="16.4861388">
            </circle>
            <g transform="matrix(0.01 0 0 0.01 10 10)">
                <g>
                    <path
                        d="M1219.5 178.5C 1481.27 176.555 1733.94 223.388 1977.5 319C 1979.85 319.712 1981.85 320.879 1983.5 322.5C 1972.01 349.807 1959.18 376.474 1945 402.5C 1944.1 404.327 1942.77 405.66 1941 406.5C 1751 324.43 1552.5 278.93 1345.5 270C 1146.91 259.092 951.912 280.425 760.5 334C 691.854 354.214 624.687 378.381 559 406.5C 543.845 381.191 530.511 354.857 519 327.5C 518.009 325.553 517.675 323.553 518 321.5C 743.338 231.999 977.171 184.333 1219.5 178.5z"
                        stroke="none" fill="#E41836" fill-rule="nonzero" fill-opacity="0.9843137" />
                </g>
                <g>
                    <path
                        d="M1084.5 320.5C 1090.09 320.193 1095.59 320.527 1101 321.5C 1150.67 382.167 1200.33 442.833 1250 503.5C 1300.17 442.667 1350.33 381.833 1400.5 321C 1580.68 329.63 1753.02 370.796 1917.5 444.5C 1918.68 446.135 1918.68 447.802 1917.5 449.5C 1894.35 481.147 1867.02 508.647 1835.5 532C 1807.82 551.853 1778.48 569.187 1747.5 584C 1738.72 588.201 1729.72 591.701 1720.5 594.5C 1718.25 553.783 1698.58 525.283 1661.5 509C 1635.34 499.301 1608.34 493.301 1580.5 491C 1539.01 487.031 1497.51 485.531 1456 486.5C 1388.67 865.167 1321.33 1243.83 1254 1622.5C 1253.3 1628.06 1251.97 1633.39 1250 1638.5C 1180.79 1254.55 1111.79 870.549 1043 486.5C 1001.15 485.418 959.314 486.918 917.5 491C 892.171 493.332 867.505 498.665 843.5 507C 804.004 522.691 782.67 551.858 779.5 594.5C 713.917 569.468 656.75 531.802 608 481.5C 598.173 470.517 589.34 458.851 581.5 446.5C 581.833 445.833 582.167 445.167 582.5 444.5C 723.117 381.69 870.117 342.19 1023.5 326C 1043.97 323.989 1064.31 322.156 1084.5 320.5z"
                        stroke="none" fill="#E41836" fill-rule="nonzero" fill-opacity="0.99215686" />
                </g>
                <g>
                    <path
                        d="M778.5 2051.5C 858.833 2051.5 939.167 2051.5 1019.5 2051.5C 1013.93 2072.91 1000.59 2087.08 979.5 2094C 925.5 2094.67 871.5 2094.67 817.5 2094C 796.076 2087.1 783.076 2072.93 778.5 2051.5z"
                        stroke="none" fill="#E41836" fill-rule="nonzero" fill-opacity="0.9607843" />
                </g>
                <g>
                    <path
                        d="M414.5 2052.5C 502.5 2052.5 590.5 2052.5 678.5 2052.5C 673.074 2071.76 661.074 2085.26 642.5 2093C 617.533 2094.17 592.533 2095 567.5 2095.5C 567.667 2150.83 567.5 2206.17 567 2261.5C 553.246 2262.49 539.412 2262.82 525.5 2262.5C 525.5 2206.83 525.5 2151.17 525.5 2095.5C 501.53 2094.7 477.53 2094.2 453.5 2094C 432.724 2087.39 419.724 2073.56 414.5 2052.5z"
                        stroke="none" fill="#E41836" fill-rule="nonzero" fill-opacity="0.9764706" />
                </g>
                <g>
                    <path
                        d="M1135.5 2052.5C 1212.17 2052.5 1288.83 2052.5 1365.5 2052.5C 1364.52 2057.47 1362.68 2062.14 1360 2066.5C 1350.21 2079.96 1337.38 2089.13 1321.5 2094C 1273.5 2094.5 1225.5 2094.67 1177.5 2094.5C 1177.5 2107.83 1177.5 2121.17 1177.5 2134.5C 1239.83 2134.5 1302.17 2134.5 1364.5 2134.5C 1364.5 2177.17 1364.5 2219.83 1364.5 2262.5C 1284.5 2262.83 1204.5 2262.5 1124.5 2261.5C 1135.35 2240.15 1152.35 2226.32 1175.5 2220C 1224.83 2219.5 1274.17 2219.33 1323.5 2219.5C 1323.5 2205.17 1323.5 2190.83 1323.5 2176.5C 1260.83 2176.5 1198.17 2176.5 1135.5 2176.5C 1135.5 2135.17 1135.5 2093.83 1135.5 2052.5z"
                        stroke="none" fill="#E41836" fill-rule="nonzero" fill-opacity="0.96862745" />
                </g>
                <g>
                    <path
                        d="M1479.5 2052.5C 1493.5 2052.5 1507.5 2052.5 1521.5 2052.5C 1521.5 2108.5 1521.5 2164.5 1521.5 2220.5C 1582.17 2220.5 1642.83 2220.5 1703.5 2220.5C 1698.5 2240.03 1686.83 2253.86 1668.5 2262C 1605.5 2262.5 1542.5 2262.67 1479.5 2262.5C 1479.5 2192.5 1479.5 2122.5 1479.5 2052.5z"
                        stroke="none" fill="#E41836" fill-rule="nonzero" fill-opacity="0.9647059" />
                </g>
                <g>
                    <path
                        d="M1783.5 2053.5C 1864 2052.17 1944.67 2052.17 2025.5 2053.5C 2019.1 2073.4 2006.1 2086.9 1986.5 2094C 1931.83 2094.67 1877.17 2094.67 1822.5 2094C 1802.82 2086.82 1789.82 2073.32 1783.5 2053.5z"
                        stroke="none" fill="#E41836" fill-rule="nonzero" fill-opacity="0.98039216" />
                </g>
                <g>
                    <path
                        d="M777.5 2135.5C 858.001 2134.17 938.668 2134.17 1019.5 2135.5C 1013.37 2156.8 999.702 2170.63 978.5 2177C 925.167 2177.67 871.833 2177.67 818.5 2177C 797.935 2169.94 784.269 2156.1 777.5 2135.5z"
                        stroke="none" fill="#E41836" fill-rule="nonzero" fill-opacity="0.9607843" />
                </g>
                <g>
                    <path
                        d="M1790.5 2135.5C 1866.83 2135.5 1943.17 2135.5 2019.5 2135.5C 2019.5 2177.83 2019.5 2220.17 2019.5 2262.5C 2005.83 2262.5 1992.17 2262.5 1978.5 2262.5C 1978.5 2234.5 1978.5 2206.5 1978.5 2178.5C 1929.5 2178.5 1880.5 2178.5 1831.5 2178.5C 1831.5 2206.5 1831.5 2234.5 1831.5 2262.5C 1817.83 2262.5 1804.17 2262.5 1790.5 2262.5C 1790.5 2220.17 1790.5 2177.83 1790.5 2135.5z"
                        stroke="none" fill="#E41836" fill-rule="nonzero" fill-opacity="0.9764706" />
                </g>
                <g>
                    <path
                        d="M777.5 2220.5C 858.001 2219.17 938.668 2219.17 1019.5 2220.5C 1013.47 2241.36 1000.14 2255.19 979.5 2262C 952.667 2262.17 925.833 2262.33 899 2262.5C 870.787 2262.65 842.62 2262.15 814.5 2261C 796.025 2253.03 783.691 2239.53 777.5 2220.5z"
                        stroke="none" fill="#E41836" fill-rule="nonzero" fill-opacity="0.9607843" />
                </g>
            </g>
        </g>
    </g>
</svg>