<?xml version="1.0" encoding="UTF-8"?>
<svg width="45px" height="52px" viewBox="0 0 45 52" version="1.1" xmlns="http://www.w3.org/2000/svg"
    xmlns:xlink="http://www.w3.org/1999/xlink">
    <title>trugo</title>
    <g id="Final" stroke="none" stroke-width="1" fill="none" fill-rule="evenodd">
        <g id="trugo" transform="translate(-0.000305, -0.000000)">
            <path
                d="M38.4100125,6.59008902 C34.1602749,2.3404529 28.5101039,0 22.5000508,0 C16.4899976,0 10.8398267,2.3404529 6.59008902,6.59008902 C2.34035135,10.8397251 0,16.4899976 0,22.5000508 C0,26.2435772 1.17459297,30.1193176 3.49128389,34.0195309 C5.30135734,37.0669533 7.81332295,40.1410825 10.9572149,43.1567207 C16.2652743,48.2481806 21.4990015,51.3947128 21.7192567,51.526216 L22.4999492,51.9923163 L23.2806418,51.526216 C23.500897,51.3947128 28.7346241,48.2481806 34.0426835,43.1567207 C37.186677,40.1410825 39.6985411,37.0668517 41.5086146,34.0195309 C43.8252039,30.1193176 44.9998985,26.2435772 44.9998985,22.5000508 C44.9998985,16.4900992 42.6596486,10.8398267 38.4100125,6.59008902 Z"
                id="Path" fill="#19C0E8"></path>
            <circle id="Oval" fill="#FFFFFF" fill-rule="nonzero" cx="22.5000508" cy="22.4611583" r="16.4861388">
            </circle>
            <g transform="matrix(0.07 0 0 0.07 12 18)">
                <g>
                    <path
                        d="M146.5 -0.5C 148.5 -0.5 150.5 -0.5 152.5 -0.5C 157.307 2.405 162.307 5.07167 167.5 7.5C 167.631 8.37644 167.298 9.04311 166.5 9.5C 164.063 8.07438 161.563 6.74105 159 5.5C 158.333 6.16667 158.333 6.83333 159 7.5C 180.5 29 202 50.5 223.5 72C 222.906 72.4643 222.239 72.631 221.5 72.5C 197.84 48.0066 173.673 24.0066 149 0.5C 144.631 5.03674 140.131 9.37007 135.5 13.5C 134.475 13.1034 134.308 12.4368 135 11.5C 136.684 9.64868 138.517 7.98201 140.5 6.5C 139.873 5.58317 139.539 4.58317 139.5 3.5C 142.032 2.40425 144.365 1.07092 146.5 -0.5z"
                        stroke="none" fill="#19C8F1" fill-rule="nonzero" />
                </g>
                <g>
                    <path
                        d="M167.5 7.5C 211.262 29.3813 255.262 50.7146 299.5 71.5C 299.5 72.5 299.5 73.5 299.5 74.5C 250.073 97.7139 201.073 121.714 152.5 146.5C 150.5 146.5 148.5 146.5 146.5 146.5C 140.359 142.928 134.026 139.595 127.5 136.5C 127.369 135.624 127.702 134.957 128.5 134.5C 132.389 136.274 136.055 138.274 139.5 140.5C 141.519 141.933 143.686 143.267 146 144.5C 146.399 144.272 146.565 143.938 146.5 143.5C 147.458 143.953 148.292 144.619 149 145.5C 173.26 121.406 197.426 97.0731 221.5 72.5C 222.239 72.631 222.906 72.4643 223.5 72C 202 50.5 180.5 29 159 7.5C 158.333 6.83333 158.333 6.16667 159 5.5C 161.563 6.74105 164.063 8.07438 166.5 9.5C 167.298 9.04311 167.631 8.37644 167.5 7.5z"
                        stroke="none" fill="#19C1E8" fill-rule="nonzero" />
                </g>
                <g>
                    <path
                        d="M139.5 3.5C 139.539 4.58317 139.873 5.58317 140.5 6.5C 138.517 7.98201 136.684 9.64868 135 11.5C 134.308 12.4368 134.475 13.1034 135.5 13.5C 116.035 33.4653 96.3683 53.2986 76.5 73C 81.3357 76.6695 85.669 80.8362 89.5 85.5C 88.7611 85.369 88.0944 85.5357 87.5 86C 105.5 104 123.5 122 141.5 140C 140.906 140.464 140.239 140.631 139.5 140.5C 136.055 138.274 132.389 136.274 128.5 134.5C 127.702 134.957 127.369 135.624 127.5 136.5C 85.0714 115.285 42.4047 94.6187 -0.5 74.5C -0.5 73.5 -0.5 72.5 -0.5 71.5C -0.166667 71.5 0.166667 71.5 0.5 71.5C 0.369118 72.3764 0.702451 73.0431 1.5 73.5C 8.83333 69.8333 16.1667 66.1667 23.5 62.5C 24.2975 62.0431 24.6309 61.3764 24.5 60.5C 62.6447 41.2612 100.978 22.2612 139.5 3.5z"
                        stroke="none" fill="#18C1E8" fill-rule="nonzero" />
                </g>
                <g>
                    <path
                        d="M24.5 60.5C 24.6309 61.3764 24.2975 62.0431 23.5 62.5C 16.1667 66.1667 8.83333 69.8333 1.5 73.5C 0.702451 73.0431 0.369118 72.3764 0.5 71.5C 8.49552 67.8358 16.4955 64.1691 24.5 60.5z"
                        stroke="none" fill="#19C8F1" fill-rule="nonzero" />
                </g>
                <g>
                    <path
                        d="M89.5 85.5C 108.5 104.833 127.5 124.167 146.5 143.5C 146.565 143.938 146.399 144.272 146 144.5C 143.686 143.267 141.519 141.933 139.5 140.5C 140.239 140.631 140.906 140.464 141.5 140C 123.5 122 105.5 104 87.5 86C 88.0944 85.5357 88.7611 85.369 89.5 85.5z"
                        stroke="none" fill="#19CAF2" fill-rule="nonzero" fill-opacity="0.6509804" />
                </g>
            </g>
        </g>
    </g>
</svg>