<?xml version="1.0" encoding="UTF-8"?>
<svg width="45px" height="52px" viewBox="0 0 45 52" version="1.1" xmlns="http://www.w3.org/2000/svg"
    xmlns:xlink="http://www.w3.org/1999/xlink">
    <title>trugo</title>
    <g id="Final" stroke="none" stroke-width="1" fill="none" fill-rule="evenodd">
        <g id="trugo" transform="translate(-0.000305, -0.000000)">
            <path
                d="M38.4100125,6.59008902 C34.1602749,2.3404529 28.5101039,0 22.5000508,0 C16.4899976,0 10.8398267,2.3404529 6.59008902,6.59008902 C2.34035135,10.8397251 0,16.4899976 0,22.5000508 C0,26.2435772 1.17459297,30.1193176 3.49128389,34.0195309 C5.30135734,37.0669533 7.81332295,40.1410825 10.9572149,43.1567207 C16.2652743,48.2481806 21.4990015,51.3947128 21.7192567,51.526216 L22.4999492,51.9923163 L23.2806418,51.526216 C23.500897,51.3947128 28.7346241,48.2481806 34.0426835,43.1567207 C37.186677,40.1410825 39.6985411,37.0668517 41.5086146,34.0195309 C43.8252039,30.1193176 44.9998985,26.2435772 44.9998985,22.5000508 C44.9998985,16.4900992 42.6596486,10.8398267 38.4100125,6.59008902 Z"
                id="Path" fill="#FD8D5A"></path>
            <circle id="Oval" fill="#FFFFFF" fill-rule="nonzero" cx="22.5000508" cy="22.4611583" r="16.4861388">
            </circle>
            <g transform="matrix(0.023 0 0 0.025 8.3 16)">
                <g>
                    <path
                        d="M-0.5 -0.5C 399.5 -0.5 799.5 -0.5 1199.5 -0.5C 1199.5 199.5 1199.5 399.5 1199.5 599.5C 799.5 599.5 399.5 599.5 -0.5 599.5C -0.5 399.5 -0.5 199.5 -0.5 -0.5z"
                        stroke="none" fill="#FFFFFF" fill-rule="nonzero" />
                </g>
                <g>
                    <path
                        d="M473.5 85.5C 557.501 85.3333 641.501 85.5 725.5 86C 764.529 89.7088 791.695 109.542 807 145.5C 810.022 154.608 812.022 163.942 813 173.5C 813.667 257.5 813.667 341.5 813 425.5C 808.468 469.029 785.302 497.195 743.5 510C 737.536 511.216 731.536 512.216 725.5 513C 641.5 513.667 557.5 513.667 473.5 513C 434.463 509.281 407.297 489.448 392 453.5C 388.978 444.392 386.978 435.058 386 425.5C 385.333 341.5 385.333 257.5 386 173.5C 393.011 121.989 422.178 92.6556 473.5 85.5z"
                        stroke="none" fill="#FFFFFF" fill-rule="nonzero" />
                </g>
                <g>
                    <path
                        d="M616.5 117.5C 616.5 117.833 616.5 118.167 616.5 118.5C 610.108 118.249 603.775 118.582 597.5 119.5C 603.412 117.544 609.745 116.877 616.5 117.5z"
                        stroke="none" fill="#FD8D5A" fill-rule="nonzero" />
                </g>
                <g>
                    <path
                        d="M616.5 118.5C 616.5 118.167 616.5 117.833 616.5 117.5C 620.649 116.92 624.316 117.586 627.5 119.5C 623.821 119.276 620.154 118.942 616.5 118.5z"
                        stroke="none" fill="#FECAB2" fill-rule="nonzero" />
                </g>
                <g>
                    <path
                        d="M627.5 119.5C 630.518 119.335 633.518 119.502 636.5 120C 637.756 120.417 638.423 121.25 638.5 122.5C 634.634 121.873 630.968 120.873 627.5 119.5z"
                        stroke="none" fill="#FEC1A5" fill-rule="nonzero" />
                </g>
                <g>
                    <path
                        d="M642.5 122.5C 644.483 122.157 645.817 122.824 646.5 124.5C 644.517 124.843 643.183 124.176 642.5 122.5z"
                        stroke="none" fill="#FEC3A8" fill-rule="nonzero" />
                </g>
                <g>
                    <path
                        d="M543.5 126.5C 543.336 129.187 543.503 131.854 544 134.5C 545.043 136.833 545.876 139.166 546.5 141.5C 549.167 141.5 551.833 141.5 554.5 141.5C 551.997 142.371 549.33 143.037 546.5 143.5C 542.308 143.892 538.641 145.226 535.5 147.5C 532.145 147.69 529.145 148.69 526.5 150.5C 524.847 150.66 523.514 151.326 522.5 152.5C 518.835 153.997 515.502 155.997 512.5 158.5C 509.626 159.097 507.292 160.431 505.5 162.5C 500.514 166.147 495.514 169.814 490.5 173.5C 488.5 174.167 487.167 175.5 486.5 177.5C 482.796 181.204 479.129 184.871 475.5 188.5C 474.167 188.5 473.5 189.167 473.5 190.5C 471.208 194.456 468.541 198.123 465.5 201.5C 461.768 205.288 458.768 209.621 456.5 214.5C 454.5 218.5 452.5 222.5 450.5 226.5C 448.706 228.428 447.706 230.762 447.5 233.5C 444.618 240.253 442.618 247.253 441.5 254.5C 440.833 254.5 440.167 254.5 439.5 254.5C 438.693 258.021 438.026 261.688 437.5 265.5C 435.446 265.635 433.779 264.968 432.5 263.5C 428.391 262.126 425.057 259.792 422.5 256.5C 422.5 255.167 422.5 253.833 422.5 252.5C 422.689 248.002 423.689 243.669 425.5 239.5C 427.575 233.689 429.908 228.023 432.5 222.5C 434.545 221.077 435.545 219.077 435.5 216.5C 437.254 214.411 438.587 212.078 439.5 209.5C 440.5 209.5 441.5 209.5 442.5 209.5C 444.555 205.74 446.222 201.74 447.5 197.5C 449.279 196.33 450.279 194.664 450.5 192.5C 451.833 192.5 452.5 191.833 452.5 190.5C 459.699 181.448 467.365 172.782 475.5 164.5C 477.48 163.516 479.147 162.183 480.5 160.5C 484.092 157.915 487.425 154.915 490.5 151.5C 494.343 151.065 496.676 149.065 497.5 145.5C 502.682 143.735 507.682 141.735 512.5 139.5C 514.919 138.636 516.919 137.303 518.5 135.5C 523.118 134.385 527.452 132.718 531.5 130.5C 535.105 128.584 539.105 127.25 543.5 126.5z"
                        stroke="none" fill="#FC550A" fill-rule="nonzero" />
                </g>
                <g>
                    <path
                        d="M655.5 126.5C 658.806 126.819 661.473 128.153 663.5 130.5C 661.518 130.005 659.518 129.505 657.5 129C 656.244 128.583 655.577 127.75 655.5 126.5z"
                        stroke="none" fill="#FF996A" fill-rule="nonzero" />
                </g>
                <g>
                    <path
                        d="M593.5 128.5C 593.843 130.483 593.176 131.817 591.5 132.5C 591.66 130.847 592.326 129.514 593.5 128.5z"
                        stroke="none" fill="#FEAE89" fill-rule="nonzero" />
                </g>
                <g>
                    <path
                        d="M531.5 130.5C 527.452 132.718 523.118 134.385 518.5 135.5C 522.286 132.678 526.619 131.011 531.5 130.5z"
                        stroke="none" fill="#FE8C57" fill-rule="nonzero" />
                </g>
                <g>
                    <path
                        d="M543.5 126.5C 545.324 131.216 546.324 136.216 546.5 141.5C 545.876 139.166 545.043 136.833 544 134.5C 543.503 131.854 543.336 129.187 543.5 126.5z"
                        stroke="none" fill="#FEA379" fill-rule="nonzero" />
                </g>
                <g>
                    <path
                        d="M518.5 135.5C 516.919 137.303 514.919 138.636 512.5 139.5C 512.5 138.5 512.5 137.5 512.5 136.5C 514.565 136.483 516.565 136.15 518.5 135.5z"
                        stroke="none" fill="#FF8E5A" fill-rule="nonzero" />
                </g>
                <g>
                    <path
                        d="M591.5 135.5C 597.167 136.167 602.833 136.833 608.5 137.5C 602.167 137.5 595.833 137.5 589.5 137.5C 589.975 140.082 589.308 142.082 587.5 143.5C 588.15 141.565 588.483 139.565 588.5 137.5C 581.5 137.5 574.5 137.5 567.5 137.5C 575.355 136.74 583.355 136.073 591.5 135.5z"
                        stroke="none" fill="#FEA57B" fill-rule="nonzero" />
                </g>
                <g>
                    <path
                        d="M567.5 137.5C 566.082 139.308 564.082 139.975 561.5 139.5C 563.102 137.926 565.102 137.259 567.5 137.5z"
                        stroke="none" fill="#FDA379" fill-rule="nonzero" />
                </g>
                <g>
                    <path
                        d="M616.5 118.5C 620.154 118.942 623.821 119.276 627.5 119.5C 630.968 120.873 634.634 121.873 638.5 122.5C 639.833 122.5 641.167 122.5 642.5 122.5C 643.183 124.176 644.517 124.843 646.5 124.5C 649.436 125.406 652.436 126.072 655.5 126.5C 655.577 127.75 656.244 128.583 657.5 129C 659.518 129.505 661.518 130.005 663.5 130.5C 664.873 130.343 666.207 130.51 667.5 131C 676.994 135.58 686.327 140.413 695.5 145.5C 696.579 147.543 698.246 148.876 700.5 149.5C 701.923 151.545 703.923 152.545 706.5 152.5C 707.167 154.5 708.5 155.833 710.5 156.5C 710.281 157.675 710.614 158.675 711.5 159.5C 714.024 161.187 716.69 162.52 719.5 163.5C 727.181 170.516 734.181 178.182 740.5 186.5C 741.122 188.122 742.122 189.455 743.5 190.5C 744.833 190.5 745.5 191.167 745.5 192.5C 745.427 194.027 746.094 195.027 747.5 195.5C 749.728 198.271 751.728 201.271 753.5 204.5C 752.012 206.577 750.012 207.577 747.5 207.5C 745.409 208.865 743.076 209.532 740.5 209.5C 740.5 210.5 740.5 211.5 740.5 212.5C 736.5 213.833 732.5 215.167 728.5 216.5C 727.539 218.265 727.205 220.265 727.5 222.5C 728.5 222.5 729.5 222.5 730.5 222.5C 733.568 231.038 736.235 239.704 738.5 248.5C 738.157 250.483 738.824 251.817 740.5 252.5C 740.5 253.833 740.5 255.167 740.5 256.5C 740.077 258.781 740.744 260.448 742.5 261.5C 742.5 265.5 742.5 269.5 742.5 273.5C 733.983 273.174 725.65 273.507 717.5 274.5C 711.355 275.49 705.022 275.823 698.5 275.5C 688.161 275.334 677.828 275.5 667.5 276C 665.942 276.21 664.609 276.71 663.5 277.5C 662.833 277.5 662.167 277.5 661.5 277.5C 655.132 277.17 648.798 277.504 642.5 278.5C 641.757 279.182 641.091 279.849 640.5 280.5C 639.833 280.5 639.167 280.5 638.5 280.5C 623.958 282.178 609.624 285.012 595.5 289C 593.934 289.608 592.6 290.442 591.5 291.5C 584.655 293.418 578.989 297.084 574.5 302.5C 573.85 302.804 573.183 303.137 572.5 303.5C 571.167 311.5 571.167 319.5 572.5 327.5C 573.182 328.243 573.849 328.909 574.5 329.5C 574.756 332.598 575.422 335.598 576.5 338.5C 576.875 340.698 577.542 342.698 578.5 344.5C 584.238 354.279 590.905 363.612 598.5 372.5C 602.548 375.891 606.548 379.224 610.5 382.5C 610.96 385.957 612.96 387.623 616.5 387.5C 618.498 389.827 620.832 391.827 623.5 393.5C 623.5 394.833 624.167 395.5 625.5 395.5C 626.923 397.545 628.923 398.545 631.5 398.5C 637.903 403.212 644.903 407.212 652.5 410.5C 654.428 412.294 656.762 413.294 659.5 413.5C 661.282 414.72 663.282 415.386 665.5 415.5C 667.833 416.833 670.167 418.167 672.5 419.5C 670.528 421.239 668.195 422.572 665.5 423.5C 663.878 424.122 662.545 425.122 661.5 426.5C 659.847 426.66 658.514 427.326 657.5 428.5C 654.088 429.075 651.088 430.408 648.5 432.5C 646.517 432.157 645.183 432.824 644.5 434.5C 641.833 435.167 639.167 435.833 636.5 436.5C 634.219 436.077 632.552 436.744 631.5 438.5C 630.167 438.5 628.833 438.5 627.5 438.5C 625.517 438.157 624.183 438.824 623.5 440.5C 621.167 440.5 618.833 440.5 616.5 440.5C 613.833 441.167 611.167 441.833 608.5 442.5C 604.587 442.813 600.921 442.147 597.5 440.5C 596.833 437.833 596.167 435.167 595.5 432.5C 594.572 429.805 593.239 427.472 591.5 425.5C 591.386 423.282 590.72 421.282 589.5 419.5C 587.9 415.201 586.4 410.867 585 406.5C 584.186 403.823 582.686 401.823 580.5 400.5C 580.5 399.833 580.5 399.167 580.5 398.5C 579.903 395.626 578.569 393.292 576.5 391.5C 576.5 390.833 576.5 390.167 576.5 389.5C 575.971 387.216 574.971 385.216 573.5 383.5C 572.227 381.287 571.227 378.954 570.5 376.5C 570.369 372.715 569.702 369.048 568.5 365.5C 567.5 365.5 566.5 365.5 565.5 365.5C 564.636 363.081 563.303 361.081 561.5 359.5C 558.211 350.255 553.878 341.589 548.5 333.5C 547.878 331.878 546.878 330.545 545.5 329.5C 542.833 328.167 540.833 326.167 539.5 323.5C 539.5 322.167 538.833 321.5 537.5 321.5C 537.5 320.167 536.833 319.5 535.5 319.5C 530.836 314.491 525.502 310.158 519.5 306.5C 516.36 304.594 513.027 303.26 509.5 302.5C 508.455 301.122 507.122 300.122 505.5 299.5C 501.201 298.653 496.867 297.987 492.5 297.5C 491.817 295.824 490.483 295.157 488.5 295.5C 480.833 295.5 473.167 295.5 465.5 295.5C 461.988 294.945 458.988 295.612 456.5 297.5C 453.5 297.5 450.5 297.5 447.5 297.5C 445.517 297.157 444.183 297.824 443.5 299.5C 442.167 299.5 440.833 299.5 439.5 299.5C 437.532 291.567 436.865 283.234 437.5 274.5C 437.5 272.833 437.5 271.167 437.5 269.5C 438.817 269.179 440.151 268.846 441.5 268.5C 443.972 269.992 446.639 270.658 449.5 270.5C 465.134 274.224 481.134 275.557 497.5 274.5C 503.434 273.805 509.1 272.138 514.5 269.5C 515.853 268.476 516.52 267.143 516.5 265.5C 524.614 260.055 530.948 253.055 535.5 244.5C 536.5 244.5 537.5 244.5 538.5 244.5C 538.928 241.436 539.594 238.436 540.5 235.5C 541.707 231.213 542.707 226.88 543.5 222.5C 545.976 219.712 546.976 216.378 546.5 212.5C 546.5 211.5 546.5 210.5 546.5 209.5C 548.176 208.817 548.843 207.483 548.5 205.5C 548.5 199.167 548.5 192.833 548.5 186.5C 550.43 182.627 551.097 178.294 550.5 173.5C 551.069 169.671 550.402 166.337 548.5 163.5C 548.5 161.167 548.5 158.833 548.5 156.5C 548.542 152.031 547.875 147.698 546.5 143.5C 549.33 143.037 551.997 142.371 554.5 141.5C 556.483 141.843 557.817 141.176 558.5 139.5C 559.5 139.5 560.5 139.5 561.5 139.5C 564.082 139.975 566.082 139.308 567.5 137.5C 574.5 137.5 581.5 137.5 588.5 137.5C 588.483 139.565 588.15 141.565 587.5 143.5C 586.691 145.028 586.024 146.694 585.5 148.5C 583.144 150.557 582.144 153.224 582.5 156.5C 581.167 156.5 580.5 157.167 580.5 158.5C 579.326 159.514 578.66 160.847 578.5 162.5C 578.5 163.5 578.5 164.5 578.5 165.5C 577.624 165.369 576.957 165.702 576.5 166.5C 575.675 168.801 575.008 171.135 574.5 173.5C 572.595 177.556 571.261 181.89 570.5 186.5C 568.185 190.413 567.185 194.746 567.5 199.5C 565.631 201.635 564.964 204.302 565.5 207.5C 563.744 208.552 563.077 210.219 563.5 212.5C 562.507 221.318 562.173 230.318 562.5 239.5C 563.5 239.5 564.5 239.5 565.5 239.5C 566.806 247.474 571.139 253.14 578.5 256.5C 579.923 258.545 581.923 259.545 584.5 259.5C 585.5 259.5 586.5 259.5 587.5 259.5C 590.938 260.823 594.771 261.49 599 261.5C 603.015 261.499 606.849 261.165 610.5 260.5C 614.36 260.192 618.026 259.525 621.5 258.5C 622.833 258.167 624.167 257.833 625.5 257.5C 629.658 257.88 633.325 256.88 636.5 254.5C 637.833 254.5 639.167 254.5 640.5 254.5C 646.23 253.47 651.897 252.137 657.5 250.5C 662.644 247.821 667.644 245.155 672.5 242.5C 683.868 237.706 695.201 232.706 706.5 227.5C 713.371 225.251 720.038 222.585 726.5 219.5C 726.737 218.209 726.404 217.209 725.5 216.5C 723.117 214.083 721.45 211.083 720.5 207.5C 719.735 206.388 718.735 205.721 717.5 205.5C 717.762 204.022 717.429 202.689 716.5 201.5C 714.646 199.535 712.979 197.535 711.5 195.5C 706.742 189.903 701.742 184.403 696.5 179C 695.552 178.517 694.552 178.351 693.5 178.5C 693.024 176.007 691.69 174.007 689.5 172.5C 684.942 169.351 680.275 166.351 675.5 163.5C 674.614 162.675 674.281 161.675 674.5 160.5C 664.088 155.295 653.421 150.628 642.5 146.5C 637.206 143.891 631.539 142.225 625.5 141.5C 624.817 139.824 623.483 139.157 621.5 139.5C 620.833 139.5 620.167 139.5 619.5 139.5C 618.5 139.5 617.5 139.5 616.5 139.5C 614.095 138.232 611.428 137.565 608.5 137.5C 602.833 136.833 597.167 136.167 591.5 135.5C 591.5 134.5 591.5 133.5 591.5 132.5C 593.176 131.817 593.843 130.483 593.5 128.5C 595.102 125.629 596.435 122.629 597.5 119.5C 603.775 118.582 610.108 118.249 616.5 118.5z"
                        stroke="none" fill="#FC5204" fill-rule="nonzero" />
                </g>
                <g>
                    <path
                        d="M608.5 137.5C 610.635 139.369 613.302 140.036 616.5 139.5C 617.5 139.5 618.5 139.5 619.5 139.5C 619.5 140.5 619.5 141.5 619.5 142.5C 627.212 143.459 634.879 144.793 642.5 146.5C 653.421 150.628 664.088 155.295 674.5 160.5C 674.281 161.675 674.614 162.675 675.5 163.5C 680.275 166.351 684.942 169.351 689.5 172.5C 691.69 174.007 693.024 176.007 693.5 178.5C 694.552 178.351 695.552 178.517 696.5 179C 701.742 184.403 706.742 189.903 711.5 195.5C 711.98 199.8 713.98 203.133 717.5 205.5C 718.735 205.721 719.735 206.388 720.5 207.5C 721.45 211.083 723.117 214.083 725.5 216.5C 719.365 220.404 713.032 224.071 706.5 227.5C 695.201 232.706 683.868 237.706 672.5 242.5C 661.472 245.847 650.805 249.847 640.5 254.5C 639.167 254.5 637.833 254.5 636.5 254.5C 632.634 255.127 628.968 256.127 625.5 257.5C 624.167 257.833 622.833 258.167 621.5 258.5C 617.351 257.92 613.684 258.586 610.5 260.5C 602.778 260.767 595.111 260.434 587.5 259.5C 586.5 259.5 585.5 259.5 584.5 259.5C 583.077 257.455 581.077 256.455 578.5 256.5C 571.139 253.14 566.806 247.474 565.5 239.5C 563.623 230.694 562.956 221.694 563.5 212.5C 565.256 211.448 565.923 209.781 565.5 207.5C 564.964 204.302 565.631 201.635 567.5 199.5C 569.815 195.587 570.815 191.254 570.5 186.5C 572.09 184.525 573.257 182.192 574 179.5C 574.495 177.527 574.662 175.527 574.5 173.5C 576.847 171.473 578.181 168.806 578.5 165.5C 578.5 164.5 578.5 163.5 578.5 162.5C 580.176 161.817 580.843 160.483 580.5 158.5C 580.5 157.167 581.167 156.5 582.5 156.5C 584.023 154.104 585.023 151.438 585.5 148.5C 586.024 146.694 586.691 145.028 587.5 143.5C 589.308 142.082 589.975 140.082 589.5 137.5C 595.833 137.5 602.167 137.5 608.5 137.5z"
                        stroke="none" fill="#FFFDFD" fill-rule="nonzero" />
                </g>
                <g>
                    <path
                        d="M608.5 137.5C 611.428 137.565 614.095 138.232 616.5 139.5C 613.302 140.036 610.635 139.369 608.5 137.5z"
                        stroke="none" fill="#FEAF8A" fill-rule="nonzero" />
                </g>
                <g>
                    <path
                        d="M558.5 139.5C 557.817 141.176 556.483 141.843 554.5 141.5C 555.183 139.824 556.517 139.157 558.5 139.5z"
                        stroke="none" fill="#FD8C56" fill-rule="nonzero" />
                </g>
                <g>
                    <path
                        d="M621.5 139.5C 623.483 139.157 624.817 139.824 625.5 141.5C 623.517 141.843 622.183 141.176 621.5 139.5z"
                        stroke="none" fill="#FD996B" fill-rule="nonzero" />
                </g>
                <g>
                    <path
                        d="M619.5 139.5C 620.167 139.5 620.833 139.5 621.5 139.5C 622.183 141.176 623.517 141.843 625.5 141.5C 631.539 142.225 637.206 143.891 642.5 146.5C 634.879 144.793 627.212 143.459 619.5 142.5C 619.5 141.5 619.5 140.5 619.5 139.5z"
                        stroke="none" fill="#FFD2BD" fill-rule="nonzero" />
                </g>
                <g>
                    <path
                        d="M548.5 156.5C 548.5 158.833 548.5 161.167 548.5 163.5C 548.5 166.833 548.5 170.167 548.5 173.5C 548.5 177.833 548.5 182.167 548.5 186.5C 548.5 192.833 548.5 199.167 548.5 205.5C 546.824 206.183 546.157 207.517 546.5 209.5C 546.5 210.5 546.5 211.5 546.5 212.5C 543.976 215.239 542.976 218.572 543.5 222.5C 542.707 226.88 541.707 231.213 540.5 235.5C 538.067 238.029 536.401 241.029 535.5 244.5C 530.948 253.055 524.614 260.055 516.5 265.5C 513.897 267.843 510.897 269.677 507.5 271C 504.001 271.303 500.668 272.136 497.5 273.5C 479.788 274.332 462.455 272.332 445.5 267.5C 443.5 267.5 441.5 267.5 439.5 267.5C 439.5 264.5 439.5 261.5 439.5 258.5C 441.176 257.817 441.843 256.483 441.5 254.5C 442.618 247.253 444.618 240.253 447.5 233.5C 449.727 231.771 450.727 229.438 450.5 226.5C 452.5 222.5 454.5 218.5 456.5 214.5C 457.5 214.5 458.5 214.5 459.5 214.5C 461.157 210.013 463.157 205.68 465.5 201.5C 468.541 198.123 471.208 194.456 473.5 190.5C 474.833 190.5 475.5 189.833 475.5 188.5C 479.129 184.871 482.796 181.204 486.5 177.5C 489.179 177.475 490.512 176.142 490.5 173.5C 495.514 169.814 500.514 166.147 505.5 162.5C 507.764 161.781 510.097 161.448 512.5 161.5C 512.5 160.5 512.5 159.5 512.5 158.5C 515.502 155.997 518.835 153.997 522.5 152.5C 524.483 152.843 525.817 152.176 526.5 150.5C 530.104 150.951 533.104 149.951 535.5 147.5C 538.946 147.184 542.113 146.184 545 144.5C 545.5 147.5 546 150.5 546.5 153.5C 546.64 155.03 547.307 156.03 548.5 156.5z"
                        stroke="none" fill="#FFFDFD" fill-rule="nonzero" />
                </g>
                <g>
                    <path
                        d="M695.5 145.5C 698.069 145.738 699.735 147.071 700.5 149.5C 698.246 148.876 696.579 147.543 695.5 145.5z"
                        stroke="none" fill="#FFB28E" fill-rule="nonzero" />
                </g>
                <g>
                    <path
                        d="M546.5 143.5C 547.875 147.698 548.542 152.031 548.5 156.5C 547.307 156.03 546.64 155.03 546.5 153.5C 546 150.5 545.5 147.5 545 144.5C 542.113 146.184 538.946 147.184 535.5 147.5C 538.641 145.226 542.308 143.892 546.5 143.5z"
                        stroke="none" fill="#FFBD9F" fill-rule="nonzero" />
                </g>
                <g>
                    <path
                        d="M535.5 147.5C 533.104 149.951 530.104 150.951 526.5 150.5C 529.145 148.69 532.145 147.69 535.5 147.5z"
                        stroke="none" fill="#FFC2A6" fill-rule="nonzero" />
                </g>
                <g>
                    <path
                        d="M700.5 149.5C 703.077 149.455 705.077 150.455 706.5 152.5C 703.923 152.545 701.923 151.545 700.5 149.5z"
                        stroke="none" fill="#FFC2A6" fill-rule="nonzero" />
                </g>
                <g>
                    <path
                        d="M526.5 150.5C 525.817 152.176 524.483 152.843 522.5 152.5C 523.514 151.326 524.847 150.66 526.5 150.5z"
                        stroke="none" fill="#FEAB84" fill-rule="nonzero" />
                </g>
                <g>
                    <path
                        d="M585.5 148.5C 585.023 151.438 584.023 154.104 582.5 156.5C 582.144 153.224 583.144 150.557 585.5 148.5z"
                        stroke="none" fill="#FFC2A5" fill-rule="nonzero" />
                </g>
                <g>
                    <path
                        d="M710.5 156.5C 713.368 159.01 716.368 161.343 719.5 163.5C 716.69 162.52 714.024 161.187 711.5 159.5C 710.614 158.675 710.281 157.675 710.5 156.5z"
                        stroke="none" fill="#FE844B" fill-rule="nonzero" />
                </g>
                <g>
                    <path
                        d="M512.5 158.5C 512.5 159.5 512.5 160.5 512.5 161.5C 510.097 161.448 507.764 161.781 505.5 162.5C 507.292 160.431 509.626 159.097 512.5 158.5z"
                        stroke="none" fill="#FFC5AA" fill-rule="nonzero" />
                </g>
                <g>
                    <path
                        d="M580.5 158.5C 580.843 160.483 580.176 161.817 578.5 162.5C 578.66 160.847 579.326 159.514 580.5 158.5z"
                        stroke="none" fill="#FD9B6E" fill-rule="nonzero" />
                </g>
                <g>
                    <path
                        d="M480.5 160.5C 479.147 162.183 477.48 163.516 475.5 164.5C 476.265 162.071 477.931 160.738 480.5 160.5z"
                        stroke="none" fill="#FFC5AA" fill-rule="nonzero" />
                </g>
                <g>
                    <path
                        d="M548.5 163.5C 550.402 166.337 551.069 169.671 550.5 173.5C 549.833 173.5 549.167 173.5 548.5 173.5C 548.5 170.167 548.5 166.833 548.5 163.5z"
                        stroke="none" fill="#FD7D42" fill-rule="nonzero" />
                </g>
                <g>
                    <path
                        d="M578.5 165.5C 578.181 168.806 576.847 171.473 574.5 173.5C 575.008 171.135 575.675 168.801 576.5 166.5C 576.957 165.702 577.624 165.369 578.5 165.5z"
                        stroke="none" fill="#FFBD9E" fill-rule="nonzero" />
                </g>
                <g>
                    <path
                        d="M490.5 173.5C 490.512 176.142 489.179 177.475 486.5 177.5C 487.167 175.5 488.5 174.167 490.5 173.5z"
                        stroke="none" fill="#FFB08C" fill-rule="nonzero" />
                </g>
                <g>
                    <path
                        d="M548.5 173.5C 549.167 173.5 549.833 173.5 550.5 173.5C 551.097 178.294 550.43 182.627 548.5 186.5C 548.5 182.167 548.5 177.833 548.5 173.5z"
                        stroke="none" fill="#FDA77F" fill-rule="nonzero" />
                </g>
                <g>
                    <path
                        d="M574.5 173.5C 574.662 175.527 574.495 177.527 574 179.5C 573.257 182.192 572.09 184.525 570.5 186.5C 571.261 181.89 572.595 177.556 574.5 173.5z"
                        stroke="none" fill="#FFC2A5" fill-rule="nonzero" />
                </g>
                <g>
                    <path
                        d="M740.5 186.5C 741.5 186.5 742.5 186.5 743.5 186.5C 743.5 187.833 743.5 189.167 743.5 190.5C 742.122 189.455 741.122 188.122 740.5 186.5z"
                        stroke="none" fill="#FFB28F" fill-rule="nonzero" />
                </g>
                <g>
                    <path
                        d="M475.5 188.5C 475.5 189.833 474.833 190.5 473.5 190.5C 473.5 189.167 474.167 188.5 475.5 188.5z"
                        stroke="none" fill="#FDA47B" fill-rule="nonzero" />
                </g>
                <g>
                    <path
                        d="M452.5 190.5C 452.5 191.833 451.833 192.5 450.5 192.5C 450.5 191.167 451.167 190.5 452.5 190.5z"
                        stroke="none" fill="#FD9D70" fill-rule="nonzero" />
                </g>
                <g>
                    <path
                        d="M745.5 192.5C 747.048 192.821 747.715 193.821 747.5 195.5C 746.094 195.027 745.427 194.027 745.5 192.5z"
                        stroke="none" fill="#FDA57B" fill-rule="nonzero" />
                </g>
                <g>
                    <path
                        d="M570.5 186.5C 570.815 191.254 569.815 195.587 567.5 199.5C 567.185 194.746 568.185 190.413 570.5 186.5z"
                        stroke="none" fill="#FFD1BC" fill-rule="nonzero" />
                </g>
                <g>
                    <path
                        d="M711.5 195.5C 712.979 197.535 714.646 199.535 716.5 201.5C 717.429 202.689 717.762 204.022 717.5 205.5C 713.98 203.133 711.98 199.8 711.5 195.5z"
                        stroke="none" fill="#FFCAB1" fill-rule="nonzero" />
                </g>
                <g>
                    <path
                        d="M447.5 197.5C 446.222 201.74 444.555 205.74 442.5 209.5C 441.5 209.5 440.5 209.5 439.5 209.5C 441.449 204.91 444.116 200.91 447.5 197.5z"
                        stroke="none" fill="#FE7E43" fill-rule="nonzero" />
                </g>
                <g>
                    <path
                        d="M548.5 205.5C 548.843 207.483 548.176 208.817 546.5 209.5C 546.157 207.517 546.824 206.183 548.5 205.5z"
                        stroke="none" fill="#FD9E72" fill-rule="nonzero" />
                </g>
                <g>
                    <path
                        d="M465.5 201.5C 463.157 205.68 461.157 210.013 459.5 214.5C 458.5 214.5 457.5 214.5 456.5 214.5C 458.768 209.621 461.768 205.288 465.5 201.5z"
                        stroke="none" fill="#FFC6AB" fill-rule="nonzero" />
                </g>
                <g>
                    <path
                        d="M565.5 207.5C 565.923 209.781 565.256 211.448 563.5 212.5C 563.077 210.219 563.744 208.552 565.5 207.5z"
                        stroke="none" fill="#FEAC86" fill-rule="nonzero" />
                </g>
                <g>
                    <path
                        d="M747.5 207.5C 747.5 208.5 747.5 209.5 747.5 210.5C 745.071 210.884 742.737 211.551 740.5 212.5C 740.5 211.5 740.5 210.5 740.5 209.5C 743.076 209.532 745.409 208.865 747.5 207.5z"
                        stroke="none" fill="#FFBEA0" fill-rule="nonzero" />
                </g>
                <g>
                    <path
                        d="M546.5 212.5C 546.976 216.378 545.976 219.712 543.5 222.5C 542.976 218.572 543.976 215.239 546.5 212.5z"
                        stroke="none" fill="#FFCBB3" fill-rule="nonzero" />
                </g>
                <g>
                    <path
                        d="M435.5 216.5C 435.545 219.077 434.545 221.077 432.5 222.5C 432.455 219.923 433.455 217.923 435.5 216.5z"
                        stroke="none" fill="#FE9C6F" fill-rule="nonzero" />
                </g>
                <g>
                    <path
                        d="M728.5 216.5C 728.614 218.718 729.28 220.718 730.5 222.5C 729.5 222.5 728.5 222.5 727.5 222.5C 727.205 220.265 727.539 218.265 728.5 216.5z"
                        stroke="none" fill="#FFBA9A" fill-rule="nonzero" />
                </g>
                <g>
                    <path
                        d="M563.5 212.5C 562.956 221.694 563.623 230.694 565.5 239.5C 564.5 239.5 563.5 239.5 562.5 239.5C 562.173 230.318 562.507 221.318 563.5 212.5z"
                        stroke="none" fill="#FE905D" fill-rule="nonzero" />
                </g>
                <g>
                    <path
                        d="M725.5 216.5C 726.404 217.209 726.737 218.209 726.5 219.5C 720.038 222.585 713.371 225.251 706.5 227.5C 713.032 224.071 719.365 220.404 725.5 216.5z"
                        stroke="none" fill="#FE7538" fill-rule="nonzero" />
                </g>
                <g>
                    <path
                        d="M450.5 226.5C 450.727 229.438 449.727 231.771 447.5 233.5C 447.706 230.762 448.706 228.428 450.5 226.5z"
                        stroke="none" fill="#FFA379" fill-rule="nonzero" />
                </g>
                <g>
                    <path
                        d="M540.5 235.5C 539.594 238.436 538.928 241.436 538.5 244.5C 537.5 244.5 536.5 244.5 535.5 244.5C 536.401 241.029 538.067 238.029 540.5 235.5z"
                        stroke="none" fill="#FE7C41" fill-rule="nonzero" />
                </g>
                <g>
                    <path
                        d="M672.5 242.5C 667.644 245.155 662.644 247.821 657.5 250.5C 651.897 252.137 646.23 253.47 640.5 254.5C 650.805 249.847 661.472 245.847 672.5 242.5z"
                        stroke="none" fill="#FE7D43" fill-rule="nonzero" />
                </g>
                <g>
                    <path
                        d="M738.5 248.5C 740.176 249.183 740.843 250.517 740.5 252.5C 738.824 251.817 738.157 250.483 738.5 248.5z"
                        stroke="none" fill="#FEA378" fill-rule="nonzero" />
                </g>
                <g>
                    <path
                        d="M422.5 252.5C 422.5 253.833 422.5 255.167 422.5 256.5C 421.414 256.38 420.747 255.713 420.5 254.5C 420.747 253.287 421.414 252.62 422.5 252.5z"
                        stroke="none" fill="#FE986A" fill-rule="nonzero" />
                </g>
                <g>
                    <path
                        d="M636.5 254.5C 633.325 256.88 629.658 257.88 625.5 257.5C 628.968 256.127 632.634 255.127 636.5 254.5z"
                        stroke="none" fill="#FF996A" fill-rule="nonzero" />
                </g>
                <g>
                    <path
                        d="M439.5 254.5C 440.167 254.5 440.833 254.5 441.5 254.5C 441.843 256.483 441.176 257.817 439.5 258.5C 439.5 257.167 439.5 255.833 439.5 254.5z"
                        stroke="none" fill="#FEAD88" fill-rule="nonzero" />
                </g>
                <g>
                    <path
                        d="M578.5 256.5C 581.077 256.455 583.077 257.455 584.5 259.5C 581.923 259.545 579.923 258.545 578.5 256.5z"
                        stroke="none" fill="#FEA075" fill-rule="nonzero" />
                </g>
                <g>
                    <path
                        d="M621.5 258.5C 618.026 259.525 614.36 260.192 610.5 260.5C 613.684 258.586 617.351 257.92 621.5 258.5z"
                        stroke="none" fill="#FEB08C" fill-rule="nonzero" />
                </g>
                <g>
                    <path
                        d="M587.5 259.5C 595.111 260.434 602.778 260.767 610.5 260.5C 606.849 261.165 603.015 261.499 599 261.5C 594.771 261.49 590.938 260.823 587.5 259.5z"
                        stroke="none" fill="#FEA981" fill-rule="nonzero" />
                </g>
                <g>
                    <path
                        d="M740.5 256.5C 741.931 257.78 742.598 259.447 742.5 261.5C 740.744 260.448 740.077 258.781 740.5 256.5z"
                        stroke="none" fill="#FEA176" fill-rule="nonzero" />
                </g>
                <g>
                    <path
                        d="M439.5 254.5C 439.5 255.833 439.5 257.167 439.5 258.5C 439.5 261.5 439.5 264.5 439.5 267.5C 441.5 267.5 443.5 267.5 445.5 267.5C 446.448 268.978 447.781 269.978 449.5 270.5C 446.639 270.658 443.972 269.992 441.5 268.5C 440.151 268.846 438.817 269.179 437.5 269.5C 437.5 268.167 437.5 266.833 437.5 265.5C 438.026 261.688 438.693 258.021 439.5 254.5z"
                        stroke="none" fill="#FD773A" fill-rule="nonzero" />
                </g>
                <g>
                    <path
                        d="M432.5 263.5C 433.779 264.968 435.446 265.635 437.5 265.5C 437.5 266.833 437.5 268.167 437.5 269.5C 437.5 271.167 437.5 272.833 437.5 274.5C 437.167 274.5 436.833 274.5 436.5 274.5C 436.5 271.833 436.5 269.167 436.5 266.5C 435.167 266.5 433.833 266.5 432.5 266.5C 432.5 265.5 432.5 264.5 432.5 263.5z"
                        stroke="none" fill="#FECBB4" fill-rule="nonzero" />
                </g>
                <g>
                    <path
                        d="M445.5 267.5C 462.455 272.332 479.788 274.332 497.5 273.5C 497.5 273.833 497.5 274.167 497.5 274.5C 481.134 275.557 465.134 274.224 449.5 270.5C 447.781 269.978 446.448 268.978 445.5 267.5z"
                        stroke="none" fill="#FFBB9C" fill-rule="nonzero" />
                </g>
                <g>
                    <path
                        d="M516.5 265.5C 516.52 267.143 515.853 268.476 514.5 269.5C 509.1 272.138 503.434 273.805 497.5 274.5C 497.5 274.167 497.5 273.833 497.5 273.5C 500.668 272.136 504.001 271.303 507.5 271C 510.897 269.677 513.897 267.843 516.5 265.5z"
                        stroke="none" fill="#FD7233" fill-rule="nonzero" />
                </g>
                <g>
                    <path
                        d="M742.5 261.5C 743.461 263.265 743.795 265.265 743.5 267.5C 743.5 269.833 743.5 272.167 743.5 274.5C 734.833 274.5 726.167 274.5 717.5 274.5C 725.65 273.507 733.983 273.174 742.5 273.5C 742.5 269.5 742.5 265.5 742.5 261.5z"
                        stroke="none" fill="#FC7C41" fill-rule="nonzero" />
                </g>
                <g>
                    <path
                        d="M743.5 267.5C 745.308 268.918 745.975 270.918 745.5 273.5C 757.216 272.856 768.549 273.522 779.5 275.5C 767.55 274.541 755.55 274.207 743.5 274.5C 743.5 272.167 743.5 269.833 743.5 267.5z"
                        stroke="none" fill="#FEC6AC" fill-rule="nonzero" />
                </g>
                <g>
                    <path
                        d="M698.5 275.5C 698.5 275.833 698.5 276.167 698.5 276.5C 691.167 276.5 683.833 276.5 676.5 276.5C 672.158 276.739 667.824 277.073 663.5 277.5C 664.609 276.71 665.942 276.21 667.5 276C 677.828 275.5 688.161 275.334 698.5 275.5z"
                        stroke="none" fill="#FD7D42" fill-rule="nonzero" />
                </g>
                <g>
                    <path
                        d="M717.5 274.5C 726.167 274.5 734.833 274.5 743.5 274.5C 743.5 275.833 743.5 277.167 743.5 278.5C 743.5 287.833 743.5 297.167 743.5 306.5C 743.795 308.735 743.461 310.735 742.5 312.5C 742.5 300.5 742.5 288.5 742.5 276.5C 727.833 276.5 713.167 276.5 698.5 276.5C 698.5 276.167 698.5 275.833 698.5 275.5C 705.022 275.823 711.355 275.49 717.5 274.5z"
                        stroke="none" fill="#FEBFA2" fill-rule="nonzero" />
                </g>
                <g>
                    <path
                        d="M743.5 274.5C 755.55 274.207 767.55 274.541 779.5 275.5C 779.5 276.5 779.5 277.5 779.5 278.5C 773.669 277.256 767.669 276.589 761.5 276.5C 755.789 276.505 750.456 277.172 745.5 278.5C 744.833 278.5 744.167 278.5 743.5 278.5C 743.5 277.167 743.5 275.833 743.5 274.5z"
                        stroke="none" fill="#FD7130" fill-rule="nonzero" />
                </g>
                <g>
                    <path
                        d="M676.5 276.5C 683.833 276.5 691.167 276.5 698.5 276.5C 713.167 276.5 727.833 276.5 742.5 276.5C 742.5 288.5 742.5 300.5 742.5 312.5C 740.824 313.183 740.157 314.517 740.5 316.5C 740.5 319.5 740.5 322.5 740.5 325.5C 738.824 326.183 738.157 327.517 738.5 329.5C 737.167 334.5 735.833 339.5 734.5 344.5C 732.824 345.183 732.157 346.517 732.5 348.5C 731.326 349.514 730.66 350.847 730.5 352.5C 729.188 355.798 727.855 359.131 726.5 362.5C 725.675 363.386 724.675 363.719 723.5 363.5C 722.607 368.407 720.607 372.74 717.5 376.5C 716.167 376.5 715.5 377.167 715.5 378.5C 710.839 385.986 705.172 392.653 698.5 398.5C 696.468 399.048 695.468 400.381 695.5 402.5C 692.833 404.5 690.167 406.5 687.5 408.5C 684.931 408.738 683.265 410.071 682.5 412.5C 681.167 413.5 679.833 414.5 678.5 415.5C 674.167 416.833 669.833 416.833 665.5 415.5C 663.282 415.386 661.282 414.72 659.5 413.5C 657.771 411.273 655.438 410.273 652.5 410.5C 644.903 407.212 637.903 403.212 631.5 398.5C 630.077 396.455 628.077 395.455 625.5 395.5C 624.167 395.5 623.5 394.833 623.5 393.5C 620.832 391.827 618.498 389.827 616.5 387.5C 614.798 385.463 612.798 383.797 610.5 382.5C 606.548 379.224 602.548 375.891 598.5 372.5C 590.905 363.612 584.238 354.279 578.5 344.5C 578.975 341.918 578.308 339.918 576.5 338.5C 575.422 335.598 574.756 332.598 574.5 329.5C 573.797 324.025 573.13 318.525 572.5 313C 572.672 309.318 573.339 305.818 574.5 302.5C 578.989 297.084 584.655 293.418 591.5 291.5C 606.027 287.584 620.861 284.584 636 282.5C 637.376 282.316 638.209 281.649 638.5 280.5C 639.167 280.5 639.833 280.5 640.5 280.5C 642.5 280.5 644.5 280.5 646.5 280.5C 650.012 281.055 653.012 280.388 655.5 278.5C 657.5 278.5 659.5 278.5 661.5 278.5C 666.944 279.108 671.944 278.442 676.5 276.5z"
                        stroke="none" fill="#FFFEFD" fill-rule="nonzero" />
                </g>
                <g>
                    <path
                        d="M779.5 278.5C 779.5 279.833 779.5 281.167 779.5 282.5C 779.5 284.833 779.5 287.167 779.5 289.5C 779.5 297.167 779.5 304.833 779.5 312.5C 779.5 314.833 779.5 317.167 779.5 319.5C 779.5 320.833 779.5 322.167 779.5 323.5C 776.839 327.31 775.839 331.644 776.5 336.5C 776.5 337.833 776.5 339.167 776.5 340.5C 774.425 343.361 773.092 346.694 772.5 350.5C 770.387 358.717 767.72 366.717 764.5 374.5C 762.824 375.183 762.157 376.517 762.5 378.5C 762.5 379.167 762.5 379.833 762.5 380.5C 761.5 380.5 760.5 380.5 759.5 380.5C 759.169 382.322 758.502 383.989 757.5 385.5C 751.075 398.908 742.742 410.908 732.5 421.5C 729.99 421.054 727.99 421.72 726.5 423.5C 724.167 423.5 721.833 423.5 719.5 423.5C 713.167 423.5 706.833 423.5 700.5 423.5C 697.5 423.5 694.5 423.5 691.5 423.5C 690.082 421.692 688.082 421.025 685.5 421.5C 684.5 421.5 683.5 421.5 682.5 421.5C 681.817 419.824 680.483 419.157 678.5 419.5C 677.167 419.5 675.833 419.5 674.5 419.5C 675.833 418.167 677.167 416.833 678.5 415.5C 679.833 414.5 681.167 413.5 682.5 412.5C 684.754 411.876 686.421 410.543 687.5 408.5C 690.167 406.5 692.833 404.5 695.5 402.5C 696.878 401.455 697.878 400.122 698.5 398.5C 705.172 392.653 710.839 385.986 715.5 378.5C 716.833 378.5 717.5 377.833 717.5 376.5C 720.607 372.74 722.607 368.407 723.5 363.5C 724.675 363.719 725.675 363.386 726.5 362.5C 727.855 359.131 729.188 355.798 730.5 352.5C 732.176 351.817 732.843 350.483 732.5 348.5C 734.176 347.817 734.843 346.483 734.5 344.5C 735.833 339.5 737.167 334.5 738.5 329.5C 740.176 328.817 740.843 327.483 740.5 325.5C 740.5 322.5 740.5 319.5 740.5 316.5C 742.176 315.817 742.843 314.483 742.5 312.5C 743.461 310.735 743.795 308.735 743.5 306.5C 745.472 297.56 746.139 288.227 745.5 278.5C 750.456 277.172 755.789 276.505 761.5 276.5C 767.669 276.589 773.669 277.256 779.5 278.5z"
                        stroke="none" fill="#FC5103" fill-rule="nonzero" />
                </g>
                <g>
                    <path
                        d="M661.5 277.5C 661.5 277.833 661.5 278.167 661.5 278.5C 659.5 278.5 657.5 278.5 655.5 278.5C 652.123 278.068 649.123 278.735 646.5 280.5C 644.5 280.5 642.5 280.5 640.5 280.5C 641.091 279.849 641.757 279.182 642.5 278.5C 648.798 277.504 655.132 277.17 661.5 277.5z"
                        stroke="none" fill="#FD7B3F" fill-rule="nonzero" />
                </g>
                <g>
                    <path
                        d="M676.5 276.5C 671.944 278.442 666.944 279.108 661.5 278.5C 661.5 278.167 661.5 277.833 661.5 277.5C 662.167 277.5 662.833 277.5 663.5 277.5C 667.824 277.073 672.158 276.739 676.5 276.5z"
                        stroke="none" fill="#FEB08D" fill-rule="nonzero" />
                </g>
                <g>
                    <path
                        d="M743.5 278.5C 744.167 278.5 744.833 278.5 745.5 278.5C 746.139 288.227 745.472 297.56 743.5 306.5C 743.5 297.167 743.5 287.833 743.5 278.5z"
                        stroke="none" fill="#FD8F5C" fill-rule="nonzero" />
                </g>
                <g>
                    <path
                        d="M655.5 278.5C 653.012 280.388 650.012 281.055 646.5 280.5C 649.123 278.735 652.123 278.068 655.5 278.5z"
                        stroke="none" fill="#FED1BD" fill-rule="nonzero" />
                </g>
                <g>
                    <path
                        d="M638.5 280.5C 638.209 281.649 637.376 282.316 636 282.5C 620.861 284.584 606.027 287.584 591.5 291.5C 592.6 290.442 593.934 289.608 595.5 289C 609.624 285.012 623.958 282.178 638.5 280.5z"
                        stroke="none" fill="#FFCCB4" fill-rule="nonzero" />
                </g>
                <g>
                    <path
                        d="M435.5 280.5C 435.5 287.5 435.5 294.5 435.5 301.5C 433.343 302.407 431.01 303.073 428.5 303.5C 429.844 301.965 431.511 300.632 433.5 299.5C 434.167 293.012 434.833 286.679 435.5 280.5z"
                        stroke="none" fill="#FFD1BB" fill-rule="nonzero" />
                </g>
                <g>
                    <path
                        d="M436.5 274.5C 436.833 274.5 437.167 274.5 437.5 274.5C 436.865 283.234 437.532 291.567 439.5 299.5C 438.135 301.591 437.468 303.924 437.5 306.5C 436.833 304.833 436.167 303.167 435.5 301.5C 435.5 294.5 435.5 287.5 435.5 280.5C 436.461 278.735 436.795 276.735 436.5 274.5z"
                        stroke="none" fill="#FD9566" fill-rule="nonzero" />
                </g>
                <g>
                    <path
                        d="M779.5 282.5C 781.164 283.949 781.998 285.949 782 288.5C 782.667 297.167 782.667 305.833 782 314.5C 781.95 316.744 781.117 318.411 779.5 319.5C 779.5 317.167 779.5 314.833 779.5 312.5C 780.823 309.062 781.49 305.229 781.5 301C 781.49 296.771 780.823 292.938 779.5 289.5C 779.5 287.167 779.5 284.833 779.5 282.5z"
                        stroke="none" fill="#FFE9DE" fill-rule="nonzero" />
                </g>
                <g>
                    <path
                        d="M779.5 289.5C 780.823 292.938 781.49 296.771 781.5 301C 781.49 305.229 780.823 309.062 779.5 312.5C 779.5 304.833 779.5 297.167 779.5 289.5z"
                        stroke="none" fill="#FDA77F" fill-rule="nonzero" />
                </g>
                <g>
                    <path
                        d="M465.5 295.5C 473.167 295.5 480.833 295.5 488.5 295.5C 489.183 297.176 490.517 297.843 492.5 297.5C 496.867 297.987 501.201 298.653 505.5 299.5C 505.5 300.5 505.5 301.5 505.5 302.5C 506.833 302.5 508.167 302.5 509.5 302.5C 513.027 303.26 516.36 304.594 519.5 306.5C 525.502 310.158 530.836 314.491 535.5 319.5C 536.833 319.5 537.5 320.167 537.5 321.5C 538.833 321.5 539.5 322.167 539.5 323.5C 540.833 326.167 542.833 328.167 545.5 329.5C 545.5 330.833 545.5 332.167 545.5 333.5C 546.5 333.5 547.5 333.5 548.5 333.5C 553.878 341.589 558.211 350.255 561.5 359.5C 562.15 361.435 562.483 363.435 562.5 365.5C 563.5 365.5 564.5 365.5 565.5 365.5C 566.412 369.594 568.079 373.261 570.5 376.5C 571.227 378.954 572.227 381.287 573.5 383.5C 573.455 386.077 574.455 388.077 576.5 389.5C 576.5 390.167 576.5 390.833 576.5 391.5C 577.219 393.764 577.552 396.097 577.5 398.5C 578.5 398.5 579.5 398.5 580.5 398.5C 580.5 399.167 580.5 399.833 580.5 400.5C 581.86 404.898 583.527 409.231 585.5 413.5C 586.361 415.911 587.694 417.911 589.5 419.5C 590.72 421.282 591.386 423.282 591.5 425.5C 592.369 427.717 592.702 430.05 592.5 432.5C 593.5 432.5 594.5 432.5 595.5 432.5C 596.167 435.167 596.833 437.833 597.5 440.5C 597.5 441.167 597.5 441.833 597.5 442.5C 587.375 442.951 577.375 442.285 567.5 440.5C 565.5 440.5 563.5 440.5 561.5 440.5C 560.448 438.744 558.781 438.077 556.5 438.5C 555.167 438.5 553.833 438.5 552.5 438.5C 551.817 436.824 550.483 436.157 548.5 436.5C 544.002 436.311 539.669 435.311 535.5 433.5C 529.626 431.024 523.96 428.357 518.5 425.5C 518.5 424.167 517.833 423.5 516.5 423.5C 513.5 422.167 510.5 420.833 507.5 419.5C 507.52 417.857 506.853 416.524 505.5 415.5C 502.344 413.311 499.011 411.644 495.5 410.5C 492.787 407.451 489.787 404.784 486.5 402.5C 486.5 401.167 485.833 400.5 484.5 400.5C 484.5 399.167 483.833 398.5 482.5 398.5C 480.167 396.167 477.833 393.833 475.5 391.5C 475.5 390.167 474.833 389.5 473.5 389.5C 470.25 384.575 466.584 379.908 462.5 375.5C 461.339 372.642 460.006 369.975 458.5 367.5C 458.5 366.167 457.833 365.5 456.5 365.5C 452.147 358.297 448.813 350.631 446.5 342.5C 444.444 334.968 443.111 327.301 442.5 319.5C 441.5 319.5 440.5 319.5 439.5 319.5C 439.5 318.5 439.5 317.5 439.5 316.5C 439.975 313.918 439.308 311.918 437.5 310.5C 437.5 309.167 437.5 307.833 437.5 306.5C 437.468 303.924 438.135 301.591 439.5 299.5C 440.833 299.5 442.167 299.5 443.5 299.5C 445.483 299.843 446.817 299.176 447.5 297.5C 450.5 297.5 453.5 297.5 456.5 297.5C 460.012 298.055 463.012 297.388 465.5 295.5z"
                        stroke="none" fill="#FFFDFD" fill-rule="nonzero" />
                </g>
                <g>
                    <path
                        d="M465.5 295.5C 463.012 297.388 460.012 298.055 456.5 297.5C 458.988 295.612 461.988 294.945 465.5 295.5z"
                        stroke="none" fill="#FECBB2" fill-rule="nonzero" />
                </g>
                <g>
                    <path
                        d="M488.5 295.5C 490.483 295.157 491.817 295.824 492.5 297.5C 490.517 297.843 489.183 297.176 488.5 295.5z"
                        stroke="none" fill="#FDA176" fill-rule="nonzero" />
                </g>
                <g>
                    <path
                        d="M447.5 297.5C 446.817 299.176 445.483 299.843 443.5 299.5C 444.183 297.824 445.517 297.157 447.5 297.5z"
                        stroke="none" fill="#FD9667" fill-rule="nonzero" />
                </g>
                <g>
                    <path
                        d="M505.5 299.5C 507.122 300.122 508.455 301.122 509.5 302.5C 508.167 302.5 506.833 302.5 505.5 302.5C 505.5 301.5 505.5 300.5 505.5 299.5z"
                        stroke="none" fill="#FDB08C" fill-rule="nonzero" />
                </g>
                <g>
                    <path
                        d="M435.5 301.5C 436.167 303.167 436.833 304.833 437.5 306.5C 437.5 307.833 437.5 309.167 437.5 310.5C 437.259 312.898 437.926 314.898 439.5 316.5C 439.5 317.5 439.5 318.5 439.5 319.5C 441.056 327.493 443.389 335.16 446.5 342.5C 448.813 350.631 452.147 358.297 456.5 365.5C 457.833 365.5 458.5 366.167 458.5 367.5C 460.006 369.975 461.339 372.642 462.5 375.5C 466.584 379.908 470.25 384.575 473.5 389.5C 474.833 389.5 475.5 390.167 475.5 391.5C 477.833 393.833 480.167 396.167 482.5 398.5C 483.833 398.5 484.5 399.167 484.5 400.5C 485.833 400.5 486.5 401.167 486.5 402.5C 489.787 404.784 492.787 407.451 495.5 410.5C 499.134 413.984 503.134 416.984 507.5 419.5C 510.5 420.833 513.5 422.167 516.5 423.5C 517.833 423.5 518.5 424.167 518.5 425.5C 523.96 428.357 529.626 431.024 535.5 433.5C 539.669 435.311 544.002 436.311 548.5 436.5C 549.183 438.176 550.517 438.843 552.5 438.5C 553.833 438.5 555.167 438.5 556.5 438.5C 557.552 440.256 559.219 440.923 561.5 440.5C 563.5 440.5 565.5 440.5 567.5 440.5C 567.577 441.75 568.244 442.583 569.5 443C 578.827 443.5 588.161 443.666 597.5 443.5C 598.735 443.721 599.735 444.388 600.5 445.5C 600.964 447.975 601.964 449.975 603.5 451.5C 605.973 455.458 607.639 459.791 608.5 464.5C 608.995 466.482 609.495 468.482 610 470.5C 610.417 471.756 611.25 472.423 612.5 472.5C 613.865 474.591 614.532 476.924 614.5 479.5C 605.833 479.5 597.167 479.5 588.5 479.5C 584.5 479.5 580.5 479.5 576.5 479.5C 574.833 479.5 573.167 479.5 571.5 479.5C 570.082 477.692 568.082 477.025 565.5 477.5C 561.245 476.598 556.911 475.598 552.5 474.5C 545.974 473.017 539.64 471.017 533.5 468.5C 527.741 466.729 522.075 464.729 516.5 462.5C 516.5 461.5 516.5 460.5 516.5 459.5C 514.071 459.116 511.737 458.449 509.5 457.5C 508.167 456.833 506.833 456.167 505.5 455.5C 505.5 454.167 504.833 453.5 503.5 453.5C 499.183 451.195 494.85 448.861 490.5 446.5C 489.388 445.735 488.721 444.735 488.5 443.5C 487.455 442.122 486.122 441.122 484.5 440.5C 482.212 438.896 479.879 437.229 477.5 435.5C 471.481 429.455 465.481 423.455 459.5 417.5C 451.986 408.672 445.32 399.339 439.5 389.5C 438.078 386.319 436.412 383.319 434.5 380.5C 431.976 374.023 429.31 367.69 426.5 361.5C 426.843 359.517 426.176 358.183 424.5 357.5C 424.5 356.833 424.5 356.167 424.5 355.5C 424.923 353.219 424.256 351.552 422.5 350.5C 422.975 347.918 422.308 345.918 420.5 344.5C 418.676 332.572 417.343 320.572 416.5 308.5C 418.142 306.919 420.142 306.253 422.5 306.5C 423.833 306.5 424.5 305.833 424.5 304.5C 426.099 304.768 427.432 304.434 428.5 303.5C 431.01 303.073 433.343 302.407 435.5 301.5z"
                        stroke="none" fill="#FC5205" fill-rule="nonzero" />
                </g>
                <g>
                    <path
                        d="M424.5 304.5C 424.5 305.833 423.833 306.5 422.5 306.5C 422.5 305.167 423.167 304.5 424.5 304.5z"
                        stroke="none" fill="#FEA67D" fill-rule="nonzero" />
                </g>
                <g>
                    <path
                        d="M437.5 310.5C 439.308 311.918 439.975 313.918 439.5 316.5C 437.926 314.898 437.259 312.898 437.5 310.5z"
                        stroke="none" fill="#FDA176" fill-rule="nonzero" />
                </g>
                <g>
                    <path
                        d="M742.5 312.5C 742.843 314.483 742.176 315.817 740.5 316.5C 740.157 314.517 740.824 313.183 742.5 312.5z"
                        stroke="none" fill="#FEC3A8" fill-rule="nonzero" />
                </g>
                <g>
                    <path
                        d="M574.5 302.5C 573.339 305.818 572.672 309.318 572.5 313C 573.13 318.525 573.797 324.025 574.5 329.5C 573.849 328.909 573.182 328.243 572.5 327.5C 571.167 319.5 571.167 311.5 572.5 303.5C 573.183 303.137 573.85 302.804 574.5 302.5z"
                        stroke="none" fill="#FFB18E" fill-rule="nonzero" />
                </g>
                <g>
                    <path
                        d="M535.5 319.5C 536.833 319.5 537.5 320.167 537.5 321.5C 536.167 321.5 535.5 320.833 535.5 319.5z"
                        stroke="none" fill="#FEAB85" fill-rule="nonzero" />
                </g>
                <g>
                    <path
                        d="M537.5 321.5C 538.833 321.5 539.5 322.167 539.5 323.5C 538.167 323.5 537.5 322.833 537.5 321.5z"
                        stroke="none" fill="#FDA881" fill-rule="nonzero" />
                </g>
                <g>
                    <path
                        d="M740.5 325.5C 740.843 327.483 740.176 328.817 738.5 329.5C 738.157 327.517 738.824 326.183 740.5 325.5z"
                        stroke="none" fill="#FE9464" fill-rule="nonzero" />
                </g>
                <g>
                    <path
                        d="M779.5 323.5C 778.913 328.036 777.913 332.369 776.5 336.5C 775.839 331.644 776.839 327.31 779.5 323.5z"
                        stroke="none" fill="#FEA176" fill-rule="nonzero" />
                </g>
                <g>
                    <path
                        d="M439.5 319.5C 440.5 319.5 441.5 319.5 442.5 319.5C 443.111 327.301 444.444 334.968 446.5 342.5C 443.389 335.16 441.056 327.493 439.5 319.5z"
                        stroke="none" fill="#FFCCB4" fill-rule="nonzero" />
                </g>
                <g>
                    <path
                        d="M545.5 329.5C 546.878 330.545 547.878 331.878 548.5 333.5C 547.5 333.5 546.5 333.5 545.5 333.5C 545.5 332.167 545.5 330.833 545.5 329.5z"
                        stroke="none" fill="#FEA378" fill-rule="nonzero" />
                </g>
                <g>
                    <path
                        d="M416.5 308.5C 417.343 320.572 418.676 332.572 420.5 344.5C 416.39 332.787 415.057 320.787 416.5 308.5z"
                        stroke="none" fill="#FFB694" fill-rule="nonzero" />
                </g>
                <g>
                    <path
                        d="M576.5 338.5C 578.308 339.918 578.975 341.918 578.5 344.5C 577.542 342.698 576.875 340.698 576.5 338.5z"
                        stroke="none" fill="#FF8E5A" fill-rule="nonzero" />
                </g>
                <g>
                    <path
                        d="M734.5 344.5C 734.843 346.483 734.176 347.817 732.5 348.5C 732.157 346.517 732.824 345.183 734.5 344.5z"
                        stroke="none" fill="#FE9767" fill-rule="nonzero" />
                </g>
                <g>
                    <path
                        d="M776.5 340.5C 775.895 343.127 775.395 345.793 775 348.5C 774.583 349.756 773.75 350.423 772.5 350.5C 773.092 346.694 774.425 343.361 776.5 340.5z"
                        stroke="none" fill="#FFBEA0" fill-rule="nonzero" />
                </g>
                <g>
                    <path
                        d="M732.5 348.5C 732.843 350.483 732.176 351.817 730.5 352.5C 730.66 350.847 731.326 349.514 732.5 348.5z"
                        stroke="none" fill="#FEA67E" fill-rule="nonzero" />
                </g>
                <g>
                    <path
                        d="M422.5 350.5C 424.256 351.552 424.923 353.219 424.5 355.5C 422.744 354.448 422.077 352.781 422.5 350.5z"
                        stroke="none" fill="#FFB999" fill-rule="nonzero" />
                </g>
                <g>
                    <path
                        d="M424.5 357.5C 426.176 358.183 426.843 359.517 426.5 361.5C 424.824 360.817 424.157 359.483 424.5 357.5z"
                        stroke="none" fill="#FFBFA0" fill-rule="nonzero" />
                </g>
                <g>
                    <path
                        d="M561.5 359.5C 563.303 361.081 564.636 363.081 565.5 365.5C 564.5 365.5 563.5 365.5 562.5 365.5C 562.483 363.435 562.15 361.435 561.5 359.5z"
                        stroke="none" fill="#FFC5AA" fill-rule="nonzero" />
                </g>
                <g>
                    <path
                        d="M456.5 365.5C 457.833 365.5 458.5 366.167 458.5 367.5C 457.167 367.5 456.5 366.833 456.5 365.5z"
                        stroke="none" fill="#FDA57C" fill-rule="nonzero" />
                </g>
                <g>
                    <path
                        d="M565.5 365.5C 566.5 365.5 567.5 365.5 568.5 365.5C 569.702 369.048 570.369 372.715 570.5 376.5C 568.079 373.261 566.412 369.594 565.5 365.5z"
                        stroke="none" fill="#FE7A3F" fill-rule="nonzero" />
                </g>
                <g>
                    <path
                        d="M717.5 376.5C 717.5 377.833 716.833 378.5 715.5 378.5C 715.5 377.167 716.167 376.5 717.5 376.5z"
                        stroke="none" fill="#FDA47B" fill-rule="nonzero" />
                </g>
                <g>
                    <path
                        d="M764.5 374.5C 764.843 376.483 764.176 377.817 762.5 378.5C 762.157 376.517 762.824 375.183 764.5 374.5z"
                        stroke="none" fill="#FFC0A3" fill-rule="nonzero" />
                </g>
                <g>
                    <path
                        d="M762.5 380.5C 761.918 381.931 761.085 383.264 760 384.5C 759.329 385.252 758.496 385.586 757.5 385.5C 758.502 383.989 759.169 382.322 759.5 380.5C 760.5 380.5 761.5 380.5 762.5 380.5z"
                        stroke="none" fill="#FFC0A3" fill-rule="nonzero" />
                </g>
                <g>
                    <path
                        d="M434.5 380.5C 436.412 383.319 438.078 386.319 439.5 389.5C 438.5 389.5 437.5 389.5 436.5 389.5C 435.833 386.5 435.167 383.5 434.5 380.5z"
                        stroke="none" fill="#FFC9B0" fill-rule="nonzero" />
                </g>
                <g>
                    <path
                        d="M610.5 382.5C 612.798 383.797 614.798 385.463 616.5 387.5C 612.96 387.623 610.96 385.957 610.5 382.5z"
                        stroke="none" fill="#FFBB9B" fill-rule="nonzero" />
                </g>
                <g>
                    <path
                        d="M573.5 383.5C 574.971 385.216 575.971 387.216 576.5 389.5C 574.455 388.077 573.455 386.077 573.5 383.5z"
                        stroke="none" fill="#FEA77F" fill-rule="nonzero" />
                </g>
                <g>
                    <path
                        d="M473.5 389.5C 474.833 389.5 475.5 390.167 475.5 391.5C 474.167 391.5 473.5 390.833 473.5 389.5z"
                        stroke="none" fill="#FDA881" fill-rule="nonzero" />
                </g>
                <g>
                    <path
                        d="M623.5 393.5C 624.833 393.5 625.5 394.167 625.5 395.5C 625.5 394.167 624.833 393.5 623.5 393.5z"
                        stroke="none" fill="#FE9C6F" fill-rule="nonzero" />
                </g>
                <g>
                    <path
                        d="M576.5 391.5C 578.569 393.292 579.903 395.626 580.5 398.5C 579.5 398.5 578.5 398.5 577.5 398.5C 577.552 396.097 577.219 393.764 576.5 391.5z"
                        stroke="none" fill="#FFBFA0" fill-rule="nonzero" />
                </g>
                <g>
                    <path
                        d="M625.5 395.5C 628.077 395.455 630.077 396.455 631.5 398.5C 628.923 398.545 626.923 397.545 625.5 395.5z"
                        stroke="none" fill="#FFBB9B" fill-rule="nonzero" />
                </g>
                <g>
                    <path
                        d="M482.5 398.5C 483.833 398.5 484.5 399.167 484.5 400.5C 483.167 400.5 482.5 399.833 482.5 398.5z"
                        stroke="none" fill="#FEAB85" fill-rule="nonzero" />
                </g>
                <g>
                    <path
                        d="M698.5 398.5C 697.878 400.122 696.878 401.455 695.5 402.5C 695.468 400.381 696.468 399.048 698.5 398.5z"
                        stroke="none" fill="#FFA77F" fill-rule="nonzero" />
                </g>
                <g>
                    <path
                        d="M484.5 400.5C 485.833 400.5 486.5 401.167 486.5 402.5C 485.167 402.5 484.5 401.833 484.5 400.5z"
                        stroke="none" fill="#FEAC88" fill-rule="nonzero" />
                </g>
                <g>
                    <path
                        d="M580.5 400.5C 582.686 401.823 584.186 403.823 585 406.5C 586.4 410.867 587.9 415.201 589.5 419.5C 587.694 417.911 586.361 415.911 585.5 413.5C 583.527 409.231 581.86 404.898 580.5 400.5z"
                        stroke="none" fill="#FFBEA0" fill-rule="nonzero" />
                </g>
                <g>
                    <path
                        d="M687.5 408.5C 686.421 410.543 684.754 411.876 682.5 412.5C 683.265 410.071 684.931 408.738 687.5 408.5z"
                        stroke="none" fill="#FFBC9D" fill-rule="nonzero" />
                </g>
                <g>
                    <path
                        d="M652.5 410.5C 655.438 410.273 657.771 411.273 659.5 413.5C 656.762 413.294 654.428 412.294 652.5 410.5z"
                        stroke="none" fill="#FFB08C" fill-rule="nonzero" />
                </g>
                <g>
                    <path
                        d="M495.5 410.5C 499.011 411.644 502.344 413.311 505.5 415.5C 506.853 416.524 507.52 417.857 507.5 419.5C 503.134 416.984 499.134 413.984 495.5 410.5z"
                        stroke="none" fill="#FFC6AC" fill-rule="nonzero" />
                </g>
                <g>
                    <path
                        d="M665.5 415.5C 669.833 416.833 674.167 416.833 678.5 415.5C 677.167 416.833 675.833 418.167 674.5 419.5C 673.833 419.5 673.167 419.5 672.5 419.5C 670.167 418.167 667.833 416.833 665.5 415.5z"
                        stroke="none" fill="#FFB694" fill-rule="nonzero" />
                </g>
                <g>
                    <path
                        d="M678.5 419.5C 680.483 419.157 681.817 419.824 682.5 421.5C 680.517 421.843 679.183 421.176 678.5 419.5z"
                        stroke="none" fill="#FE905E" fill-rule="nonzero" />
                </g>
                <g>
                    <path
                        d="M685.5 421.5C 688.082 421.025 690.082 421.692 691.5 423.5C 688.918 423.975 686.918 423.308 685.5 421.5z"
                        stroke="none" fill="#FEB795" fill-rule="nonzero" />
                </g>
                <g>
                    <path
                        d="M732.5 421.5C 731.082 423.308 729.082 423.975 726.5 423.5C 727.99 421.72 729.99 421.054 732.5 421.5z"
                        stroke="none" fill="#FEB18D" fill-rule="nonzero" />
                </g>
                <g>
                    <path
                        d="M516.5 423.5C 517.833 423.5 518.5 424.167 518.5 425.5C 517.167 425.5 516.5 424.833 516.5 423.5z"
                        stroke="none" fill="#FDAD87" fill-rule="nonzero" />
                </g>
                <g>
                    <path
                        d="M700.5 423.5C 706.833 423.5 713.167 423.5 719.5 423.5C 716.742 424.818 713.576 425.485 710 425.5C 706.424 425.485 703.258 424.818 700.5 423.5z"
                        stroke="none" fill="#FED0BA" fill-rule="nonzero" />
                </g>
                <g>
                    <path
                        d="M665.5 423.5C 665.5 424.5 665.5 425.5 665.5 426.5C 664.167 426.5 662.833 426.5 661.5 426.5C 662.545 425.122 663.878 424.122 665.5 423.5z"
                        stroke="none" fill="#FFB796" fill-rule="nonzero" />
                </g>
                <g>
                    <path
                        d="M591.5 425.5C 593.239 427.472 594.572 429.805 595.5 432.5C 594.5 432.5 593.5 432.5 592.5 432.5C 592.702 430.05 592.369 427.717 591.5 425.5z"
                        stroke="none" fill="#FFBD9F" fill-rule="nonzero" />
                </g>
                <g>
                    <path
                        d="M657.5 428.5C 656.77 430.045 655.437 430.878 653.5 431C 654.167 431.333 654.833 431.667 655.5 432C 653.19 432.497 650.857 432.663 648.5 432.5C 651.088 430.408 654.088 429.075 657.5 428.5z"
                        stroke="none" fill="#FFC8AE" fill-rule="nonzero" />
                </g>
                <g>
                    <path
                        d="M648.5 432.5C 647.817 434.176 646.483 434.843 644.5 434.5C 645.183 432.824 646.517 432.157 648.5 432.5z"
                        stroke="none" fill="#FFC3A7" fill-rule="nonzero" />
                </g>
                <g>
                    <path
                        d="M636.5 436.5C 635.448 438.256 633.781 438.923 631.5 438.5C 632.552 436.744 634.219 436.077 636.5 436.5z"
                        stroke="none" fill="#FEB18D" fill-rule="nonzero" />
                </g>
                <g>
                    <path
                        d="M548.5 436.5C 550.483 436.157 551.817 436.824 552.5 438.5C 550.517 438.843 549.183 438.176 548.5 436.5z"
                        stroke="none" fill="#FEBD9E" fill-rule="nonzero" />
                </g>
                <g>
                    <path
                        d="M556.5 438.5C 558.781 438.077 560.448 438.744 561.5 440.5C 559.219 440.923 557.552 440.256 556.5 438.5z"
                        stroke="none" fill="#FEBB9C" fill-rule="nonzero" />
                </g>
                <g>
                    <path
                        d="M627.5 438.5C 626.817 440.176 625.483 440.843 623.5 440.5C 624.183 438.824 625.517 438.157 627.5 438.5z"
                        stroke="none" fill="#FEAA83" fill-rule="nonzero" />
                </g>
                <g>
                    <path
                        d="M484.5 440.5C 486.122 441.122 487.455 442.122 488.5 443.5C 487.167 443.5 485.833 443.5 484.5 443.5C 484.5 442.5 484.5 441.5 484.5 440.5z"
                        stroke="none" fill="#FFA67D" fill-rule="nonzero" />
                </g>
                <g>
                    <path
                        d="M567.5 440.5C 577.375 442.285 587.375 442.951 597.5 442.5C 597.5 442.833 597.5 443.167 597.5 443.5C 588.161 443.666 578.827 443.5 569.5 443C 568.244 442.583 567.577 441.75 567.5 440.5z"
                        stroke="none" fill="#FEAE89" fill-rule="nonzero" />
                </g>
                <g>
                    <path
                        d="M597.5 440.5C 600.921 442.147 604.587 442.813 608.5 442.5C 608.5 442.833 608.5 443.167 608.5 443.5C 606.5 443.5 604.5 443.5 602.5 443.5C 602.401 446.237 602.735 448.904 603.5 451.5C 601.964 449.975 600.964 447.975 600.5 445.5C 599.735 444.388 598.735 443.721 597.5 443.5C 597.5 443.167 597.5 442.833 597.5 442.5C 597.5 441.833 597.5 441.167 597.5 440.5z"
                        stroke="none" fill="#FE915F" fill-rule="nonzero" />
                </g>
                <g>
                    <path
                        d="M616.5 440.5C 616.5 441.5 616.5 442.5 616.5 443.5C 613.833 443.5 611.167 443.5 608.5 443.5C 608.5 443.167 608.5 442.833 608.5 442.5C 611.167 441.833 613.833 441.167 616.5 440.5z"
                        stroke="none" fill="#FEBA9A" fill-rule="nonzero" />
                </g>
                <g>
                    <path
                        d="M503.5 453.5C 504.833 453.5 505.5 454.167 505.5 455.5C 504.167 455.5 503.5 454.833 503.5 453.5z"
                        stroke="none" fill="#FD9C6F" fill-rule="nonzero" />
                </g>
                <g>
                    <path
                        d="M509.5 457.5C 511.737 458.449 514.071 459.116 516.5 459.5C 516.5 460.5 516.5 461.5 516.5 462.5C 514.409 461.135 512.076 460.468 509.5 460.5C 509.5 459.5 509.5 458.5 509.5 457.5z"
                        stroke="none" fill="#FFCAB2" fill-rule="nonzero" />
                </g>
                <g>
                    <path
                        d="M608.5 464.5C 610.847 466.527 612.181 469.194 612.5 472.5C 611.25 472.423 610.417 471.756 610 470.5C 609.495 468.482 608.995 466.482 608.5 464.5z"
                        stroke="none" fill="#FE8149" fill-rule="nonzero" />
                </g>
                <g>
                    <path
                        d="M533.5 468.5C 539.64 471.017 545.974 473.017 552.5 474.5C 552.5 474.833 552.5 475.167 552.5 475.5C 546.208 474.282 539.875 472.949 533.5 471.5C 533.5 470.5 533.5 469.5 533.5 468.5z"
                        stroke="none" fill="#FFD4C1" fill-rule="nonzero" />
                </g>
                <g>
                    <path
                        d="M552.5 475.5C 552.5 475.167 552.5 474.833 552.5 474.5C 556.911 475.598 561.245 476.598 565.5 477.5C 560.969 477.85 556.636 477.183 552.5 475.5z"
                        stroke="none" fill="#FEAD87" fill-rule="nonzero" />
                </g>
                <g>
                    <path
                        d="M565.5 477.5C 568.082 477.025 570.082 477.692 571.5 479.5C 568.918 479.975 566.918 479.308 565.5 477.5z"
                        stroke="none" fill="#FD9E71" fill-rule="nonzero" />
                </g>
                <g>
                    <path
                        d="M576.5 479.5C 580.5 479.5 584.5 479.5 588.5 479.5C 588.5 480.167 588.5 480.833 588.5 481.5C 584.029 482.089 580.029 481.423 576.5 479.5z"
                        stroke="none" fill="#FEB593" fill-rule="nonzero" />
                </g>
                <g>
                    <path
                        d="M588.5 479.5C 597.167 479.5 605.833 479.5 614.5 479.5C 606.231 481.47 597.565 482.136 588.5 481.5C 588.5 480.833 588.5 480.167 588.5 479.5z"
                        stroke="none" fill="#FD8B56" fill-rule="nonzero" />
                </g>
            </g>
        </g>
    </g>
</svg>