<?xml version="1.0" encoding="UTF-8"?>
<svg width="45px" height="52px" viewBox="0 0 45 52" version="1.1" xmlns="http://www.w3.org/2000/svg"
    xmlns:xlink="http://www.w3.org/1999/xlink">
    <title>voltrun</title>
    <g id="Final" stroke="none" stroke-width="1" fill="none" fill-rule="evenodd">
        <g id="voltrun" transform="translate(-0.000305, -0.000000)">
            <path
                d="M38.4100125,6.59008902 C34.1602749,2.3404529 28.5101039,0 22.5000508,0 C16.4899976,0 10.8398267,2.3404529 6.59008902,6.59008902 C2.34035135,10.8397251 0,16.4899976 0,22.5000508 C0,26.2435772 1.17459297,30.1193176 3.49128389,34.0195309 C5.30135734,37.0669533 7.81332295,40.1410825 10.9572149,43.1567207 C16.2652743,48.2481806 21.4990015,51.3947128 21.7192567,51.526216 L22.4999492,51.9923163 L23.2806418,51.526216 C23.500897,51.3947128 28.7346241,48.2481806 34.0426835,43.1567207 C37.186677,40.1410825 39.6985411,37.0668517 41.5086146,34.0195309 C43.8252039,30.1193176 44.9998985,26.2435772 44.9998985,22.5000508 C44.9998985,16.4900992 42.6596486,10.8398267 38.4100125,6.59008902 Z"
                id="Path" fill="#429CD5"></path>
            <circle id="Oval" fill="#FFFFFF" fill-rule="nonzero" cx="22.5000508" cy="22.4611583" r="16.4861388">
            </circle>
            <g transform="matrix(0.09166667 0 0 0.09166667 11.5 11.5)">
                <path transform="matrix(1 0 0 1 63.5 17.5625)"
                    d="M0 0C 12.99526 8.046001 16.612423 26.23191 21.0625 39.9375C 22.097027 43.092213 23.136248 46.245373 24.175781 49.398438C 24.575235 50.6126 24.575235 50.6126 24.982758 51.851288C 27.001078 57.97066 29.072075 64.070854 31.167969 70.16406C 31.468647 71.03847 31.769327 71.91288 32.079117 72.81378C 33.25982 76.24391 34.442055 79.67349 35.629425 83.10132C 36.448116 85.46514 37.263332 87.83014 38.078125 90.19531C 38.32439 90.90193 38.570656 91.60855 38.824387 92.33658C 40.5 97.211044 40.5 97.211044 40.5 99.4375C 41.46422 98.992775 42.428436 98.54805 43.421875 98.08984C 44.697643 97.517624 45.9737 96.946045 47.25 96.375C 47.88422 96.08045 48.518436 95.7859 49.171875 95.48242C 52.77444 93.887535 54.75833 93.2297 58.5 94.4375C 57.909348 112.77426 57.265205 131.10703 56.5 149.4375C 57.16 149.7675 57.82 150.0975 58.5 150.4375C 58.86223 149.28636 59.224453 148.13524 59.597656 146.94922C 62.05226 139.594 65.03772 132.43777 67.9375 125.25C 68.560005 123.70136 69.182236 122.15261 69.8042 120.60376C 71.07618 117.43688 72.349396 114.27051 73.623535 111.10449C 76.21196 104.67018 78.78591 98.23009 81.35965 91.78989C 82.564644 88.77503 83.77064 85.760574 84.97656 82.74609C 85.403564 81.67601 85.83057 80.60593 86.27051 79.50342C 87.08037 77.48392 87.89726 75.46722 88.72168 73.45361C 89.089386 72.5524 89.45709 71.651184 89.83594 70.72266C 90.15868 69.93899 90.48144 69.15532 90.813965 68.3479C 91.612656 66.46209 91.612656 66.46209 91.5 64.4375C 86.055 63.9425 86.055 63.9425 80.5 63.4375C 79.1885 59.502995 80.14388 58.248764 81.74609 54.46875C 82.501884 52.66507 82.501884 52.66507 83.27295 50.82495C 83.82738 49.528954 84.38223 48.23314 84.9375 46.9375C 85.49569 45.61921 86.05315 44.300602 86.60986 42.98169C 87.44683 41.000526 88.28499 39.019928 89.12744 37.041092C 90.74797 33.23385 92.33076 29.414564 93.87109 25.574219C 94.215355 24.724726 94.559616 23.875235 94.91431 23C 95.52974 21.478542 96.13771 19.954031 96.736084 18.425781C 99.44898 11.816939 103.28705 5.0898757 109.6875 1.5C 110.34106 1.1197265 110.994606 0.73945314 111.66797 0.34765625C 117.92259 -2.7596524 125.71742 -2.6790133 132.33203 -0.7265625C 139.19604 2.415493 144.37737 6.9498425 147.6289 13.824219C 151.89989 26.024288 146.81981 36.6071 142.125 47.875C 141.48105 49.447746 140.83832 51.020996 140.19678 52.594727C 138.90765 55.751442 137.61156 58.905125 136.3086 62.056152C 134.75307 65.819115 133.21536 69.58898 131.6875 73.36328C 127.75292 83.080635 123.77154 92.77877 119.78906 102.47656C 119.46255 103.271706 119.13603 104.06686 118.79962 104.88609C 118.30229 106.0972 118.30229 106.0972 117.79492 107.33276C 117.45872 108.15151 117.12251 108.97025 116.77612 109.81381C 116.09246 111.478584 115.40871 113.14332 114.72485 114.808014C 109.97747 126.36615 105.26297 137.93709 100.57825 149.52075C 99.63461 151.85126 98.688416 154.18071 97.74121 156.50977C 97.13213 158.0078 96.52308 159.50584 95.91406 161.0039C 95.62068 161.72543 95.3273 162.44695 95.025024 163.19034C 93.18299 167.72916 91.376366 172.28043 89.58594 176.83984C 88.724144 178.99747 87.862175 181.15503 87 183.3125C 86.63922 184.25665 86.27845 185.20082 85.90674 186.17358C 82.717735 194.067 78.12663 199.72095 70.25 203.3125C 69.419846 203.7018 68.58969 204.0911 67.734375 204.49219C 60.814316 207.4199 52.33997 207.56378 45.015625 205.85938C 35.870842 201.83568 30.75107 192.80556 27.192627 183.96606C 26.509464 182.18849 26.509464 182.18849 25.8125 180.375C 25.30291 179.09193 24.791384 177.80965 24.278076 176.52808C 23.206253 173.84544 22.144304 171.15923 21.089844 168.46973C 19.569395 164.60007 18.0108 160.74687 16.4375 156.89844C 16.18286 156.27531 15.92822 155.65219 15.665863 155.0102C 15.145363 153.73666 14.624804 152.46317 14.104187 151.1897C 12.743294 147.8554 11.391036 144.51761 10.0390625 141.17969C 9.758178 140.48627 9.477293 139.79286 9.187897 139.07843C 6.94314 133.53505 4.701982 127.990204 2.4609375 122.44531C 1.3966027 119.812386 0.3321828 117.17949 -0.7323303 114.54663C -1.452296 112.76591 -2.1721652 110.985146 -2.8919373 109.204346C -7.8793902 96.867516 -12.909606 84.54903 -17.974426 72.243774C -20.250263 66.70987 -22.51641 61.172 -24.781738 55.63379C -25.867212 52.98041 -26.956465 50.328655 -28.050293 47.67871C -29.35904 44.49923 -30.651287 41.31365 -31.9375 38.125C -32.29715 37.261086 -32.656796 36.39717 -33.027344 35.50708C -36.224358 27.478292 -37.75911 19.706053 -34.496094 11.46875C -31.50711 5.373569 -27.539476 2.1684577 -21.449219 -0.64453125C -14.599201 -2.776656 -6.6458974 -2.928269 0 0z"
                    stroke="none" fill="#419BD4" fill-rule="nonzero" />
            </g>
        </g>
    </g>
</svg>