<?xml version="1.0" encoding="UTF-8"?>
<svg width="45px" height="52px" viewBox="0 0 45 52" version="1.1" xmlns="http://www.w3.org/2000/svg"
    xmlns:xlink="http://www.w3.org/1999/xlink">
    <title>wat</title>
    <g id="Final" stroke="none" stroke-width="1" fill="none" fill-rule="evenodd">
        <g id="wat" transform="translate(-0.000305, -0.000000)">
            <path
                d="M38.4100125,6.59008902 C34.1602749,2.3404529 28.5101039,0 22.5000508,0 C16.4899976,0 10.8398267,2.3404529 6.59008902,6.59008902 C2.34035135,10.8397251 0,16.4899976 0,22.5000508 C0,26.2435772 1.17459297,30.1193176 3.49128389,34.0195309 C5.30135734,37.0669533 7.81332295,40.1410825 10.9572149,43.1567207 C16.2652743,48.2481806 21.4990015,51.3947128 21.7192567,51.526216 L22.4999492,51.9923163 L23.2806418,51.526216 C23.500897,51.3947128 28.7346241,48.2481806 34.0426835,43.1567207 C37.186677,40.1410825 39.6985411,37.0668517 41.5086146,34.0195309 C43.8252039,30.1193176 44.9998985,26.2435772 44.9998985,22.5000508 C44.9998985,16.4900992 42.6596486,10.8398267 38.4100125,6.59008902 Z"
                id="Path" fill="#019FE2"></path>
            <circle id="Oval" fill="#FFFFFF" fill-rule="nonzero" cx="22.5000508" cy="22.4611583" r="16.4861388">
            </circle>
            <g transform="matrix(0.085960135 0 0 0.085960135 12.5 18)">
                <g>
                    <g>
                        <path
                            d="M56.763 48.682L50.784 76.957L44.358 76.957L40.314003 59.019L36.285004 76.957L29.859003 76.957L23.878002 48.682L29.213001 48.682L33.468002 69.846L38.066 48.682L42.576004 48.682L47.174004 69.847L51.430004 48.682L56.763 48.682z"
                            stroke="none" fill="#009FE3" fill-rule="nonzero" />
                        <path
                            d="M76.245 48.682L76.245 76.959L72.496 76.959L71.855 74.078C 70.522 76.4 68.316 77.41 65.741005 77.41C 62.152004 77.41 58.159004 75.059006 58.159004 67.457L58.159004 67.457L58.159004 58.126C 58.159004 50.524 62.151005 48.173 65.741005 48.173C 68.299 48.173 70.495 49.173 71.826004 51.414L71.826004 51.414L72.495 48.682003L76.245 48.682003L76.245 48.682zM63.46 64.819C 63.493 70.966 64.868996 72.615 67.234 72.615C 69.584 72.615 70.955 70.966995 70.922005 64.819L70.922005 64.819L70.922005 60.764C 70.922005 54.56 69.438 52.968 67.201004 52.968C 64.949005 52.968 63.459003 54.559998 63.459003 60.764L63.459003 60.764L63.459003 64.819z"
                            stroke="none" fill="#009FE3" fill-rule="nonzero" />
                        <path
                            d="M87.315 65.833C 87.309006 71.588 88.244 72.646 91.378006 72.687L91.378006 72.687L92.121 72.687L92.121 77.465L89.975006 77.465C 85.45601 77.44199 82.01201 75.701 82.019005 67.283L82.019005 67.283L82.019005 53.448L78.517006 53.448L78.517006 48.682003L82.019005 48.682003L82.019005 39.912003L87.315 39.912003L87.315 48.682003L92.12 48.682003L92.12 53.448L87.315 53.448L87.315 65.833z"
                            stroke="none" fill="#009FE3" fill-rule="nonzero" />
                    </g>
                    <g>
                        <path
                            d="M102.276 52.797C 103.637 49.538002 106.307 48.147 109.262 48.147C 112.366 48.147 115.549 49.552998 116.778 53.785C 117.988 49.817 120.885 48.147 124.123 48.147C 128.134 48.147 132.293 50.507 132.293 58.247L132.293 58.247L132.293 77.358L130.149 77.358L130.149 59.251C 130.149 51.947 126.963005 50.122 123.717 50.122C 120.703 50.122 117.851006 51.578003 117.43201 57.141003L117.43201 57.141003L117.43201 77.356L115.28701 77.356L115.28701 59.251C 115.28701 51.947 112.10201 50.121 108.85601 50.121C 105.56401 50.121 102.47901 51.859997 102.47901 58.789997L102.47901 58.789997L102.47901 77.355995L100.33601 77.355995L100.33601 48.663L102.09402 48.663L102.276 52.797z"
                            stroke="none" fill="#009FE3" fill-rule="nonzero" />
                        <path
                            d="M135.344 58.246C 135.344 50.557 139.69499 48.145996 143.86699 48.145996C 148.03899 48.145996 152.44499 50.498997 152.44499 58.245995L152.44499 58.245995L152.44499 67.715996C 152.44499 75.462 148.03899 77.815994 143.86699 77.815994C 139.69398 77.815994 135.344 75.40599 135.344 67.715996L135.344 67.715996L135.344 58.246zM150.301 59.251C 150.301 51.947 147.09999 50.122 143.87 50.122C 140.526 50.122 137.489 51.947002 137.489 59.251L137.489 59.251L137.489 66.711C 137.498 73.958 140.41899 75.840996 143.879 75.840996C 147.22299 75.840996 150.31 73.95799 150.301 66.711L150.301 66.711L150.301 59.251z"
                            stroke="none" fill="#009FE3" fill-rule="nonzero" />
                        <path
                            d="M157.784 52.484C 159.14299 49.420002 161.748 48.145 164.579 48.145C 168.58899 48.145 172.748 50.506 172.748 58.246002L172.748 58.246002L172.748 67.715004C 172.748 75.454 168.589 77.816 164.579 77.816C 161.64 77.816 158.96199 76.484 157.569 73.185005L157.569 73.185005L157.4 77.357L155.642 77.357L155.642 39.912L157.784 39.912L157.784 52.484zM170.603 59.25C 170.603 51.947 167.418 50.121002 164.172 50.121002C 160.845 50.121002 157.791 51.947002 157.791 59.25L157.791 59.25L157.791 66.711C 157.783 73.957 160.722 75.84 164.165 75.84C 167.52399 75.84 170.596 73.95699 170.603 66.711L170.603 66.711L170.603 59.25z"
                            stroke="none" fill="#009FE3" fill-rule="nonzero" />
                        <path
                            d="M176.25 42.063L178.874 42.063L178.874 44.613L176.25 44.613L176.25 42.063zM176.487 48.663L178.635 48.663L178.635 77.356995L176.487 77.356995L176.487 48.663z"
                            stroke="none" fill="#009FE3" fill-rule="nonzero" />
                        <path d="M182.375 39.912L184.522 39.912L184.522 77.356995L182.375 77.356995L182.375 39.912z"
                            stroke="none" fill="#009FE3" fill-rule="nonzero" />
                        <path
                            d="M188.025 42.063L190.64899 42.063L190.64899 44.613L188.025 44.613L188.025 42.063zM188.264 48.663L190.41 48.663L190.41 77.356995L188.264 77.356995L188.264 48.663z"
                            stroke="none" fill="#009FE3" fill-rule="nonzero" />
                        <path
                            d="M201.063 66.619C 201.061 75.196 202.81 75.849 207.09601 75.902L207.09601 75.902L207.75801 75.902L207.75801 77.874L206.70302 77.874C 201.72401 77.824 198.91702 76.697 198.91902 67.326004L198.91902 67.326004L198.91902 50.588L194.15002 50.588L194.15002 48.663002L198.91902 48.663002L198.91902 39.912003L201.06302 39.912003L201.06302 48.663002L207.75803 48.663002L207.75803 50.588L201.06302 50.588L201.06302 66.619L201.063 66.619z"
                            stroke="none" fill="#009FE3" fill-rule="nonzero" />
                        <path
                            d="M209.528 58.25C 209.528 50.56 213.88 48.15 218.051 48.15C 222.174 48.15 226.58 50.503002 226.58 58.25L226.58 58.25L226.58 64.155L211.679 64.155L211.679 67.131996C 211.679 74.04099 214.649 75.840996 218.064 75.840996C 221.14299 75.840996 224.18799 74.228 224.442 68.11099L224.442 68.11099L226.58301 68.11099C 226.43501 75.562 222.126 77.815994 218.054 77.815994C 213.881 77.815994 209.531 75.40599 209.531 67.715996L209.531 67.715996L209.528 58.25zM224.426 58.753C 224.418 51.866997 221.176 50.133 218.049 50.128998C 214.756 50.128998 211.672 51.853996 211.672 58.755997L211.672 58.755997L211.672 62.388996L224.431 62.388996L224.426 58.753z"
                            stroke="none" fill="#009FE3" fill-rule="nonzero" />
                    </g>
                    <g>
                        <g>
                            <path
                                d="M60.244 2.465L60.244 8.641C 67.745 8.967999 74.822 10.953 81.116 14.240999L81.116 14.240999L84.212 8.879C 77.007 5.077 68.875 2.798 60.244 2.465"
                                stroke="none" fill="#009FE3" fill-rule="nonzero" />
                            <path
                                d="M8.315 32.446C 4.5149994 39.652 2.2379994 47.779 1.9049997 56.41L1.9049997 56.41L8.072 56.41C 8.398999 48.909 10.389 41.836998 13.676 35.542L13.676 35.542L8.315 32.446"
                                stroke="none" fill="#009FE3" fill-rule="nonzero" />
                            <path
                                d="M55.838 2.476C 47.208 2.809 39.08 5.087 31.874 8.886L31.874 8.886L34.97 14.247C 41.265 10.96 48.338 8.969999 55.838 8.643L55.838 8.643L55.838 2.476"
                                stroke="none" fill="#009FE3" fill-rule="nonzero" />
                            <path
                                d="M28.063 11.094C 20.993 15.563999 14.992 21.564 10.522999 28.635L10.522999 28.635L15.884998 31.731C 19.808998 25.6 25.027998 20.381 31.157997 16.458L31.157997 16.458L28.063 11.094"
                                stroke="none" fill="#009FE3" fill-rule="nonzero" />
                            <path
                                d="M88.021 11.092L84.925 16.453C 91.055 20.376999 96.275 25.599998 100.19701 31.73L100.19701 31.73L105.55601 28.636C 101.087 21.566 95.088 15.563 88.021 11.092"
                                stroke="none" fill="#009FE3" fill-rule="nonzero" />
                        </g>
                        <path
                            d="M100.197 85.54C 99.568 86.523 98.893 87.475 98.198 88.41L98.198 88.41L98.196 88.409004C 89.071 100.676 74.469 108.63701 58.041 108.63701C 31.196001 108.63701 9.23 87.380005 8.071999 60.81501L8.071999 60.81501L1.905 60.81501C 3.0640001 90.82701 27.746 114.80501 58.041 114.80501C 69.06 114.80501 79.331 111.62701 88.001 106.145004L88.001 106.145004L88.020996 106.178C 95.088 101.707 101.088 95.704 105.55699 88.634L105.55699 88.634L100.197 85.54z"
                            stroke="none" fill="#009FE3" fill-rule="nonzero" />
                    </g>
                </g>
            </g>
        </g>
    </g>
</svg>