<?xml version="1.0" encoding="UTF-8"?>
<svg width="45px" height="53px" viewBox="0 0 45 53" version="1.1" xmlns="http://www.w3.org/2000/svg" xmlns:xlink="http://www.w3.org/1999/xlink">
    <title>zes</title>
    <defs>
        <circle id="path-1" cx="22.5000508" cy="22.4611583" r="16.4861388"></circle>
    </defs>
    <g id="Final" stroke="none" stroke-width="1" fill="none" fill-rule="evenodd">
        <g id="zes" transform="translate(0.000000, 0.812071)">
            <path d="M38.4100125,6.59008902 C34.1602749,2.3404529 28.5101039,-1.27897692e-13 22.5000508,-1.27897692e-13 C16.4899976,-1.27897692e-13 10.8398267,2.3404529 6.59008902,6.59008902 C2.34035135,10.8397251 -3.90798505e-14,16.4899976 -3.90798505e-14,22.5000508 C-3.90798505e-14,26.2435772 1.17459297,30.1193176 3.49128389,34.0195309 C5.30135734,37.0669533 7.81332295,40.1410825 10.9572149,43.1567207 C16.2652743,48.2481806 21.4990015,51.3947128 21.7192567,51.526216 L22.4999492,51.9923163 L23.2806418,51.526216 C23.500897,51.3947128 28.7346241,48.2481806 34.0426835,43.1567207 C37.186677,40.1410825 39.6985411,37.0668517 41.5086146,34.0195309 C43.8252039,30.1193176 44.9998985,26.2435772 44.9998985,22.5000508 C44.9998985,16.4900992 42.6596486,10.8398267 38.4100125,6.59008902 Z" id="Path" fill="#C40D3C"></path>
            <mask id="mask-2" fill="white">
                <use xlink:href="#path-1"></use>
            </mask>
            <use id="Mask" fill="#FFFFFF" fill-rule="nonzero" xlink:href="#path-1"></use>
            <path d="M16.8760486,24.7223085 L12.4864122,24.7223085 L17.548342,21.4020471 C18.1317289,20.920217 18.2311244,20.2216549 18.2311244,19.5361648 L18.2311244,19.1879295 L10.5007492,19.1879295 C10.5007492,19.9701517 11.1088601,20.6540732 11.8560747,20.6540732 L15.7836967,20.6540732 L11.2242388,23.5740732 C10.5881573,24.0789099 10.5,24.8289752 10.5,25.5555112 L10.5,26.1879295 L18.2311244,26.1879295 C18.2311244,25.4057072 17.6232633,24.7215242 16.8760486,24.7215242" id="Path" fill="#C40D3C" fill-rule="nonzero" mask="url(#mask-2)"></path>
            <path d="M28.6239514,24.7223085 L33.013338,24.7223085 L27.9514082,21.4020471 C27.3675219,20.9191713 27.2676269,20.2206092 27.2676269,19.535119 L27.2676269,19.1879295 L34.9980021,19.1879295 C34.9980021,19.9701517 34.390141,20.6540732 33.6429263,20.6540732 L29.7163033,20.6540732 L34.2757612,23.5740732 C34.9115929,24.0789099 35,24.8289752 35,25.5555112 L35,26.1879295 L27.2676269,26.1879295 C27.2676269,25.4057072 27.875488,24.7215242 28.6229524,24.7215242" id="Path" fill="#C40D3C" fill-rule="nonzero" mask="url(#mask-2)"></path>
            <path d="M25.8750905,19.1879295 L19.539749,19.1879295 C19.1936921,19.1879295 18.9131576,19.4816073 18.9131576,19.8438772 L18.9131576,19.9484523 C18.9131576,20.3107223 19.1936921,20.6044 19.539749,20.6044 L25.8750905,20.6044 C26.2211474,20.6044 26.5016819,20.3107223 26.5016819,19.9484523 L26.5016819,19.8438772 C26.5016819,19.4816073 26.2211474,19.1879295 25.8750905,19.1879295" id="Path" fill="#5B6670" fill-rule="nonzero" mask="url(#mask-2)"></path>
            <path d="M25.8750905,24.663485 L19.539749,24.663485 C19.1936921,24.663485 18.9131576,24.9571628 18.9131576,25.3194327 L18.9131576,25.4240079 C18.9131576,25.7862778 19.1936921,26.0799556 19.539749,26.0799556 L25.8750905,26.0799556 C26.2211474,26.0799556 26.5016819,25.7862778 26.5016819,25.4240079 L26.5016819,25.3194327 C26.5016819,24.9571628 26.2211474,24.663485 25.8750905,24.663485" id="Path" fill="#5B6670" fill-rule="nonzero" mask="url(#mask-2)"></path>
            <polygon id="Path" fill="#5B6670" fill-rule="nonzero" mask="url(#mask-2)" points="22.7049224 21.918387 22.7049224 21.918387 21.7179597 21.918387 21.7179597 23.3345961 22.7049224 23.3345961 22.7049224 23.3345961 23.6621663 23.3345961 23.6621663 21.918387"></polygon>
            <path d="M19.5372517,21.918387 C19.1911948,21.918387 18.9106602,22.2120648 18.9106602,22.5743347 L18.9106602,22.6789099 C18.9106602,23.0411798 19.1911948,23.3348576 19.5372517,23.3348576 L20.8341386,23.3348576 L20.8341386,21.918387 L19.5372517,21.918387 Z" id="Path" fill="#5B6670" fill-rule="nonzero" mask="url(#mask-2)"></path>
            <path d="M25.8725931,21.918387 L24.5454879,21.918387 L24.5454879,23.3345961 L25.8720936,23.3345961 C26.2181505,23.3345961 26.4986851,23.0409183 26.4986851,22.6786484 L26.4986851,22.5740732 C26.4985474,22.2121095 26.2183574,21.9186755 25.8725931,21.918387 Z" id="Path" fill="#5B6670" fill-rule="nonzero" mask="url(#mask-2)"></path>
        </g>
    </g>
</svg>